<svg xmlns="http://www.w3.org/2000/svg" xmlns:xlink="http://www.w3.org/1999/xlink" width="672" zoomAndPan="magnify" viewBox="0 0 504 359.999987" height="480" preserveAspectRatio="xMidYMid meet" version="1.0"><defs><g/></defs><g fill="#000000" fill-opacity="1"><g transform="translate(8.571873, 273.541124)"><g><path d="M 108.726562 -193.390625 C 108.726562 -194.839844 109.015625 -196.289062 108.148438 -197.449219 C 107.566406 -198.320312 106.699219 -198.609375 105.828125 -198.609375 C 104.957031 -198.609375 104.089844 -198.027344 103.796875 -197.160156 C 103.796875 -195.128906 103.507812 -193.679688 103.507812 -192.230469 C 102.347656 -180.921875 102.929688 -169.324219 102.929688 -158.015625 C 102.929688 -127.863281 100.898438 -98.578125 100.03125 -68.714844 C 100.03125 -57.988281 101.480469 -58.277344 89.882812 -58.277344 C 74.804688 -57.40625 59.4375 -57.988281 44.359375 -56.828125 C 38.273438 -55.957031 32.183594 -56.25 25.515625 -56.25 L 24.933594 -56.25 C 23.484375 -56.25 22.324219 -56.25 21.457031 -56.539062 C 20.296875 -56.539062 19.714844 -57.117188 19.714844 -58.277344 C 19.425781 -59.148438 19.425781 -60.308594 19.425781 -61.757812 C 16.816406 -106.988281 14.496094 -151.058594 12.46875 -196.289062 C 12.46875 -198.320312 12.46875 -201.796875 9.859375 -201.796875 C 8.410156 -201.796875 7.828125 -201.21875 7.828125 -200.347656 C 7.539062 -198.320312 7.25 -196 7.25 -193.96875 C 7.25 -182.082031 7.539062 -170.195312 8.410156 -158.308594 L 11.308594 -66.976562 L 11.308594 -59.148438 C 11.308594 -55.957031 10.726562 -56.25 7.539062 -55.378906 C 6.957031 -55.089844 6.089844 -55.089844 4.640625 -55.089844 C 4.347656 -54.796875 3.480469 -54.796875 2.609375 -54.796875 C 0.578125 -54.21875 -0.289062 -53.347656 0 -52.1875 C 0.289062 -51.320312 1.449219 -50.738281 2.898438 -50.738281 L 7.828125 -50.738281 C 9.859375 -50.738281 11.019531 -49.578125 11.308594 -47.550781 L 11.308594 -42.042969 C 11.308594 -31.894531 11.308594 -22.324219 11.597656 -12.175781 C 11.597656 -8.410156 11.886719 -4.640625 12.175781 -0.871094 C 13.046875 2.320312 13.628906 2.898438 16.816406 2.898438 C 18.847656 2.898438 19.714844 2.03125 19.714844 0.578125 C 20.007812 -4.929688 20.585938 -9.859375 20.585938 -15.367188 L 19.714844 -46.679688 C 19.714844 -50.449219 20.296875 -51.03125 23.773438 -51.03125 C 46.96875 -51.898438 69.585938 -52.1875 92.78125 -52.1875 C 99.738281 -52.1875 99.738281 -52.1875 99.738281 -45.230469 C 99.738281 -33.921875 99.449219 -22.324219 99.738281 -11.019531 C 99.738281 -8.699219 99.738281 1.738281 101.769531 3.1875 C 102.347656 3.480469 103.21875 3.769531 104.089844 3.769531 C 106.117188 3.769531 108.4375 2.320312 108.4375 0.289062 C 108.726562 -6.667969 109.015625 -13.335938 109.015625 -20.007812 C 109.308594 -29.574219 109.015625 -38.851562 109.015625 -48.128906 C 109.308594 -51.609375 109.597656 -52.1875 113.367188 -52.1875 L 131.054688 -52.1875 C 134.242188 -52.1875 137.140625 -52.1875 140.332031 -52.480469 C 142.359375 -52.769531 142.941406 -53.929688 142.359375 -55.378906 C 141.492188 -57.699219 140.042969 -58.859375 138.011719 -59.148438 L 111.335938 -59.148438 C 109.886719 -59.148438 109.308594 -60.019531 109.308594 -61.46875 C 109.015625 -63.496094 109.015625 -64.945312 109.015625 -66.976562 L 109.015625 -129.023438 L 109.597656 -129.023438 Z M 108.726562 -193.390625 "/></g></g></g><g fill="#000000" fill-opacity="1"><g transform="translate(142.22391, 273.541124)"><g><path d="M 6.667969 -80.601562 C 3.480469 -76.253906 2.898438 -71.035156 4.347656 -65.238281 C 5.507812 -62.628906 5.507812 -59.726562 4.058594 -56.539062 C 2.609375 -53.347656 2.03125 -49.289062 2.03125 -44.941406 C 1.160156 -33.632812 7.539062 -24.355469 17.976562 -19.714844 C 20.007812 -18.847656 22.035156 -18.265625 24.355469 -18.265625 C 31.601562 -18.265625 38.273438 -24.355469 42.042969 -30.152344 C 42.910156 -31.601562 44.070312 -32.183594 45.230469 -32.183594 C 45.519531 -32.183594 45.8125 -31.894531 46.679688 -31.894531 C 51.320312 -30.734375 56.25 -30.445312 61.175781 -30.152344 C 65.816406 -31.023438 70.457031 -30.445312 74.804688 -31.894531 C 84.082031 -35.082031 99.738281 -43.78125 103.507812 -53.929688 C 103.507812 -54.796875 103.796875 -55.089844 103.507812 -55.957031 C 102.640625 -57.988281 100.609375 -58.859375 98.578125 -58.859375 C 97.710938 -58.859375 96.839844 -58.566406 96.261719 -57.988281 C 94.230469 -56.539062 93.070312 -55.089844 91.621094 -53.640625 C 82.34375 -43.492188 68.136719 -36.242188 54.21875 -36.242188 C 52.1875 -36.242188 51.03125 -36.53125 49 -36.53125 C 48.710938 -36.53125 48.710938 -36.53125 48.421875 -36.824219 C 46.96875 -37.113281 46.390625 -37.980469 46.679688 -39.140625 L 47.839844 -43.199219 C 49.871094 -49.871094 50.449219 -55.957031 49.578125 -62.628906 C 48.710938 -75.675781 40.882812 -79.734375 30.734375 -85.242188 C 27.253906 -86.691406 24.066406 -87.5625 20.875 -87.5625 C 15.078125 -87.5625 10.148438 -86.113281 6.667969 -80.601562 Z M 28.703125 -81.472656 C 39.722656 -81.472656 42.621094 -67.265625 42.621094 -58.566406 C 42.621094 -55.378906 41.171875 -39.140625 36.53125 -39.140625 C 31.023438 -39.140625 15.367188 -54.21875 15.367188 -62.046875 C 15.367188 -64.367188 13.335938 -66.6875 14.207031 -69.875 C 15.65625 -77.125 20.875 -81.472656 28.703125 -81.472656 Z M 12.175781 -51.320312 C 13.335938 -51.320312 13.917969 -51.03125 14.785156 -50.160156 C 20.585938 -44.359375 27.253906 -39.722656 34.503906 -36.242188 C 35.664062 -35.371094 35.953125 -34.503906 35.371094 -33.34375 C 32.183594 -28.414062 25.804688 -22.324219 19.714844 -22.324219 C 18.554688 -22.324219 17.394531 -22.90625 16.527344 -24.066406 C 10.148438 -32.472656 8.699219 -41.460938 11.886719 -50.738281 C 12.175781 -51.03125 12.175781 -51.320312 12.175781 -51.320312 Z M 12.175781 -51.320312 "/></g></g></g><g fill="#000000" fill-opacity="1"><g transform="translate(237.316896, 273.541124)"><g><path d="M 10.148438 -54.796875 C 9.277344 -57.40625 9.566406 -59.4375 11.597656 -60.886719 C 20.585938 -70.164062 27.253906 -80.023438 33.921875 -91.332031 C 39.722656 -100.898438 45.230469 -110.175781 50.738281 -120.324219 C 61.46875 -138.589844 75.382812 -166.425781 75.382812 -187.882812 C 75.382812 -201.796875 64.367188 -214.847656 49.871094 -214.847656 C 24.644531 -214.847656 7.539062 -178.601562 1.449219 -158.597656 C -3.480469 -141.199219 -5.21875 -123.515625 -5.507812 -105.25 C -5.796875 -98.578125 -5.21875 -92.492188 -4.347656 -85.824219 C -2.03125 -62.628906 8.410156 -24.933594 32.761719 -15.65625 L 43.78125 -11.308594 C 47.261719 -10.148438 50.738281 -9.566406 53.929688 -9.566406 C 75.382812 -9.566406 91.332031 -31.894531 101.480469 -48.128906 C 102.347656 -49.289062 102.347656 -50.160156 103.21875 -51.320312 C 103.796875 -52.769531 103.21875 -53.929688 101.769531 -54.796875 C 100.609375 -55.089844 100.03125 -55.667969 99.160156 -55.667969 C 98.289062 -55.667969 97.128906 -54.796875 95.96875 -53.347656 L 82.054688 -35.082031 C 73.644531 -23.773438 62.046875 -13.917969 47.261719 -13.917969 C 26.675781 -13.917969 16.527344 -38.273438 10.148438 -54.796875 Z M 7.828125 -64.367188 C 5.796875 -64.945312 2.609375 -86.402344 2.609375 -89.300781 C 1.160156 -111.628906 2.898438 -133.371094 9.566406 -155.40625 C 15.078125 -175.125 32.183594 -209.335938 56.25 -209.335938 C 67.265625 -209.335938 69.296875 -198.027344 69.296875 -189.042969 C 67.847656 -166.425781 55.667969 -140.910156 44.652344 -121.195312 C 33.34375 -101.480469 24.355469 -84.371094 10.726562 -66.105469 C 9.859375 -65.238281 9.277344 -63.496094 7.828125 -64.367188 Z M 7.828125 -64.367188 "/></g></g></g><g fill="#000000" fill-opacity="1"><g transform="translate(332.11998, 273.541124)"><g><path d="M 34.214844 -49.578125 C 37.980469 -54.21875 43.199219 -57.699219 45.8125 -63.207031 L 46.96875 -64.078125 C 47.550781 -64.65625 47.839844 -64.65625 48.128906 -64.367188 C 48.421875 -64.367188 49 -63.785156 48.710938 -63.496094 C 48.710938 -61.46875 48.421875 -59.4375 48.128906 -57.40625 C 47.550781 -52.480469 47.261719 -47.839844 47.550781 -44.070312 C 49 -26.382812 61.46875 -18.847656 76.835938 -13.335938 C 80.894531 -11.886719 84.664062 -11.019531 88.433594 -11.019531 C 109.015625 -11.019531 126.414062 -36.242188 136.5625 -51.03125 C 136.851562 -51.898438 137.140625 -52.480469 137.140625 -53.058594 C 137.433594 -53.347656 137.433594 -53.929688 136.851562 -54.21875 C 135.980469 -55.378906 135.113281 -55.957031 133.664062 -55.957031 C 132.792969 -55.957031 131.921875 -55.667969 131.34375 -55.089844 C 128.734375 -52.769531 126.414062 -49.871094 124.382812 -46.679688 C 114.238281 -33.632812 100.320312 -15.945312 82.632812 -15.945312 C 69.585938 -15.945312 60.308594 -22.035156 57.117188 -35.664062 C 55.667969 -42.332031 55.378906 -48.421875 56.25 -55.089844 L 57.117188 -63.496094 L 57.117188 -68.136719 C 57.117188 -71.617188 54.796875 -74.804688 51.03125 -74.804688 C 50.160156 -74.804688 49.289062 -74.515625 48.710938 -74.226562 C 46.679688 -72.773438 46.101562 -69.296875 42.910156 -69.585938 C 40.589844 -69.875 38.273438 -71.617188 35.953125 -72.773438 C 33.34375 -74.226562 30.445312 -75.09375 27.253906 -75.09375 C 10.4375 -75.09375 0 -53.929688 -2.320312 -40.011719 C -2.609375 -37.691406 -2.609375 -35.664062 -2.320312 -33.632812 C -1.449219 -28.992188 2.898438 -25.804688 7.25 -25.804688 C 15.65625 -25.804688 29.863281 -43.78125 34.214844 -49.578125 Z M 33.921875 -71.035156 C 38.5625 -70.746094 40.882812 -66.105469 38.273438 -62.335938 C 31.3125 -53.347656 24.644531 -44.652344 16.816406 -36.824219 C 14.785156 -34.792969 8.988281 -29.863281 6.378906 -29.863281 C 5.796875 -29.863281 5.507812 -30.152344 5.21875 -30.445312 C 4.347656 -31.3125 4.640625 -31.601562 4.347656 -32.472656 C 6.667969 -46.96875 16.238281 -71.035156 33.921875 -71.035156 Z M 33.921875 -71.035156 "/></g></g></g><g fill="#000000" fill-opacity="1"><g transform="translate(460.5535, 273.541124)"><g><path d="M 20.875 -39.433594 C 20.875 -37.402344 21.164062 -35.953125 21.164062 -33.921875 C 21.746094 -31.601562 23.195312 -30.445312 25.804688 -30.445312 C 27.253906 -30.445312 28.125 -31.601562 28.414062 -33.632812 L 28.414062 -37.113281 L 30.734375 -104.378906 C 31.601562 -131.921875 31.023438 -158.886719 34.214844 -186.722656 L 34.214844 -193.679688 C 34.214844 -195.710938 33.054688 -196.578125 30.734375 -196.578125 C 29.285156 -196.289062 28.703125 -195.710938 28.703125 -194.261719 C 28.414062 -192.808594 28.125 -191.652344 28.125 -190.78125 C 26.09375 -180.054688 24.933594 -169.613281 24.644531 -158.886719 C 23.195312 -125.542969 22.035156 -93.070312 20.875 -59.726562 C 20.585938 -53.058594 20.875 -46.101562 20.875 -39.433594 Z M 19.714844 -1.738281 C 21.164062 -0.871094 22.324219 -0.578125 24.355469 -0.578125 C 26.382812 -0.578125 28.125 -1.738281 29.285156 -3.769531 C 32.472656 -8.410156 31.3125 -10.4375 25.804688 -12.46875 C 21.164062 -12.46875 18.265625 -12.175781 17.394531 -6.378906 C 17.105469 -4.347656 17.6875 -2.898438 19.714844 -1.738281 Z M 19.714844 -1.738281 "/></g></g></g></svg>