<svg xmlns="http://www.w3.org/2000/svg" xmlns:xlink="http://www.w3.org/1999/xlink" width="500" zoomAndPan="magnify" viewBox="0 0 375 374.999991" height="500" preserveAspectRatio="xMidYMid meet" version="1.0"><defs><clipPath id="bc597c9cf2"><path d="M 112 10.46875 L 252 10.46875 L 252 321 L 112 321 Z M 112 10.46875 " clip-rule="nonzero"/></clipPath><clipPath id="b729b9db1c"><path d="M 63.4375 236 L 125 236 L 125 341.96875 L 63.4375 341.96875 Z M 63.4375 236 " clip-rule="nonzero"/></clipPath><clipPath id="2a2a9037f6"><path d="M 250 286 L 295.9375 286 L 295.9375 341.96875 L 250 341.96875 Z M 250 286 " clip-rule="nonzero"/></clipPath></defs><g clip-path="url(#bc597c9cf2)"><path fill="#000000" d="M 251.46875 285.117188 C 251.230469 284.660156 250.769531 284.390625 250.296875 284.222656 C 249.292969 283.875 248.1875 284.03125 247.203125 284.367188 C 246.023438 284.757812 244.84375 285.839844 244.132812 286.375 C 243.570312 286.777344 242.945312 287.066406 242.320312 287.351562 C 241.554688 287.6875 241.035156 287.933594 240.109375 288.226562 C 238.792969 288.628906 237.871094 288.761719 236.644531 288.796875 C 235.738281 288.800781 234.839844 288.664062 233.933594 288.625 C 233.09375 288.597656 232.242188 288.640625 231.421875 288.851562 C 230.816406 289.019531 230.242188 289.289062 229.691406 289.585938 C 228.785156 290.101562 227.941406 290.714844 227.058594 291.261719 C 226.25 291.757812 225.402344 292.179688 224.542969 292.578125 C 222.917969 293.328125 221.011719 293.988281 219.015625 293.757812 C 219.023438 293.757812 218.804688 293.71875 218.742188 293.695312 C 218.695312 293.679688 218.652344 293.664062 218.605469 293.648438 C 218.585938 293.640625 218.566406 293.632812 218.550781 293.625 C 218.539062 293.621094 218.527344 293.617188 218.515625 293.609375 C 218.488281 293.597656 218.464844 293.589844 218.449219 293.582031 C 218.40625 293.5625 218.363281 293.542969 218.320312 293.523438 C 216.09375 292.222656 213.769531 291.082031 211.648438 289.609375 C 211.363281 289.410156 211.078125 289.207031 210.796875 289.003906 C 210.902344 288.460938 210.953125 287.910156 210.914062 287.351562 C 210.910156 287.246094 210.902344 287.140625 210.894531 287.035156 C 210.90625 286.992188 210.921875 286.949219 210.933594 286.902344 C 211.085938 286.363281 211.003906 285.792969 210.773438 285.289062 C 210.449219 284.429688 209.863281 283.707031 209.347656 282.957031 C 206.226562 278.5625 203.445312 273.933594 200.113281 269.6875 C 198.441406 267.574219 196.601562 265.597656 194.742188 263.648438 C 192.898438 261.789062 190.984375 260.003906 189.078125 258.207031 C 187.414062 256.679688 185.730469 255.167969 184.03125 253.679688 C 183.441406 253.019531 182.984375 252.425781 182.738281 251.53125 C 182.730469 251.484375 182.722656 251.441406 182.714844 251.394531 C 182.710938 251.367188 182.707031 251.339844 182.707031 251.308594 C 182.707031 251.296875 182.710938 251.285156 182.710938 251.273438 C 182.714844 251.234375 182.722656 251.199219 182.730469 251.160156 C 182.800781 250.90625 182.777344 250.960938 182.957031 250.648438 C 183.351562 250.027344 183.789062 249.460938 184.738281 248.476562 C 185.609375 248.039062 186.457031 247.539062 187.28125 247.03125 C 192.304688 243.761719 196.867188 239.851562 201.582031 236.160156 C 203.816406 234.367188 206.042969 232.570312 208.210938 230.695312 C 209.871094 229.242188 211.523438 227.765625 212.988281 226.113281 C 213.179688 225.867188 213.390625 225.613281 213.414062 225.292969 C 213.449219 225.003906 213.234375 224.699219 212.933594 224.683594 C 212.660156 224.648438 212.394531 224.738281 212.152344 224.847656 C 211.820312 224.980469 211.496094 225.140625 211.183594 225.320312 C 206.90625 227.835938 203.320312 231.3125 199.558594 234.511719 C 196.976562 236.75 194.371094 238.960938 191.78125 241.195312 C 189.886719 242.816406 187.976562 244.425781 186.125 246.097656 C 185.464844 246.6875 184.796875 247.28125 184.171875 247.917969 C 182.984375 248.5 181.835938 248.910156 180.804688 249.019531 C 179.859375 249.066406 179.132812 248.910156 178.367188 248.597656 C 178.273438 248.496094 178.179688 248.394531 178.085938 248.289062 C 176.660156 246.671875 175.597656 245.25 174.546875 243.289062 C 173.441406 241.253906 172.644531 239.015625 172.21875 236.511719 C 171.980469 235.003906 171.917969 233.320312 171.96875 231.523438 C 172.097656 226.464844 173.113281 221.789062 174.21875 216.695312 C 175.46875 210.738281 176.582031 204.738281 177.234375 198.679688 C 177.480469 196.230469 177.699219 193.773438 177.800781 191.308594 C 177.871094 188.902344 177.835938 186.496094 177.761719 184.089844 C 177.492188 178.398438 176.84375 172.722656 175.890625 167.109375 C 175.191406 163.3125 174.0625 159.597656 172.546875 156.050781 C 171.199219 152.828125 169.492188 149.753906 167.324219 147.011719 C 165.734375 144.902344 163.824219 143.046875 161.761719 141.394531 C 160.351562 140.292969 158.9375 139.191406 157.414062 138.25 C 156.847656 137.894531 156.273438 137.554688 155.691406 137.230469 C 155.171875 136.949219 154.628906 136.675781 154.035156 136.59375 C 153.75 136.5625 153.453125 136.582031 153.199219 136.726562 C 153.035156 136.84375 152.929688 137.046875 152.898438 137.242188 C 152.851562 137.828125 153.269531 138.304688 153.617188 138.730469 C 156.140625 141.289062 159.382812 143.457031 161.941406 145.535156 C 163.03125 146.433594 164.097656 147.355469 165.082031 148.363281 C 165.996094 149.285156 166.675781 150.179688 167.347656 151.050781 C 169.089844 153.371094 170.585938 155.867188 171.976562 158.410156 C 172.484375 159.289062 173.257812 160.839844 173.542969 161.515625 C 173.652344 161.777344 173.753906 162.042969 173.851562 162.308594 C 173.964844 162.695312 174.074219 163.085938 174.179688 163.484375 C 174.867188 166.03125 175.292969 168.632812 175.660156 171.242188 C 176.0625 174.121094 176.410156 177.355469 176.679688 180.558594 C 176.953125 184.222656 177.027344 187.902344 176.914062 191.570312 C 176.761719 195.078125 176.308594 199.527344 175.882812 202.5625 C 175.308594 206.589844 174.570312 210.59375 173.769531 214.578125 C 173.203125 217.328125 172.5625 220.0625 172.066406 222.828125 C 171.328125 227.082031 170.808594 231.433594 171.257812 235.746094 C 171.75 239.8125 173.472656 243.691406 175.992188 246.90625 C 176.050781 246.980469 176.109375 247.054688 176.167969 247.125 C 171.851562 243.765625 167.371094 240.621094 162.8125 237.605469 C 160.703125 236.246094 158.558594 234.941406 156.359375 233.730469 C 155.097656 233.039062 153.847656 232.324219 152.535156 231.734375 C 151.835938 231.449219 151.097656 231.128906 150.328125 231.167969 C 149.460938 231.320312 149.617188 232.148438 150.078125 232.683594 C 151.109375 233.894531 152.570312 234.632812 153.882812 235.492188 C 161.148438 239.933594 169.148438 243.132812 176.058594 248.152344 C 176.773438 248.71875 177.484375 249.289062 178.183594 249.863281 C 181.636719 252.660156 184.941406 255.632812 188.234375 258.613281 C 191.109375 261.316406 194.007812 264 196.628906 266.953125 C 199.949219 270.53125 202.503906 274.367188 205.292969 278.554688 C 206.316406 280.105469 207.34375 281.652344 208.425781 283.15625 C 208.871094 283.8125 209.355469 284.410156 209.707031 285.03125 C 209.417969 285.101562 209.214844 285.382812 209.125 285.65625 C 208.835938 286.433594 208.703125 287.257812 208.472656 288.050781 C 208.125 289.300781 207.742188 290.476562 207.316406 291.617188 C 207.214844 291.765625 207.113281 291.914062 207.015625 292.054688 C 205.429688 294.335938 202.847656 297.78125 200.253906 297.625 C 199.5625 297.613281 198.863281 297.269531 198.070312 296.914062 C 197.167969 296.492188 196.289062 296.027344 195.429688 295.53125 C 192.988281 294.164062 190.628906 292.664062 188.292969 291.125 C 185.214844 289.09375 182.140625 287.046875 179.167969 284.863281 C 175.105469 281.90625 171.050781 278.941406 167.015625 275.949219 C 165.125 274.523438 163.609375 273.367188 161.738281 271.890625 C 160.566406 271 159.457031 270.007812 158.195312 269.234375 C 157.882812 269.042969 157.507812 269.421875 157.699219 269.734375 C 158.070312 270.316406 158.671875 270.714844 159.15625 271.203125 C 160.042969 272.007812 160.929688 272.816406 161.816406 273.625 C 163.851562 275.476562 165.871094 277.347656 167.949219 279.152344 C 170.921875 281.746094 174.011719 284.199219 177.105469 286.644531 C 180.882812 289.625 184.738281 292.503906 188.773438 295.132812 C 191.230469 296.730469 193.691406 298.324219 196.28125 299.695312 C 197.253906 300.214844 198.269531 300.652344 199.304688 301.023438 C 200.140625 301.308594 201.027344 301.566406 201.921875 301.46875 C 203.277344 301.324219 203.9375 299.964844 204.632812 298.957031 C 205.691406 297.300781 206.601562 295.554688 207.390625 293.757812 C 207.660156 293.125 207.917969 292.484375 208.160156 291.839844 C 208.476562 291.378906 208.792969 290.910156 209.101562 290.4375 C 209.347656 290.039062 209.609375 289.640625 209.855469 289.234375 C 209.839844 289.289062 209.824219 289.34375 209.808594 289.40625 C 209.121094 291.535156 208.449219 293.359375 207.554688 295.195312 C 206.597656 297 205.488281 298.683594 204.324219 300.023438 C 202.078125 302.613281 198.886719 304.371094 195.941406 305.582031 C 194.140625 306.335938 191.90625 306.980469 190.105469 307.265625 C 189.835938 307.277344 189.566406 307.300781 189.300781 307.328125 C 189.269531 307.339844 189.242188 307.355469 189.222656 307.378906 C 189.203125 307.378906 189.183594 307.382812 189.164062 307.382812 C 185.132812 307.800781 181.65625 307.171875 177.84375 305.871094 C 173.46875 304.488281 169.636719 302.640625 165.4375 300.496094 C 160.082031 297.675781 155.523438 294.40625 151.1875 290.390625 C 148.808594 288.203125 146.496094 285.9375 144.363281 283.507812 C 142.25 281.140625 140.539062 279.082031 138.738281 276.640625 C 137.582031 275.097656 136.449219 273.535156 135.4375 271.890625 C 133.363281 268.492188 131.433594 264.410156 130.042969 261.097656 C 128.21875 256.71875 126.902344 252.128906 126.121094 247.449219 C 125.449219 243.363281 125.152344 238.671875 124.816406 234.203125 C 124.140625 225.207031 123.558594 216.203125 123.101562 207.195312 C 122.675781 199.855469 122.371094 192.488281 121.257812 185.210938 C 120.695312 181.40625 120 177.625 119.1875 173.863281 C 118.457031 170.3125 117.582031 166.789062 116.980469 163.214844 C 116.542969 160.640625 116.320312 158.449219 116.1875 155.699219 C 116.136719 154.371094 116.109375 152.882812 116.214844 151.648438 C 116.558594 150.3125 116.828125 148.953125 117.183594 147.621094 C 117.445312 146.621094 117.675781 145.554688 117.886719 144.460938 C 118.21875 143.160156 118.527344 141.851562 118.785156 140.53125 C 119.101562 139.003906 119.464844 137.480469 119.785156 135.953125 C 119.859375 135.734375 119.9375 135.523438 120.015625 135.320312 C 120.542969 133.980469 121.34375 132.691406 122.089844 131.847656 C 123.292969 130.507812 124.476562 129.507812 125.765625 128.621094 C 129.023438 126.363281 132.296875 125.21875 136.195312 124.402344 C 137.96875 124.046875 139.753906 123.761719 141.542969 123.503906 C 143 123.304688 144.90625 123.09375 146.675781 122.753906 C 148.171875 122.445312 149.628906 121.988281 151.0625 121.46875 C 152.582031 120.898438 154.078125 120.238281 155.433594 119.339844 C 156.460938 118.65625 157.445312 117.886719 158.234375 116.929688 C 158.320312 116.820312 158.402344 116.710938 158.488281 116.597656 C 158.558594 117.15625 158.78125 117.679688 159.222656 118.117188 C 159.636719 118.492188 160.191406 118.625 160.722656 118.730469 C 161.433594 118.878906 162.15625 118.988281 162.878906 119.074219 C 165.117188 119.324219 167.375 119.507812 169.628906 119.402344 C 172.578125 119.246094 175.507812 118.703125 178.351562 117.914062 C 179.023438 117.71875 179.691406 117.5 180.34375 117.25 C 180.742188 117.101562 181.164062 116.925781 181.523438 116.675781 C 181.570312 116.71875 181.636719 116.746094 181.722656 116.746094 C 182.015625 116.742188 182.101562 116.433594 181.984375 116.25 C 182.105469 116.097656 182.203125 115.929688 182.269531 115.730469 C 182.773438 114.441406 183.191406 113.121094 183.632812 111.808594 C 183.820312 111.21875 183.988281 110.785156 184.097656 110.449219 C 185.699219 111.4375 187.375 112.308594 189.160156 112.902344 C 190.820312 113.441406 192.621094 113.851562 194.367188 113.527344 C 195.777344 113.257812 196.898438 112.308594 197.941406 111.382812 C 199.566406 109.929688 201 108.273438 202.214844 106.46875 C 204.121094 103.589844 205.839844 100.871094 207.953125 98.441406 C 209.304688 96.902344 210.703125 95.402344 212.125 93.929688 C 213.761719 92.261719 215.414062 90.605469 216.90625 88.808594 C 217.820312 87.734375 218.644531 86.589844 219.28125 85.332031 C 220.160156 83.605469 220.804688 81.773438 221.519531 79.976562 C 222.359375 77.773438 223.261719 75.597656 224.125 73.402344 C 224.820312 71.566406 225.558594 69.742188 226.164062 67.875 C 226.792969 65.890625 227.269531 63.855469 227.519531 61.785156 C 227.835938 60.777344 228.097656 59.867188 228.3125 58.71875 C 228.628906 56.859375 229.019531 55.015625 229.453125 53.183594 C 230.328125 49.378906 231.25 45.5 231.050781 41.570312 C 230.96875 40.445312 230.746094 39.339844 230.519531 38.234375 C 230.183594 36.625 229.75 35.027344 229.0625 33.53125 C 226.644531 28.292969 222.269531 24.292969 217.726562 20.875 C 214.761719 18.601562 211.636719 16.539062 208.304688 14.847656 C 206.046875 13.636719 203.726562 12.53125 201.289062 11.722656 C 200 11.28125 198.675781 10.925781 197.324219 10.714844 C 196.414062 10.570312 195.484375 10.488281 194.5625 10.585938 C 192.414062 10.816406 190.378906 11.609375 188.28125 12.085938 C 186.839844 12.417969 185.472656 12.441406 183.789062 12.476562 C 182.3125 12.515625 180.835938 12.640625 179.398438 12.976562 C 175.859375 13.804688 172.761719 15.820312 169.875 17.953125 C 167.210938 19.949219 164.65625 22.09375 162.203125 24.339844 C 160.609375 25.84375 159.03125 27.371094 157.574219 29.007812 C 156.121094 30.644531 154.773438 32.367188 153.492188 34.136719 C 150.917969 37.714844 148.558594 41.460938 146.578125 45.398438 C 144.375 49.761719 142.625 54.335938 141.039062 58.953125 C 139.132812 64.40625 137.757812 70.023438 136.484375 75.652344 C 135.089844 81.648438 133.800781 87.679688 132.191406 93.625 C 131.300781 96.835938 130.253906 98.476562 128 100.945312 C 125.492188 103.699219 122.417969 105.886719 120.019531 108.746094 C 119.25 109.667969 118.515625 110.628906 117.9375 111.683594 C 117.4375 112.640625 117.070312 113.671875 116.820312 114.722656 C 116.628906 115.667969 116.65625 116.640625 116.585938 117.601562 C 116.515625 118.980469 116.496094 120.054688 116.027344 121.324219 C 116.027344 121.328125 116.027344 121.332031 116.023438 121.335938 C 115.453125 122.179688 114.933594 123.058594 114.480469 123.972656 C 113.550781 125.933594 112.90625 128.042969 112.59375 130.1875 C 112.222656 133.359375 112.5625 136.570312 112.957031 139.726562 C 113.257812 142.03125 113.585938 144.335938 113.929688 146.636719 C 114.175781 148.285156 114.324219 149.957031 114.757812 151.570312 C 114.859375 151.890625 114.964844 152.242188 115.25 152.441406 C 115.289062 152.457031 115.328125 152.472656 115.371094 152.484375 C 115.25 154.066406 115.304688 155.65625 115.410156 157.242188 C 115.59375 160.335938 116.0625 163.40625 116.691406 166.4375 C 118.058594 172.828125 119.527344 179.199219 120.441406 185.675781 C 121.203125 190.582031 121.597656 196.304688 121.90625 201.636719 C 122.230469 207.15625 122.503906 212.675781 122.835938 218.195312 C 123.183594 223.871094 123.59375 229.542969 124.007812 235.21875 C 124.335938 239.457031 124.609375 243.710938 125.3125 247.910156 C 125.890625 251.316406 126.757812 254.671875 127.898438 257.9375 C 129.027344 261.15625 130.425781 264.273438 131.941406 267.328125 C 132.980469 269.421875 134.105469 271.476562 135.378906 273.441406 C 137.03125 275.894531 138.824219 278.253906 140.675781 280.558594 C 143.402344 283.878906 146.3125 287.050781 149.453125 289.980469 C 152.253906 292.648438 155.242188 295.113281 158.429688 297.308594 C 162.355469 300.027344 166.632812 302.1875 170.976562 304.148438 C 173.023438 305.089844 175.117188 305.90625 177.257812 306.601562 C 180.503906 307.730469 183.921875 308.492188 187.375 308.378906 C 188.820312 308.347656 190.25 308.160156 191.652344 307.851562 C 192.265625 307.890625 192.832031 307.972656 193.324219 308.105469 C 194.472656 308.421875 195.074219 308.746094 196.136719 309.246094 C 197.558594 309.941406 198.953125 310.695312 200.371094 311.402344 C 203.085938 312.765625 205.835938 314.058594 208.527344 315.46875 C 210.390625 316.429688 212.234375 317.421875 214.125 318.332031 C 215.1875 318.859375 216.257812 319.375 217.371094 319.78125 C 217.878906 319.96875 218.398438 320.109375 218.929688 320.214844 C 219.28125 320.292969 219.632812 320.375 219.996094 320.335938 C 221.527344 320.246094 223.050781 320.078125 224.566406 319.878906 C 226.246094 319.613281 228.039062 319.425781 229.515625 318.519531 C 230.203125 318.082031 230.652344 317.398438 231.117188 316.75 C 231.976562 315.660156 235.136719 314.765625 236.636719 313.25 C 237.625 312.375 238.394531 310.554688 238.96875 309.859375 C 240.058594 308.449219 241.304688 307.894531 242.6875 306.671875 C 243.359375 306.105469 243.925781 305.386719 244.207031 304.546875 C 244.378906 303.957031 244.386719 303.335938 244.460938 302.730469 C 244.605469 301.425781 244.675781 300.742188 245.085938 299.355469 C 245.257812 298.863281 245.34375 298.625 245.519531 298.257812 C 245.746094 298 245.960938 297.726562 246.179688 297.457031 C 246.585938 296.964844 247.007812 296.488281 247.421875 296 C 248.1875 295.109375 248.96875 294.230469 249.691406 293.304688 C 250.128906 292.722656 250.628906 292.152344 250.878906 291.460938 C 251.027344 290.957031 250.996094 290.421875 251.039062 289.902344 C 251.058594 289.53125 251.09375 289.164062 251.136719 288.792969 C 251.21875 288.300781 251.261719 287.925781 251.472656 287.242188 C 251.675781 286.609375 251.851562 285.941406 251.46875 285.117188 Z M 165.941406 148.277344 C 163.917969 146.0625 161.019531 143.933594 158.921875 142.339844 C 158.714844 142.175781 158.503906 142.015625 158.296875 141.851562 C 157.066406 140.894531 155.863281 139.902344 154.726562 138.835938 C 154.585938 138.707031 154.449219 138.574219 154.316406 138.4375 C 154.195312 138.308594 154.078125 138.175781 153.96875 138.035156 C 153.835938 137.863281 153.722656 137.675781 153.640625 137.472656 C 153.648438 137.480469 153.636719 137.421875 153.625 137.363281 C 153.625 137.355469 153.628906 137.347656 153.628906 137.339844 L 153.667969 137.324219 C 153.765625 137.3125 153.867188 137.316406 153.96875 137.328125 C 154.523438 137.429688 154.589844 137.542969 155.054688 137.746094 C 156.308594 138.429688 157.507812 139.214844 158.675781 140.039062 C 160.082031 141.097656 161.402344 142.117188 162.859375 143.40625 C 163.378906 143.914062 163.894531 144.421875 164.414062 144.925781 C 164.921875 145.496094 165.425781 146.066406 165.933594 146.636719 C 165.910156 146.609375 165.890625 146.578125 165.867188 146.550781 C 166.261719 147.054688 167.089844 148.144531 167.304688 148.410156 C 168.21875 149.710938 169.050781 151.003906 169.835938 152.382812 C 170.761719 154.148438 171.566406 155.890625 172.277344 157.6875 C 170.476562 154.347656 168.457031 151.117188 165.941406 148.277344 Z M 164.015625 240.332031 C 161.148438 238.816406 158.265625 237.339844 155.472656 235.691406 C 153.789062 234.660156 151.644531 233.492188 150.664062 232.34375 C 150.484375 232.105469 150.449219 232.042969 150.398438 231.871094 C 150.460938 231.867188 150.519531 231.867188 150.578125 231.867188 C 150.683594 231.886719 150.871094 231.921875 150.898438 231.933594 C 151.113281 231.972656 151.320312 232.050781 151.527344 232.121094 C 152.925781 232.644531 154.703125 233.738281 156.269531 234.601562 C 159.21875 236.289062 162.085938 238.113281 164.894531 240.03125 C 166.492188 241.125 168.070312 242.226562 169.625 243.339844 C 167.773438 242.304688 165.890625 241.324219 164.015625 240.332031 Z M 187.6875 245.796875 C 190.351562 243.441406 193.0625 241.132812 195.738281 238.792969 C 198.144531 236.703125 200.542969 234.609375 202.929688 232.496094 C 205.628906 230.089844 208.074219 227.992188 211.097656 226.109375 C 211.65625 225.765625 212.402344 225.378906 212.730469 225.324219 C 212.671875 225.449219 212.539062 225.609375 212.332031 225.835938 C 209.199219 229.078125 205.640625 231.871094 202.140625 234.707031 C 198.484375 237.605469 194.835938 240.566406 191.34375 243.226562 C 190.203125 244.074219 188.859375 245.074219 187.457031 246.003906 C 187.53125 245.933594 187.609375 245.863281 187.6875 245.796875 Z M 179.316406 249.644531 C 179.304688 249.628906 179.292969 249.617188 179.28125 249.601562 C 180.03125 249.761719 180.808594 249.792969 181.566406 249.648438 C 182.0625 249.539062 182.546875 249.394531 183.027344 249.222656 C 182.804688 249.503906 182.597656 249.796875 182.40625 250.105469 C 182.09375 250.605469 181.808594 251.25 182.214844 252.109375 C 181.261719 251.292969 180.304688 250.484375 179.335938 249.683594 C 179.332031 249.671875 179.324219 249.65625 179.316406 249.644531 Z M 204 298.316406 C 202.488281 300.660156 202.308594 301.101562 199.558594 300.191406 C 198.136719 299.699219 196.777344 299 195.261719 298.148438 C 193.214844 296.96875 191.222656 295.691406 189.246094 294.398438 C 182.679688 290.097656 176.949219 285.527344 170.945312 280.644531 C 168.519531 278.65625 166.183594 276.558594 163.851562 274.457031 C 166.351562 276.382812 168.898438 278.25 171.441406 280.121094 C 174.882812 282.632812 178.300781 285.179688 181.785156 287.628906 C 184.574219 289.5625 187.398438 291.4375 190.246094 293.289062 C 192.230469 294.570312 194.261719 295.78125 196.339844 296.910156 C 198.484375 297.976562 200.289062 299.160156 202.671875 297.761719 C 203.925781 297.007812 204.976562 295.988281 205.910156 294.871094 C 205.351562 296.019531 204.71875 297.15625 204 298.316406 Z M 183.257812 110.210938 C 183.140625 110.542969 183.023438 110.878906 182.910156 111.210938 C 182.476562 112.507812 182.054688 113.808594 181.582031 115.089844 C 181.386719 115.546875 181.5 115.464844 181.203125 115.816406 C 180.738281 116.246094 179.9375 116.472656 178.960938 116.816406 C 176.960938 117.457031 174.894531 117.882812 172.820312 118.207031 C 171.679688 118.394531 169.9375 118.550781 168.421875 118.558594 C 166.59375 118.554688 164.769531 118.410156 162.953125 118.207031 C 162.257812 118.144531 161.558594 118.007812 160.609375 117.8125 C 159.640625 117.621094 159.367188 117.113281 159.347656 116.132812 C 159.34375 115.792969 159.40625 115.453125 159.511719 115.109375 C 160.195312 114.046875 160.847656 112.964844 161.640625 111.980469 C 162.65625 110.617188 164.625 108.339844 166.242188 106.492188 C 166.882812 105.847656 167.519531 105.199219 168.132812 104.539062 C 169.007812 103.605469 169.824219 102.625 170.613281 101.625 C 170.894531 102.132812 171.351562 102.542969 171.773438 102.933594 C 172.566406 103.636719 173.476562 104.1875 174.378906 104.742188 C 175.554688 105.460938 176.753906 106.140625 177.96875 106.792969 C 179.261719 107.511719 180.546875 108.234375 181.832031 108.964844 C 182.257812 109.261719 182.691406 109.554688 183.128906 109.835938 C 183.199219 109.882812 183.265625 109.925781 183.335938 109.972656 C 183.3125 110.054688 183.285156 110.132812 183.257812 110.210938 Z M 171.109375 101.0625 C 171.125 101.0625 171.140625 101.0625 171.15625 101.0625 C 171.242188 101.078125 171.328125 101.101562 171.410156 101.132812 C 171.433594 101.144531 171.457031 101.152344 171.476562 101.164062 C 171.621094 101.234375 171.757812 101.3125 171.894531 101.398438 C 173.992188 102.824219 175.816406 104.3125 177.917969 105.996094 C 177.554688 105.800781 177.1875 105.601562 176.824219 105.398438 C 175.539062 104.675781 173.722656 103.585938 172.796875 102.914062 C 172.050781 102.320312 171.175781 101.546875 171.109375 101.0625 Z M 226.601562 62.046875 C 226.460938 63.125 226.25 64.183594 225.988281 65.230469 C 225.867188 65.652344 225.746094 66.070312 225.625 66.484375 C 225.554688 66.722656 225.488281 66.957031 225.421875 67.191406 C 225.410156 67.261719 225.367188 67.332031 225.375 67.402344 C 224.550781 70.035156 223.480469 72.601562 222.476562 75.167969 C 221.15625 78.324219 220.011719 81.695312 218.714844 84.507812 C 217.828125 86.308594 216.941406 87.460938 215.667969 88.910156 C 214.128906 90.699219 212.429688 92.335938 210.800781 94.042969 C 209.175781 95.773438 207.527344 97.492188 206.066406 99.367188 C 204.371094 101.511719 202.921875 103.839844 201.402344 106.109375 C 200.335938 107.6875 199.207031 108.996094 197.679688 110.4375 C 196.808594 111.191406 196.269531 111.761719 195.386719 112.234375 C 194.058594 112.984375 192.40625 112.851562 190.730469 112.460938 C 188.527344 111.949219 186.261719 110.796875 184.164062 109.472656 C 183.996094 109.191406 183.566406 108.960938 182.730469 108.53125 C 181.566406 107.738281 180.476562 106.921875 179.496094 106.175781 C 177.753906 104.804688 176.398438 103.734375 174.695312 102.484375 C 173.710938 101.800781 172.769531 101.011719 171.675781 100.507812 C 171.625 100.484375 171.578125 100.464844 171.523438 100.449219 C 172.472656 99.203125 173.402344 97.941406 174.367188 96.710938 C 174.992188 95.878906 176.398438 94.171875 177.339844 93.058594 C 178.714844 91.375 180.109375 89.707031 181.570312 88.097656 C 184.105469 85.21875 186.898438 82.585938 189.636719 79.902344 C 191.15625 78.453125 192.640625 76.964844 194.148438 75.5 C 195.855469 73.855469 197.585938 72.242188 199.28125 70.585938 C 201.441406 68.519531 203.4375 66.28125 205.113281 63.804688 C 207.804688 59.796875 209.851562 55.414062 212.027344 51.117188 C 213.265625 48.660156 214.488281 46.199219 215.71875 43.738281 C 216.574219 42.019531 217.53125 40.339844 218.226562 38.542969 C 218.6875 37.28125 219.109375 35.847656 218.640625 34.535156 C 219.394531 35.160156 220.136719 35.828125 220.878906 36.578125 C 221.484375 37.21875 221.902344 37.722656 222.277344 38.273438 C 222.613281 38.808594 222.875 39.382812 223.144531 39.949219 C 223.910156 41.503906 224.507812 43.417969 225.039062 45.355469 C 226.53125 50.746094 227.363281 56.839844 226.601562 62.046875 Z M 115.363281 150.503906 C 115.054688 148.847656 114.949219 147.714844 114.703125 146.011719 C 114.347656 143.503906 113.988281 141.023438 113.714844 138.8125 C 113.390625 135.957031 113.128906 133.054688 113.472656 130.191406 C 113.679688 128.632812 114.492188 125.875 115.273438 124.351562 C 115.949219 123.011719 116.753906 121.753906 117.652344 120.570312 C 117.765625 120.546875 117.828125 120.4375 117.898438 120.351562 C 118.027344 120.203125 118.152344 120.046875 118.277344 119.898438 C 118.792969 119.277344 119.300781 118.652344 119.8125 118.023438 C 121.804688 115.910156 124.054688 114.054688 126.292969 112.386719 C 129.570312 109.9375 132.949219 107.632812 136.273438 105.253906 C 138.828125 103.445312 141.367188 101.613281 143.851562 99.710938 C 146.46875 97.675781 149.023438 95.5625 151.535156 93.398438 C 153.953125 91.277344 156.351562 89.128906 158.59375 86.816406 C 161.570312 83.636719 164.46875 80.371094 166.964844 76.796875 C 167.894531 75.410156 168.785156 73.988281 169.484375 72.472656 C 170.121094 71.082031 170.824219 69.324219 169.855469 67.929688 C 169.484375 67.460938 169.21875 66.871094 168.441406 66.722656 C 166.726562 66.566406 164.511719 68.613281 163.324219 69.742188 C 158.972656 74.117188 155.15625 78.976562 151.296875 83.78125 C 147.652344 88.332031 143.703125 92.628906 139.601562 96.777344 C 136.789062 99.644531 133.917969 102.453125 131.003906 105.210938 C 127.925781 108.136719 124.859375 111.078125 122.089844 114.304688 C 121.707031 114.738281 121.308594 115.203125 120.910156 115.683594 C 120.082031 116.457031 119.289062 117.265625 118.542969 118.121094 C 118.011719 118.71875 117.5 119.335938 117.007812 119.972656 C 117.210938 118.714844 117.273438 117.441406 117.371094 116.171875 C 117.421875 114.835938 117.902344 113.539062 118.457031 112.363281 C 119.128906 111.132812 119.691406 110.402344 120.484375 109.449219 C 122.996094 106.441406 126.253906 104.175781 128.84375 101.246094 C 130.664062 99.210938 131.835938 97.523438 132.667969 94.914062 C 133.367188 92.679688 133.902344 90.402344 134.457031 88.128906 C 135.304688 84.636719 136.09375 81.128906 136.902344 77.625 C 137.949219 73.03125 138.996094 68.433594 140.335938 63.910156 C 142.234375 57.785156 144.257812 52.082031 146.988281 46.472656 C 149.132812 42.113281 151.730469 37.984375 154.597656 34.0625 C 155.820312 32.398438 157.050781 30.871094 158.574219 29.1875 C 160.234375 27.382812 162.003906 25.683594 163.824219 24.042969 C 166.5625 21.644531 169.015625 19.578125 171.882812 17.59375 C 175.082031 15.347656 178.3125 13.746094 181.855469 13.449219 C 183.78125 13.257812 185.730469 13.394531 187.640625 13.082031 C 189.722656 12.722656 191.703125 11.945312 193.78125 11.5625 C 195.671875 11.171875 197.816406 11.582031 200.03125 12.246094 C 202.828125 13.097656 205.019531 14.105469 207.648438 15.5 C 209.148438 16.289062 210.636719 17.089844 212.070312 17.992188 C 213.921875 19.136719 216.347656 20.925781 217.730469 21.984375 C 222.945312 26 227.71875 30.703125 229.296875 36.890625 C 229.742188 38.851562 230.164062 40.476562 230.195312 42.28125 C 230.242188 46.511719 229.175781 50.402344 228.316406 54.699219 C 228.085938 55.839844 227.925781 56.902344 227.761719 57.933594 C 227.777344 54.195312 227.179688 50.453125 226.300781 46.828125 C 225.617188 44.058594 224.933594 41.621094 223.722656 39.242188 C 223.300781 38.285156 222.695312 37.441406 222.007812 36.667969 C 221.96875 36.621094 221.933594 36.574219 221.894531 36.527344 C 221.289062 35.8125 220.652344 35.121094 220.035156 34.414062 C 217.703125 31.589844 215.214844 28.890625 212.558594 26.367188 C 210.371094 24.324219 207.960938 22.503906 205.324219 21.082031 C 204.1875 20.480469 203.070312 19.785156 201.816406 19.460938 C 200.925781 19.207031 199.824219 19.542969 200.382812 20.652344 C 200.882812 21.421875 201.609375 21.992188 202.273438 22.613281 C 203.417969 23.589844 204.625 24.5 205.859375 25.363281 C 208.535156 27.257812 211.238281 29.121094 213.921875 31.003906 C 214.882812 31.691406 215.796875 32.335938 216.683594 32.996094 C 216.695312 33.015625 216.714844 33.042969 216.75 33.082031 C 216.777344 33.117188 216.816406 33.164062 216.832031 33.191406 C 216.878906 33.25 216.921875 33.308594 216.96875 33.367188 C 217.113281 33.558594 217.257812 33.75 217.398438 33.945312 C 217.441406 34.007812 217.488281 34.070312 217.53125 34.132812 C 217.613281 34.25 217.695312 34.367188 217.753906 34.496094 C 217.757812 34.5 217.757812 34.507812 217.761719 34.511719 C 217.972656 35.089844 217.929688 35.113281 217.964844 35.664062 C 217.945312 36.328125 217.925781 36.480469 217.746094 37.191406 C 217.304688 38.714844 216.75 39.765625 215.992188 41.269531 C 215.175781 42.839844 214.390625 44.425781 213.601562 46.007812 C 212.230469 48.757812 210.84375 51.5 209.464844 54.25 C 208.355469 56.484375 207.207031 58.703125 205.929688 60.847656 C 204.53125 63.214844 203.238281 65.042969 201.507812 67.015625 C 199.417969 69.339844 197.097656 71.445312 194.847656 73.609375 C 192.234375 76.117188 189.652344 78.660156 187.054688 81.1875 C 183.882812 84.214844 180.875 87.40625 178.074219 90.78125 C 176.742188 92.425781 175.347656 94.019531 174.046875 95.6875 C 172.246094 97.988281 170.613281 100.257812 168.925781 102.324219 C 166.867188 104.785156 164.441406 106.90625 162.296875 109.289062 C 161.226562 110.53125 160.234375 111.851562 159.394531 113.257812 C 159.125 113.699219 158.878906 114.214844 158.703125 114.75 C 158.570312 114.953125 158.4375 115.15625 158.304688 115.359375 C 156.59375 118.074219 153.386719 119.742188 150.257812 120.824219 C 149.007812 121.257812 147.734375 121.640625 146.433594 121.910156 C 144.535156 122.269531 143.210938 122.394531 141.347656 122.652344 C 136.1875 123.390625 130.878906 124.324219 126.410156 127.15625 C 123.613281 128.90625 120.921875 131.148438 119.558594 134.21875 C 118.441406 136.722656 118.039062 139.453125 117.542969 142.128906 C 117.246094 143.992188 116.84375 145.832031 116.402344 147.664062 C 116.355469 147.835938 116.308594 148.011719 116.257812 148.183594 C 115.984375 149.171875 115.660156 150.152344 115.507812 151.164062 C 115.457031 150.945312 115.410156 150.726562 115.363281 150.503906 Z M 124.34375 112.777344 C 125.199219 111.855469 126.074219 110.945312 126.972656 110.0625 C 129.238281 107.839844 131.566406 105.679688 133.863281 103.484375 C 136.78125 100.679688 139.648438 97.820312 142.464844 94.914062 C 145.0625 92.195312 147.59375 89.417969 150 86.53125 C 152.871094 83.054688 155.601562 79.460938 158.527344 76.03125 C 160.035156 74.246094 161.609375 72.523438 163.214844 70.832031 C 164.550781 69.449219 166.03125 68.109375 167.503906 67.527344 C 168.320312 67.214844 168.648438 67.410156 168.902344 67.734375 C 169.167969 68.152344 169.28125 68.136719 169.484375 68.558594 C 170.601562 70.566406 166.847656 75.78125 165.109375 78.152344 C 162.433594 81.585938 158.863281 85.617188 155.425781 88.824219 C 149.105469 94.691406 142.714844 99.722656 135.726562 104.582031 C 132.484375 106.882812 129.203125 109.132812 126.011719 111.507812 C 125.453125 111.925781 124.894531 112.347656 124.34375 112.777344 Z M 201.054688 20.351562 C 201.027344 20.316406 201.007812 20.277344 200.988281 20.238281 C 200.980469 20.214844 200.976562 20.191406 200.96875 20.164062 L 200.980469 20.15625 C 201.007812 20.148438 201.035156 20.140625 201.0625 20.136719 C 201.367188 20.125 201.207031 20.121094 201.542969 20.179688 C 202.652344 20.46875 203.636719 21.09375 204.820312 21.730469 C 207.921875 23.445312 210.289062 25.3125 212.789062 27.757812 C 214.421875 29.363281 216.007812 31.015625 217.535156 32.722656 C 217.101562 32.394531 216.664062 32.074219 216.222656 31.75 C 212.511719 29.089844 208.71875 26.542969 205.011719 23.871094 C 203.851562 22.980469 202.953125 22.300781 201.824219 21.214844 C 201.710938 21.105469 201.597656 20.996094 201.488281 20.878906 C 201.433594 20.824219 201.382812 20.765625 201.332031 20.707031 C 201.265625 20.628906 201.199219 20.546875 201.132812 20.464844 C 201.25 20.632812 201.089844 20.410156 201.054688 20.351562 Z M 209.210938 288.652344 C 209.390625 288.027344 209.554688 287.394531 209.703125 286.761719 C 209.78125 286.488281 209.8125 286.324219 209.851562 286.1875 C 209.964844 286.53125 210 286.730469 210.015625 287 C 210.003906 287.039062 209.992188 287.078125 209.976562 287.121094 C 209.800781 287.566406 209.53125 288.09375 209.210938 288.652344 Z M 250.671875 287.144531 C 250.445312 287.832031 250.3125 288.546875 250.253906 289.265625 C 250.214844 289.6875 250.191406 290.113281 250.179688 290.535156 C 250.140625 291.054688 250.207031 291.011719 250.027344 291.464844 C 249.464844 292.472656 248.0625 294.058594 246.945312 295.34375 C 246.503906 295.855469 246.058594 296.359375 245.628906 296.878906 C 245.460938 297.085938 245.292969 297.292969 245.125 297.5 C 244.996094 297.625 244.859375 297.746094 244.71875 297.863281 C 244.222656 298.257812 243.289062 298.789062 242.5 299.121094 C 242.066406 299.28125 240.894531 299.644531 240.167969 299.78125 C 239.425781 299.964844 238.628906 300.015625 237.9375 300.355469 C 237.78125 300.453125 237.710938 300.707031 237.835938 300.855469 C 237.921875 300.960938 238.070312 301.019531 238.203125 301.035156 C 238.449219 301.070312 238.695312 301.09375 238.945312 301.070312 C 239.777344 300.976562 240.597656 300.789062 241.40625 300.582031 C 242.414062 300.316406 243.417969 299.960938 244.285156 299.375 C 244.171875 299.683594 244.074219 299.988281 244.015625 300.265625 C 243.753906 301.199219 243.671875 302.171875 243.566406 303.132812 C 243.472656 303.917969 243.476562 304.246094 243.148438 304.8125 C 242.382812 306.128906 240.925781 306.886719 239.554688 308.011719 C 238.894531 308.535156 238.347656 309.1875 237.882812 309.886719 C 237.421875 310.632812 237.03125 311.425781 236.492188 312.117188 C 236.511719 312.089844 236.527344 312.070312 236.535156 312.058594 C 236.511719 312.09375 236.449219 312.171875 236.414062 312.210938 C 235.988281 312.695312 235.511719 313.085938 235.207031 313.28125 C 234.335938 313.855469 233.386719 314.300781 232.464844 314.777344 C 231.828125 315.113281 231.175781 315.453125 230.65625 315.960938 C 230.167969 316.460938 229.988281 316.898438 229.65625 317.246094 C 229.023438 317.925781 228.53125 318.105469 227.582031 318.410156 C 226.039062 318.820312 224.617188 319.011719 223.296875 319.164062 C 222.070312 319.285156 220.84375 319.449219 219.609375 319.464844 C 219.554688 319.457031 219.503906 319.445312 219.453125 319.433594 C 218.90625 319.324219 218.363281 319.207031 217.839844 319.023438 C 216.753906 318.652344 216.152344 318.347656 215.039062 317.8125 C 212.765625 316.71875 210.539062 315.527344 208.296875 314.367188 C 206.195312 313.285156 204.0625 312.265625 201.945312 311.214844 C 199.613281 310.101562 197.371094 308.78125 194.945312 307.882812 C 194.34375 307.660156 193.835938 307.523438 193.316406 307.429688 C 194.164062 307.183594 195 306.894531 195.820312 306.570312 C 198.066406 305.683594 200.253906 304.597656 202.1875 303.144531 C 203.886719 301.90625 205.335938 300.351562 206.503906 298.605469 C 207.3125 297.4375 208.066406 296.226562 208.648438 294.929688 C 209.257812 293.585938 209.765625 292.203125 210.265625 290.816406 C 210.394531 290.464844 210.511719 290.113281 210.617188 289.753906 C 212.300781 291.003906 214.125 292.054688 215.957031 293.078125 C 217.363281 293.894531 218.777344 294.699219 220.175781 295.523438 C 220.292969 295.609375 220.410156 295.695312 220.523438 295.785156 C 221.667969 296.671875 223.292969 297.902344 224.402344 298.753906 C 225.449219 299.566406 226.441406 300.449219 227.535156 301.195312 C 227.953125 301.484375 228.386719 301.757812 228.835938 302 C 229.148438 302.152344 229.488281 302.347656 229.851562 302.308594 C 230.207031 302.277344 230.34375 301.878906 230.242188 301.574219 C 230.171875 301.367188 230.019531 301.203125 229.871094 301.046875 C 229.726562 300.914062 229.734375 300.894531 229.488281 300.675781 C 227.714844 299.125 225.578125 297.78125 223.359375 296.464844 C 222.195312 295.78125 221.035156 295.089844 219.867188 294.414062 C 220.003906 294.414062 220.136719 294.410156 220.269531 294.402344 C 220.878906 294.351562 221.492188 294.296875 222.089844 294.171875 C 222.734375 294.023438 223.359375 293.804688 223.976562 293.5625 C 225.261719 293.054688 226.527344 292.480469 227.707031 291.757812 C 228.992188 290.96875 230.328125 290.019531 231.507812 289.703125 C 233.179688 289.167969 235.203125 289.738281 237.199219 289.605469 C 238.511719 289.488281 239.816406 289.230469 241.046875 288.746094 C 242.117188 288.3125 243.195312 287.867188 244.1875 287.273438 C 245.378906 286.484375 245.996094 285.699219 247.277344 285.152344 C 247.507812 285.0625 247.742188 284.992188 247.980469 284.929688 C 248.539062 284.777344 248.691406 284.769531 249.359375 284.785156 C 249.738281 284.800781 250.0625 284.890625 250.425781 285.082031 C 250.660156 285.214844 250.558594 285.144531 250.753906 285.34375 C 250.90625 285.582031 250.855469 285.511719 250.925781 285.84375 C 250.988281 286.164062 250.878906 286.515625 250.671875 287.144531 Z M 224.761719 298.277344 C 225.933594 299.007812 227.089844 299.761719 228.222656 300.558594 C 228.683594 300.890625 229.101562 301.207031 229.46875 301.585938 C 228.964844 301.363281 227.96875 300.773438 227.257812 300.226562 C 226.582031 299.742188 225.800781 299.074219 224.976562 298.4375 C 224.90625 298.382812 224.832031 298.328125 224.761719 298.277344 Z M 224.761719 298.277344 " fill-opacity="1" fill-rule="nonzero"/></g><path fill="#000000" d="M 236.535156 312.058594 C 236.546875 312.042969 236.550781 312.039062 236.535156 312.058594 Z M 236.535156 312.058594 " fill-opacity="1" fill-rule="nonzero"/><path fill="#000000" d="M 216.757812 33.089844 C 216.757812 33.089844 216.753906 33.085938 216.753906 33.085938 C 216.714844 33.039062 216.691406 33.015625 216.757812 33.089844 Z M 216.757812 33.089844 " fill-opacity="1" fill-rule="nonzero"/><path fill="#000000" d="M 202.550781 115.1875 C 202.613281 115.199219 202.59375 115.191406 202.550781 115.1875 Z M 202.550781 115.1875 " fill-opacity="1" fill-rule="nonzero"/><path fill="#000000" d="M 256 254.515625 C 255.667969 251.273438 255.242188 248.023438 254.320312 244.890625 C 253.621094 242.464844 252.660156 240.125 251.683594 237.800781 C 250.550781 235.09375 249.296875 232.417969 247.667969 229.96875 C 245.855469 227.058594 243.730469 224.367188 241.5 221.769531 C 240.707031 220.839844 239.3125 219.496094 238.8125 218.839844 C 238.375 218.265625 238.367188 217.800781 238.417969 217.679688 C 238.453125 217.617188 238.5 217.550781 238.558594 217.476562 C 238.683594 217.382812 238.808594 217.289062 238.929688 217.191406 C 239.523438 216.75 240.070312 216.246094 240.476562 215.625 C 240.898438 215.046875 241.078125 214.34375 241.214844 213.65625 C 241.394531 212.820312 241.523438 211.976562 241.683594 211.136719 C 242.027344 209.210938 242.558594 207.328125 243.132812 205.464844 C 243.539062 204.089844 244.046875 202.753906 244.472656 201.386719 C 244.820312 200.15625 245.125 198.902344 245.261719 197.628906 C 245.621094 194.183594 244.078125 190.886719 242.203125 188.085938 C 241.378906 186.886719 240.679688 186.015625 239.496094 184.949219 C 238.566406 184.082031 237.394531 183.433594 236.121094 183.265625 C 234.75 183.105469 233.378906 183.398438 232.023438 183.597656 C 231.1875 183.753906 230.324219 183.859375 229.550781 184.242188 C 229.21875 184.40625 228.902344 184.601562 228.601562 184.820312 C 228.59375 184.816406 228.582031 184.808594 228.574219 184.804688 C 228.519531 183.90625 228.4375 183.007812 228.34375 182.113281 C 228.097656 179.949219 227.730469 177.796875 227.285156 175.664062 C 226.683594 172.890625 225.859375 170.128906 224.449219 167.648438 C 222.976562 165.183594 221.035156 163.0625 219.078125 160.972656 C 218.5625 159.625 218.738281 157.820312 218.882812 156.140625 C 219.316406 151.304688 219.902344 146.480469 220.207031 141.632812 C 220.449219 138 220.664062 134.359375 220.714844 130.714844 C 220.734375 126.996094 220.550781 123.273438 220.105469 119.578125 C 219.777344 116.859375 219.3125 114.15625 218.726562 111.480469 C 217.789062 107.257812 216.628906 103.082031 215.796875 98.835938 C 215.414062 96.824219 215.210938 95.640625 215.078125 93.769531 C 214.996094 92.304688 215.21875 91.152344 215.890625 89.941406 C 216.199219 89.445312 216.429688 89.257812 216.871094 88.722656 C 217.15625 88.378906 217.484375 88.070312 217.75 87.71875 C 217.800781 87.621094 217.75 87.492188 217.65625 87.4375 C 217.570312 87.386719 217.453125 87.402344 217.382812 87.472656 C 216.777344 88.136719 216.148438 88.785156 215.582031 89.476562 C 215.230469 89.964844 214.957031 90.507812 214.734375 91.066406 C 214.582031 91.398438 214.40625 92.277344 214.371094 92.910156 C 214.34375 93.550781 214.386719 94.195312 214.4375 94.832031 C 214.546875 96.199219 214.773438 97.550781 215.011719 98.902344 C 215.773438 102.953125 216.847656 106.941406 217.746094 110.964844 C 218.414062 114 218.945312 117.0625 219.261719 119.851562 C 219.84375 124.863281 219.957031 129.917969 219.703125 134.953125 C 219.46875 140.253906 219.125 145.542969 218.628906 150.824219 C 218.480469 152.730469 218.316406 154.636719 218.191406 156.546875 C 218.128906 157.714844 218.039062 158.925781 218.246094 160.085938 C 218.1875 160.023438 218.128906 159.960938 218.070312 159.898438 C 217.6875 159.40625 217.304688 158.914062 216.878906 158.460938 C 216.480469 158.042969 216.066406 157.644531 215.648438 157.246094 C 214.9375 156.453125 214.230469 155.664062 213.507812 154.886719 C 212.796875 154.144531 212.082031 153.40625 211.367188 152.667969 C 211.054688 152.28125 210.765625 151.898438 210.5 151.511719 C 209.757812 150.414062 209.265625 149.332031 208.847656 148.28125 C 207.960938 146.058594 207.644531 143.671875 207.296875 141.320312 C 206.863281 138.351562 206.527344 134.871094 206.265625 131.601562 C 205.9375 127.59375 205.570312 123.582031 204.882812 119.613281 C 204.585938 118.046875 204.28125 116.386719 203.339844 115.0625 C 202.929688 114.507812 202.214844 114.445312 201.792969 115.050781 C 201.445312 115.503906 201.351562 116.089844 201.277344 116.640625 C 201.167969 117.449219 201.191406 118.265625 201.199219 119.078125 C 201.203125 123.429688 201.90625 127.730469 202.1875 132.0625 C 202.378906 135.621094 202.183594 139.195312 201.894531 142.746094 C 199.933594 140.660156 197.972656 138.566406 195.992188 136.5 C 194.050781 134.472656 192.152344 132.402344 190.421875 130.191406 C 189.011719 128.414062 187.902344 127.007812 186.601562 125.042969 C 185.304688 123.050781 183.871094 121.128906 182.890625 118.953125 C 182.492188 118.140625 182.175781 116.652344 182.292969 116.070312 C 182.515625 114.917969 182.980469 113.824219 183.339844 112.710938 C 183.386719 112.5625 183.289062 112.386719 183.136719 112.347656 C 182.984375 112.304688 182.8125 112.402344 182.773438 112.554688 C 182.472656 113.460938 182.203125 114 181.914062 114.769531 C 181.800781 115.070312 181.507812 115.824219 181.480469 116.433594 C 181.4375 116.878906 181.511719 117.324219 181.601562 117.761719 C 181.765625 118.574219 182.101562 119.332031 182.46875 120.074219 C 183.03125 121.21875 183.722656 122.292969 184.425781 123.351562 C 185.609375 125.140625 186.777344 126.9375 188.09375 128.632812 C 189.449219 130.378906 190.8125 132.117188 192.273438 133.777344 C 194.445312 136.199219 196.71875 138.527344 198.949219 140.890625 C 203.125 145.335938 207.304688 149.78125 211.570312 154.140625 C 213.464844 156.0625 215.21875 158.121094 217.058594 160.097656 C 218.996094 162.175781 221.15625 164.4375 222.617188 166.460938 C 224.519531 169.074219 225.4375 171.730469 226.207031 174.933594 C 226.792969 177.4375 227.1875 179.824219 227.460938 182.117188 C 227.554688 182.90625 227.636719 183.695312 227.707031 184.488281 C 227.710938 184.53125 227.710938 184.574219 227.714844 184.613281 C 227.050781 184.503906 226.378906 184.421875 225.710938 184.324219 C 224.570312 184.183594 223.429688 184.042969 222.277344 184.035156 C 219.902344 183.953125 218.394531 184.394531 216.632812 186.035156 C 215.734375 186.875 214.859375 187.738281 213.910156 188.519531 C 213.097656 189.210938 212.464844 189.671875 211.761719 190.222656 C 211.636719 190.339844 210.996094 190.769531 210.722656 191.15625 C 210.421875 191.507812 210.238281 191.9375 210.050781 192.355469 C 209.496094 193.605469 208.808594 195.113281 208.410156 196.097656 C 208.222656 196.621094 207.871094 197.160156 208.015625 197.734375 C 208.308594 198.496094 209.257812 198.765625 209.996094 198.867188 C 210.726562 198.984375 211.464844 198.894531 212.191406 198.785156 C 213.160156 198.65625 214.117188 198.375 214.964844 197.882812 C 215.382812 197.640625 215.691406 197.261719 216.027344 196.917969 C 216.453125 196.46875 216.90625 196.039062 217.359375 195.613281 C 217.664062 195.324219 217.972656 195.039062 218.285156 194.757812 C 217.449219 195.773438 216.429688 196.664062 215.347656 197.640625 C 213.144531 199.628906 210.847656 201.511719 208.710938 203.566406 C 207.871094 204.351562 207.058594 205.160156 206.300781 206.023438 C 205.644531 206.761719 204.992188 207.554688 204.691406 208.511719 C 204.4375 209.5 204.679688 210.605469 205.304688 211.40625 C 206.527344 212.75 208.847656 211.0625 210.113281 210.460938 C 212.695312 209.128906 215.234375 207.710938 217.773438 206.296875 C 217.832031 206.265625 217.890625 206.230469 217.949219 206.199219 C 215.371094 208.730469 212.695312 210.9375 210.078125 212.957031 C 209.199219 213.632812 208.308594 214.296875 207.441406 214.992188 C 206.789062 215.515625 206.105469 216.066406 205.746094 216.84375 C 205.277344 217.679688 205.355469 218.703125 205.675781 219.578125 C 205.984375 220.355469 206.757812 220.867188 207.566406 220.996094 C 208.765625 221.214844 209.921875 220.816406 210.945312 220.210938 C 211.738281 219.746094 212.523438 219.265625 213.308594 218.785156 C 215.523438 217.441406 217.714844 216.058594 219.964844 214.773438 C 220.382812 214.535156 220.800781 214.296875 221.21875 214.058594 C 221.132812 214.132812 221.050781 214.203125 220.964844 214.277344 C 219.617188 215.421875 218.457031 216.421875 216.96875 217.652344 C 216.03125 218.464844 214.976562 219.164062 214.160156 220.101562 C 213.078125 221.273438 213.203125 223.25 214.332031 224.351562 C 215.449219 225.339844 217.195312 224.964844 218.492188 224.566406 C 220.160156 224 221.621094 222.988281 223 221.910156 C 224.1875 221 225.148438 220.234375 226.484375 219.277344 C 226.570312 219.210938 226.660156 219.148438 226.746094 219.085938 C 226.230469 219.554688 225.738281 220.054688 225.316406 220.613281 C 224.621094 221.585938 223.664062 223.296875 224.398438 224.4375 C 225.152344 225.472656 226.6875 225.515625 227.789062 225.066406 C 230.03125 224.246094 231.496094 222.738281 233.164062 221.363281 C 234.253906 220.472656 234.933594 219.914062 236.113281 219.125 C 236.628906 218.78125 237.152344 218.449219 237.667969 218.105469 C 237.714844 218.566406 237.960938 219.015625 238.21875 219.386719 C 239.027344 220.40625 239.980469 221.304688 240.828125 222.292969 C 243.023438 224.894531 244.804688 227.109375 246.621094 229.96875 C 248.332031 232.503906 249.675781 235.261719 250.851562 238.085938 C 251.496094 239.625 252.632812 242.363281 253.242188 244.378906 C 254.148438 247.234375 254.632812 250.226562 254.9375 252.882812 C 255.210938 255.140625 255.371094 257.414062 255.34375 259.6875 C 255.347656 261.628906 255.070312 264.417969 254.859375 265.886719 C 254.136719 271.421875 252.273438 277.046875 250.101562 281.796875 C 249.765625 282.515625 249.65625 282.820312 249.339844 283.492188 C 249.242188 283.726562 249.140625 283.957031 249.054688 284.195312 C 249.027344 284.285156 248.980469 284.371094 249.007812 284.464844 C 249.023438 284.746094 249.425781 284.886719 249.621094 284.671875 C 249.738281 284.496094 250.058594 283.761719 250.363281 283.125 C 252.175781 279.507812 253.59375 275.695312 254.605469 271.78125 C 256.015625 266.152344 256.582031 260.292969 256 254.515625 Z M 206.933594 148.054688 C 205.445312 146.507812 203.96875 144.945312 202.5 143.382812 C 202.886719 139.894531 203.132812 135.460938 202.886719 131.660156 C 202.5625 127.113281 201.808594 122.601562 201.835938 118.035156 C 201.824219 117.1875 201.917969 116.175781 202.078125 115.730469 C 202.265625 115.359375 202.273438 115.332031 202.488281 115.203125 C 202.519531 115.199219 202.535156 115.191406 202.539062 115.1875 C 202.542969 115.1875 202.546875 115.1875 202.550781 115.1875 C 202.546875 115.1875 202.542969 115.183594 202.535156 115.183594 C 202.535156 115.183594 202.53125 115.183594 202.527344 115.183594 C 202.527344 115.183594 202.527344 115.179688 202.527344 115.179688 C 202.597656 115.179688 202.808594 115.285156 202.65625 115.21875 C 202.890625 115.300781 203.171875 115.824219 203.40625 116.351562 C 203.839844 117.3125 204.210938 119.136719 204.402344 120.453125 C 205.269531 125.960938 205.523438 132.210938 206.1875 138.035156 C 206.410156 139.921875 206.671875 141.808594 206.980469 143.6875 C 207.152344 144.679688 207.34375 145.671875 207.601562 146.648438 C 207.902344 147.691406 208.296875 148.699219 208.753906 149.683594 C 208.839844 149.875 208.933594 150.0625 209.03125 150.25 C 208.332031 149.519531 207.628906 148.789062 206.933594 148.054688 Z M 235.847656 218.304688 C 234.058594 219.480469 232.441406 220.886719 230.824219 222.277344 C 230.183594 222.828125 229.734375 223.152344 228.914062 223.691406 C 228.179688 224.128906 227.269531 224.5 226.730469 224.582031 C 225.71875 224.675781 224.96875 224.316406 224.871094 223.628906 C 224.816406 222.9375 225.394531 221.664062 226.023438 220.898438 C 226.59375 220.175781 227.304688 219.578125 227.996094 218.972656 C 229.117188 218.027344 230.25 217.09375 231.332031 216.105469 C 232.800781 215.191406 234.253906 214.257812 235.621094 213.195312 C 236.105469 212.832031 236.554688 212.421875 236.984375 211.996094 C 237.246094 211.726562 237.554688 211.476562 237.714844 211.128906 C 237.960938 210.617188 237.523438 210.148438 237.003906 210.402344 C 236.421875 210.65625 235.9375 211.09375 235.429688 211.472656 C 234.71875 212.027344 234.027344 212.609375 233.363281 213.21875 C 232.671875 213.859375 231.988281 214.511719 231.292969 215.152344 C 231.171875 215.226562 231.050781 215.300781 230.929688 215.378906 C 228.691406 216.742188 226.492188 218.175781 224.417969 219.777344 C 222.457031 221.234375 221.042969 222.640625 218.765625 223.636719 C 217.75 224.074219 216.113281 224.4375 215.230469 224.058594 C 214.6875 223.804688 214.421875 223.367188 214.230469 222.75 C 213.917969 221.464844 214.484375 220.6875 215.792969 219.648438 C 217.554688 218.226562 219.3125 216.796875 221.023438 215.308594 C 222.222656 214.273438 223.394531 213.203125 224.605469 212.175781 C 225.96875 211.433594 227.332031 210.699219 228.695312 209.960938 C 229.90625 209.304688 231.085938 208.609375 232.257812 207.886719 C 232.714844 207.597656 233.179688 207.324219 233.617188 207.003906 C 233.988281 206.746094 234.535156 206.214844 234.019531 205.816406 C 233.40625 205.472656 231.980469 206.238281 231.355469 206.492188 C 229.710938 207.277344 228.234375 208.359375 226.777344 209.445312 C 226 210.03125 225.242188 210.636719 224.492188 211.257812 C 224.476562 211.265625 224.460938 211.273438 224.445312 211.28125 C 222.203125 212.496094 219.988281 213.769531 217.792969 215.070312 C 215.929688 216.207031 214.074219 217.355469 212.214844 218.5 C 210.820312 219.320312 209.609375 220.25 208.363281 220.242188 C 207.328125 220.304688 206.628906 219.84375 206.402344 219.234375 C 206.128906 218.289062 206.132812 217.824219 206.503906 217.132812 C 206.765625 216.570312 207.363281 216.089844 208.019531 215.5625 C 208.828125 214.914062 209.785156 214.207031 210.800781 213.425781 C 212.4375 212.183594 214.023438 210.875 215.566406 209.515625 C 216.976562 208.3125 218.257812 206.972656 219.582031 205.679688 C 219.933594 205.339844 220.296875 204.996094 220.664062 204.65625 C 221.335938 204.273438 222.007812 203.882812 222.679688 203.5 C 223.816406 202.847656 224.953125 202.1875 226.003906 201.402344 C 226.414062 201.058594 227.5 200.507812 227.253906 199.875 C 226.578125 198.664062 222.910156 201.640625 220.457031 203.839844 C 218.035156 205.207031 215.585938 206.527344 213.167969 207.902344 C 211.933594 208.585938 210.679688 209.238281 209.433594 209.902344 C 208.292969 210.523438 206.96875 211.25 206.335938 211.105469 C 206.253906 211.089844 206.175781 211.066406 206.101562 211.039062 C 206.0625 211.019531 206.023438 210.996094 205.988281 210.972656 C 205.796875 210.808594 205.84375 210.78125 205.640625 210.4375 C 205.367188 209.890625 205.316406 208.898438 205.597656 208.417969 C 206.070312 207.496094 206.429688 207.140625 207.117188 206.378906 C 207.792969 205.636719 208.503906 204.921875 209.238281 204.230469 C 211.855469 201.703125 214.707031 199.4375 217.34375 196.933594 C 218.375 195.957031 219.332031 194.875 220.015625 193.621094 C 220.152344 193.378906 220.28125 193.140625 220.402344 192.898438 C 221.4375 192.003906 222.460938 191.101562 223.421875 190.125 C 223.863281 189.628906 225.34375 188.339844 224.484375 187.75 C 223.628906 187.34375 222.171875 188.621094 221.644531 189.246094 C 220.890625 190.21875 220.347656 191.328125 219.773438 192.417969 C 219.144531 192.953125 218.515625 193.484375 217.902344 194.035156 C 217.195312 194.664062 216.488281 195.300781 215.808594 195.964844 C 215.410156 196.339844 215.070312 196.777344 214.648438 197.125 C 213.714844 197.730469 211.746094 198.25 210.164062 198.113281 C 209.476562 198.058594 208.589844 197.667969 208.742188 197.359375 C 209.097656 196.273438 209.425781 195.574219 209.824219 194.648438 C 210.222656 193.773438 210.574219 192.878906 211 192.015625 C 211.378906 191.296875 211.921875 190.992188 212.683594 190.429688 C 213.507812 189.824219 214.332031 189.222656 215.101562 188.546875 C 217.183594 186.71875 218.417969 185.023438 220.824219 184.886719 C 222.523438 184.78125 224.226562 184.929688 225.914062 185.132812 C 226.496094 185.210938 227.113281 185.296875 227.777344 185.398438 C 227.78125 185.449219 227.785156 185.5 227.8125 185.550781 C 227.8125 185.550781 227.816406 185.554688 227.816406 185.554688 C 227.609375 185.808594 227.421875 186.078125 227.230469 186.34375 C 226.9375 186.8125 226.535156 187.238281 226.371094 187.773438 C 226.214844 188.386719 226.789062 188.714844 227.285156 188.398438 C 227.625 188.199219 227.792969 187.835938 227.941406 187.492188 C 227.996094 187.359375 228.285156 186.703125 228.515625 186.351562 C 229.105469 185.402344 229.59375 185.050781 230.789062 184.773438 C 231.488281 184.589844 232.207031 184.464844 232.894531 184.261719 C 232.949219 184.253906 233.003906 184.246094 233.050781 184.242188 C 234.714844 184.011719 236.265625 183.78125 237.804688 184.730469 C 238.410156 185.074219 238.546875 185.261719 239.125 185.765625 C 240.511719 187.101562 241.3125 188.222656 242.28125 189.847656 C 243.304688 191.613281 243.953125 193.035156 244.332031 195.109375 C 244.640625 196.867188 244.28125 198.875 243.699219 200.9375 C 243.285156 202.339844 242.75 203.707031 242.335938 205.113281 C 241.832031 206.765625 241.339844 208.429688 241.003906 210.128906 C 240.71875 211.492188 240.4375 213.695312 240.085938 214.621094 C 240.082031 214.621094 240.082031 214.621094 240.082031 214.625 C 239.722656 215.222656 239.367188 215.664062 238.929688 216.128906 C 238.769531 216.277344 238.625 216.394531 238.515625 216.472656 C 237.671875 217.144531 236.75 217.714844 235.847656 218.304688 Z M 234.976562 212.75 C 235.375 212.40625 235.765625 212.089844 236.140625 211.804688 C 235.773438 212.132812 235.382812 212.445312 234.976562 212.75 Z M 232.664062 206.707031 C 232.699219 206.695312 232.734375 206.683594 232.769531 206.671875 C 232.738281 206.695312 232.707031 206.714844 232.671875 206.738281 C 232.195312 207.035156 231.710938 207.324219 231.226562 207.609375 C 230.265625 208.183594 229.28125 208.722656 228.292969 209.25 C 229.527344 208.34375 230.828125 207.503906 232.324219 206.84375 C 232.121094 206.921875 232.574219 206.742188 232.664062 206.707031 Z M 223.792969 201.964844 C 223.984375 201.8125 224.179688 201.664062 224.367188 201.523438 C 224.859375 201.148438 225.578125 200.707031 226.109375 200.460938 C 225.367188 201.011719 224.585938 201.5 223.792969 201.964844 Z M 221.359375 191.054688 C 221.859375 190.148438 222.40625 189.355469 223.199219 188.789062 C 223.277344 188.734375 223.476562 188.597656 223.539062 188.5625 C 223.757812 188.445312 223.777344 188.425781 223.871094 188.398438 C 223.925781 188.378906 223.980469 188.363281 224.035156 188.351562 C 223.988281 188.480469 223.949219 188.503906 223.777344 188.707031 C 223.269531 189.292969 222.703125 189.816406 222.140625 190.347656 C 221.882812 190.585938 221.625 190.820312 221.359375 191.054688 Z M 221.359375 191.054688 " fill-opacity="1" fill-rule="nonzero"/><g clip-path="url(#b729b9db1c)"><path fill="#000000" d="M 124.964844 237.089844 C 124.921875 236.96875 124.773438 236.902344 124.652344 236.9375 C 124.539062 236.964844 124.457031 237.078125 124.457031 237.191406 C 124.371094 241.515625 123.25 245.632812 122.253906 249.96875 C 121.101562 254.792969 120.0625 259.640625 119.191406 264.523438 C 117.527344 273.648438 116.128906 282.816406 114.8125 291.996094 C 113.699219 299.390625 112.804688 306.367188 112.039062 313.894531 C 111.242188 320.976562 110.652344 328.078125 110.175781 335.183594 C 110.070312 336.761719 109.957031 338.339844 109.835938 339.917969 C 109.804688 340.347656 109.769531 340.777344 109.734375 341.207031 C 100.921875 341.050781 92.109375 341.164062 83.296875 341.269531 C 77.476562 341.332031 71.65625 341.265625 65.835938 341.238281 C 65.214844 341.242188 64.59375 341.25 63.96875 341.253906 C 63.742188 341.253906 63.457031 341.210938 63.441406 341.511719 C 63.460938 341.894531 63.992188 341.738281 64.25 341.785156 C 64.957031 341.808594 65.667969 341.828125 66.375 341.839844 C 74.675781 341.929688 82.976562 341.921875 91.277344 341.800781 C 95.996094 341.734375 100.714844 341.742188 105.4375 341.746094 C 106.851562 341.75 108.265625 341.734375 109.679688 341.765625 C 109.683594 341.765625 109.6875 341.765625 109.691406 341.765625 C 109.691406 341.769531 109.6875 341.769531 109.6875 341.773438 C 109.835938 341.773438 109.984375 341.777344 110.128906 341.773438 C 110.195312 341.773438 110.257812 341.769531 110.316406 341.761719 C 110.367188 341.117188 110.417969 340.476562 110.46875 339.835938 C 110.597656 338.09375 110.753906 336.355469 110.902344 334.613281 C 111.277344 330.035156 111.632812 325.453125 112.09375 320.882812 C 112.710938 315.101562 113.320312 309.316406 114.023438 303.542969 C 114.542969 299.425781 115.101562 295.511719 115.71875 291.226562 C 116.277344 287.289062 116.828125 283.355469 117.449219 279.425781 C 118.714844 271.488281 120.011719 263.546875 121.695312 255.683594 C 122.503906 251.878906 123.449219 248.105469 124.222656 244.292969 C 124.652344 242.175781 124.925781 240.027344 124.988281 237.867188 C 124.980469 237.609375 125.027344 237.339844 124.964844 237.089844 Z M 124.964844 237.089844 " fill-opacity="1" fill-rule="nonzero"/></g><g clip-path="url(#2a2a9037f6)"><path fill="#000000" d="M 295.8125 341.246094 C 295.640625 341.183594 295.441406 341.238281 295.257812 341.226562 C 294.777344 341.234375 294.296875 341.238281 293.8125 341.238281 C 290.480469 341.203125 287.148438 341.25 283.816406 341.277344 C 278.601562 341.308594 273.390625 341.296875 268.175781 341.207031 C 265.316406 341.164062 262.453125 341.152344 259.59375 341.171875 C 258.589844 341.171875 257.589844 341.183594 256.589844 341.175781 C 256.488281 341.152344 256.386719 341.132812 256.285156 341.105469 C 255.902344 341.011719 255.917969 341.011719 255.644531 340.875 C 255.273438 340.671875 255.257812 340.640625 254.9375 340.3125 C 254.902344 340.273438 254.875 340.242188 254.851562 340.214844 C 254.707031 339.863281 254.59375 339.382812 254.519531 338.886719 C 254.265625 337.519531 254.175781 336.507812 253.984375 335.011719 C 253.695312 332.804688 253.449219 330.589844 253.257812 328.371094 C 252.996094 325.566406 252.707031 322.761719 252.578125 319.941406 C 252.421875 317.003906 252.472656 314.058594 252.429688 311.121094 C 252.378906 308.855469 252.292969 306.59375 252.265625 304.332031 C 252.222656 301.871094 252.238281 299.414062 252.183594 296.953125 C 252.140625 295.566406 252.082031 294.175781 251.84375 292.804688 C 251.691406 291.957031 251.382812 291.15625 251.140625 290.332031 C 250.925781 289.613281 250.96875 288.894531 251.117188 288.171875 C 251.1875 287.816406 251.28125 287.460938 251.390625 287.113281 C 251.429688 286.96875 251.527344 286.824219 251.441406 286.683594 C 251.335938 286.496094 251.019531 286.523438 250.96875 286.742188 C 250.6875 287.574219 250.449219 288.4375 250.390625 289.316406 C 250.371094 289.917969 250.480469 290.515625 250.671875 291.082031 C 251.375 293.082031 251.40625 294.847656 251.460938 297.023438 C 251.496094 299.515625 251.464844 302.007812 251.492188 304.5 C 251.503906 307.089844 251.597656 309.679688 251.613281 312.269531 C 251.605469 315.230469 251.589844 318.1875 251.773438 321.144531 C 252.011719 324.839844 252.378906 328.53125 252.765625 332.214844 C 253.101562 334.691406 253.285156 337.199219 253.863281 339.636719 C 253.914062 339.828125 253.972656 340.023438 254.042969 340.214844 C 254.070312 340.324219 254.113281 340.429688 254.160156 340.53125 C 254.191406 340.628906 254.226562 340.726562 254.265625 340.820312 C 254.464844 341.191406 254.777344 341.539062 255.179688 341.683594 C 255.421875 341.765625 255.675781 341.738281 255.921875 341.738281 C 256.109375 341.734375 256.296875 341.734375 256.484375 341.730469 C 258.78125 341.785156 261.078125 341.734375 263.371094 341.773438 C 266.84375 341.789062 270.316406 341.894531 273.792969 341.917969 C 278.996094 341.945312 284.195312 341.957031 289.398438 341.855469 C 290.882812 341.816406 292.367188 341.71875 293.851562 341.667969 C 294.398438 341.640625 294.945312 341.628906 295.492188 341.609375 C 295.613281 341.597656 295.75 341.636719 295.847656 341.546875 C 295.9375 341.464844 295.917969 341.304688 295.8125 341.246094 Z M 295.8125 341.246094 " fill-opacity="1" fill-rule="nonzero"/></g></svg>