<svg xmlns="http://www.w3.org/2000/svg" xmlns:xlink="http://www.w3.org/1999/xlink" width="500" zoomAndPan="magnify" viewBox="0 0 375 374.999991" height="500" preserveAspectRatio="xMidYMid meet" version="1.0"><defs><clipPath id="a84944bba1"><path d="M 33 69.265625 L 341.832031 69.265625 L 341.832031 304.765625 L 33 304.765625 Z M 33 69.265625 " clip-rule="nonzero"/></clipPath></defs><g clip-path="url(#a84944bba1)"><path fill="#000000" d="M 271.09375 69.972656 C 270.613281 70.210938 269.839844 70.75 269.332031 71.167969 C 268.851562 71.585938 268.316406 71.914062 268.136719 71.914062 C 267.449219 71.914062 263.566406 74.78125 260.9375 77.226562 C 259.414062 78.660156 256.15625 81.496094 253.738281 83.558594 C 249.257812 87.320312 245.761719 90.992188 245.015625 92.722656 C 244.804688 93.230469 244.476562 94.574219 244.296875 95.710938 C 243.820312 98.667969 244.265625 100.816406 246.058594 104.519531 C 247.105469 106.699219 247.792969 108.667969 248.417969 111.355469 C 249.136719 114.402344 249.464844 115.355469 250.242188 116.34375 L 251.199219 117.507812 L 250.71875 120.105469 C 250.449219 121.507812 250.003906 123.386719 249.675781 124.226562 L 249.136719 125.808594 L 248.660156 124.703125 C 248.390625 124.074219 248.179688 123.449219 248.179688 123.269531 C 248.179688 123.121094 247.492188 121.628906 246.6875 120.015625 C 244.925781 116.519531 243.25 114.847656 239.816406 113.117188 C 235.632812 111.027344 234.886719 110.878906 229.0625 110.878906 C 224.433594 110.878906 223.59375 110.96875 221.59375 111.566406 C 216.128906 113.265625 211.527344 116.582031 209.972656 119.894531 C 209.585938 120.730469 209.019531 121.476562 208.71875 121.566406 C 207.136719 121.984375 207.164062 127.71875 208.808594 133.242188 L 209.40625 135.300781 L 208.75 137.542969 C 207.644531 141.214844 208.03125 142.976562 210.808594 146.855469 C 211.558594 147.933594 212.214844 149.1875 212.273438 149.695312 C 212.332031 150.171875 212.992188 152.203125 213.738281 154.171875 C 214.453125 156.144531 215.410156 159.21875 215.800781 161.039062 C 216.753906 165.128906 217.410156 167.128906 219.085938 170.804688 C 220.011719 172.804688 220.699219 174.921875 221.265625 177.671875 C 222.101562 181.460938 223.085938 184.476562 223.746094 185.3125 C 223.925781 185.523438 224.101562 185.972656 224.164062 186.359375 C 224.191406 186.71875 224.402344 187.492188 224.550781 188.0625 C 224.730469 188.628906 224.878906 190.539062 224.878906 192.332031 C 224.878906 196.121094 225.507812 199.46875 226.640625 201.855469 C 227.089844 202.8125 227.417969 203.585938 227.390625 203.585938 C 227.328125 203.585938 226.132812 202.542969 224.671875 201.289062 C 220.816406 197.914062 213.765625 192.359375 210.480469 190.0625 C 206.777344 187.464844 203.671875 185.941406 199.847656 184.804688 C 188.882812 181.550781 184.3125 183.253906 167.824219 196.71875 C 165.285156 198.78125 162.117188 201.289062 160.804688 202.273438 C 157.488281 204.722656 152.441406 208.722656 141.984375 217.113281 C 126.691406 229.472656 122.269531 232.789062 115.160156 237.417969 C 108.945312 241.417969 106.285156 242.820312 101.359375 244.613281 C 99.386719 245.359375 96.699219 246.34375 95.382812 246.851562 C 94.070312 247.359375 91.976562 247.984375 90.753906 248.226562 C 89.527344 248.492188 87.226562 249.121094 85.675781 249.597656 C 81.761719 250.851562 77.460938 251.75 67.035156 253.480469 C 54.578125 255.539062 50.542969 256.792969 45.796875 260.167969 C 44.003906 261.421875 41.046875 264.738281 39.671875 267.003906 C 39.105469 267.960938 38.476562 268.378906 36.175781 269.453125 C 34.652344 270.171875 33.308594 270.945312 33.21875 271.214844 C 32.832031 272.171875 33.726562 273.457031 35.308594 274.261719 C 40.386719 276.828125 42.539062 277.128906 56.699219 277.15625 L 67.902344 277.1875 L 73.128906 278.5 C 77.640625 279.636719 78.804688 279.816406 81.640625 279.84375 C 86.960938 279.90625 89.945312 279.308594 94.605469 277.277344 C 98.9375 275.425781 103.6875 272.976562 110.46875 269.125 C 118.921875 264.320312 125.734375 261.273438 138.996094 256.285156 C 153.515625 250.824219 165.554688 245.597656 172.125 241.894531 C 178.191406 238.460938 182.492188 234.820312 188.4375 228.128906 L 190.617188 225.652344 L 191.632812 226.636719 C 193.722656 228.636719 196.441406 233.238281 201.132812 242.550781 C 208.03125 256.257812 210.511719 260.914062 214.246094 267.335938 C 218.25 274.230469 219.292969 275.933594 220.609375 277.546875 C 221.175781 278.261719 221.59375 278.828125 221.535156 278.828125 C 221.476562 278.828125 220.578125 278.5625 219.5625 278.234375 C 217.292969 277.515625 215.828125 277.484375 212.363281 278.082031 C 203.550781 279.546875 200.472656 280.113281 200.027344 280.382812 C 199.28125 280.742188 199.367188 281.667969 200.175781 282.171875 C 201.699219 283.160156 205.523438 284.472656 208.539062 285.039062 C 210.808594 285.488281 212.632812 286.085938 214.78125 287.039062 C 216.484375 287.847656 219.5625 288.890625 221.863281 289.488281 C 224.851562 290.265625 226.972656 291.042969 229.808594 292.414062 C 231.960938 293.460938 235.1875 294.773438 236.976562 295.339844 C 238.800781 295.910156 241.398438 296.804688 242.773438 297.3125 C 244.386719 297.910156 246.089844 298.328125 247.554688 298.417969 C 250.242188 298.625 254.601562 299.730469 256.902344 300.773438 C 258.039062 301.28125 259.832031 301.699219 262.847656 302.089844 C 265.207031 302.417969 269.089844 303.074219 271.449219 303.582031 C 275.960938 304.539062 277.902344 304.6875 280.144531 304.179688 C 280.890625 304.03125 284.65625 303.703125 288.507812 303.460938 C 293.734375 303.132812 296.066406 302.867188 297.621094 302.417969 C 298.785156 302.089844 301.652344 301.609375 304.042969 301.371094 C 312.824219 300.507812 312.496094 300.597656 315.242188 298.535156 C 316.082031 297.910156 317.753906 296.863281 318.976562 296.175781 C 321.546875 294.742188 323.816406 292.652344 324.714844 290.953125 C 325.492188 289.429688 327.402344 284.503906 330.6875 275.546875 C 335.316406 262.855469 337.976562 252.585938 339.441406 241.507812 C 339.859375 238.3125 340.574219 233.742188 341.023438 231.355469 C 341.769531 227.265625 341.832031 226.546875 341.832031 218.070312 C 341.832031 212.394531 341.679688 208.066406 341.441406 206.273438 C 340.84375 202.003906 336.125 178.925781 334.929688 174.476562 C 334.363281 172.324219 333.285156 168.652344 332.539062 166.265625 C 328.957031 154.769531 327.34375 151.992188 321.160156 146.527344 C 315.273438 141.332031 314.527344 140.558594 313.183594 138.378906 C 311.957031 136.347656 311.839844 136.257812 310.851562 136.316406 C 309.808594 136.375 309.808594 136.375 308.433594 133.480469 C 306.941406 130.375 306.222656 128.015625 305.925781 125.328125 C 305.746094 123.449219 305.984375 122.792969 307.65625 120.941406 L 308.761719 119.746094 L 311.179688 120.582031 C 312.945312 121.207031 314.019531 121.777344 315.003906 122.671875 L 316.347656 123.957031 L 318.351562 123.804688 C 321.964844 123.539062 324.503906 121.597656 326.65625 117.445312 C 328.238281 114.371094 328.386719 113.476562 327.820312 110.550781 C 326.835938 105.832031 324.804688 103.027344 321.425781 101.769531 C 318.621094 100.726562 316.976562 100.457031 315.511719 100.875 C 314.289062 101.234375 314.167969 101.203125 313.601562 100.546875 C 312.554688 99.292969 310.40625 94.816406 309.71875 92.515625 C 308.761719 89.289062 306.789062 85.589844 304.398438 82.511719 C 298.992188 75.496094 292.808594 72.0625 284.148438 71.316406 C 282.292969 71.136719 279.398438 70.6875 277.695312 70.269531 C 274.167969 69.433594 272.289062 69.34375 271.09375 69.972656 Z M 277.425781 71.464844 C 279.21875 71.855469 282.117188 72.332031 283.90625 72.511719 C 287.703125 72.839844 290.332031 73.464844 292.898438 74.601562 C 299.917969 77.765625 305.925781 84.753906 308.550781 92.875 C 309.480469 95.738281 310.644531 98.1875 312.078125 100.277344 C 312.914062 101.503906 312.945312 101.621094 312.4375 101.832031 C 311.511719 102.160156 310.914062 103.324219 310.914062 104.757812 C 310.914062 105.742188 310.703125 106.398438 310.164062 107.144531 C 309.328125 108.28125 309.210938 109.144531 309.808594 109.980469 C 310.40625 110.757812 310.941406 110.28125 310.703125 109.207031 C 310.582031 108.519531 310.703125 108.132812 311.210938 107.59375 C 311.71875 107.054688 311.957031 106.371094 312.078125 105.027344 L 312.257812 103.175781 L 314.496094 102.457031 C 316.5 101.832031 316.917969 101.800781 318.378906 102.101562 C 323.519531 103.175781 325.699219 105.652344 326.746094 111.535156 L 327.132812 113.683594 L 325.9375 116.191406 C 325.25 117.597656 324.234375 119.269531 323.609375 119.925781 C 322.144531 121.566406 319.875 122.671875 318.023438 122.671875 C 316.738281 122.671875 316.410156 122.523438 315.304688 121.476562 C 314.378906 120.582031 313.480469 120.074219 311.988281 119.625 C 310.851562 119.296875 309.71875 118.761719 309.480469 118.460938 C 308.761719 117.625 307.625 117.714844 307.625 118.609375 C 307.625 119 307.238281 119.714844 306.789062 120.164062 C 306.3125 120.640625 305.417969 121.804688 304.820312 122.730469 C 303.472656 124.792969 302.160156 125.957031 301.203125 125.957031 C 300.785156 125.957031 300.070312 125.539062 299.53125 125.03125 C 298.84375 124.34375 298.425781 124.164062 297.949219 124.3125 C 297.023438 124.613281 292.988281 124.882812 292.988281 124.644531 C 292.988281 124.523438 293.199219 123.957031 293.4375 123.359375 C 294.75 120.222656 293.289062 118.820312 289.164062 119.238281 C 284.746094 119.714844 281.457031 119.207031 279.070312 117.65625 C 276.050781 115.683594 272.707031 113.175781 271.300781 111.773438 C 269.480469 109.953125 267.148438 106.398438 266.703125 104.785156 C 266.3125 103.382812 264.9375 101.890625 263.804688 101.652344 C 263.324219 101.5625 262.191406 101.351562 261.265625 101.175781 C 259.351562 100.785156 257.351562 99.503906 256.605469 98.160156 C 255.5 96.15625 255.648438 96.21875 253.320312 96.785156 C 252.183594 97.054688 250.601562 97.292969 249.824219 97.292969 C 249.078125 97.292969 248.210938 97.414062 247.910156 97.589844 C 247.015625 98.070312 246.597656 99.53125 246.777344 101.472656 C 246.894531 102.457031 246.894531 103.265625 246.804688 103.265625 C 246.507812 103.265625 245.730469 101.085938 245.460938 99.441406 C 245.164062 97.5 245.523438 94.515625 246.238281 92.964844 C 247.046875 91.320312 250.390625 87.917969 255.261719 83.828125 C 257.679688 81.796875 260.667969 79.167969 261.921875 78.003906 C 264.757812 75.316406 266.105469 74.300781 268.34375 73.109375 C 269.332031 72.601562 270.40625 71.914062 270.734375 71.613281 C 271.988281 70.511719 273.183594 70.480469 277.425781 71.464844 Z M 255.5 98.667969 C 256.035156 99.679688 257.5 101.023438 258.84375 101.742188 C 259.203125 101.921875 260.546875 102.277344 261.800781 102.519531 C 264.460938 103.027344 265 103.414062 265.625 105.234375 C 266.253906 107.054688 268.492188 110.578125 270.046875 112.191406 C 271.691406 113.894531 278.140625 118.699219 279.695312 119.417969 C 281.9375 120.402344 285.550781 120.96875 287.492188 120.613281 C 289.761719 120.195312 291.882812 120.195312 292.332031 120.640625 C 292.898438 121.207031 292.75 122.105469 291.703125 124.164062 C 290.507812 126.554688 289.613281 127.152344 288.058594 126.582031 C 286.835938 126.136719 286.445312 126.34375 286.925781 127.121094 C 287.164062 127.507812 287.132812 128.078125 286.804688 129.421875 C 286 132.703125 283.757812 139.542969 283.160156 140.496094 C 281.996094 142.347656 277.785156 143.871094 272.078125 144.46875 C 270.347656 144.648438 268.046875 145.066406 266.96875 145.394531 C 264.582031 146.082031 263.65625 146.109375 262.519531 145.511719 C 261.445312 144.945312 261.054688 144.289062 260.519531 141.960938 C 260.308594 140.976562 259.800781 139.75 259.414062 139.242188 C 259.023438 138.765625 258.605469 137.898438 258.488281 137.332031 C 258.335938 136.644531 257.980469 136.167969 257.261719 135.75 C 256.515625 135.300781 256.214844 134.882812 256.066406 134.078125 C 255.738281 132.257812 255.109375 131.359375 253.855469 130.851562 C 252.988281 130.496094 252.660156 130.167969 252.511719 129.539062 C 252.390625 129.0625 251.824219 128.253906 251.257812 127.71875 L 250.183594 126.792969 L 250.808594 124.792969 C 251.167969 123.71875 251.675781 121.628906 251.914062 120.195312 C 252.390625 117.355469 252.332031 117.058594 250.867188 115.207031 C 250.539062 114.789062 250.0625 113.503906 249.824219 112.371094 C 249.585938 111.207031 249.105469 109.265625 248.777344 108.042969 C 248.0625 105.445312 247.703125 99.949219 248.179688 99.085938 C 248.417969 98.605469 248.835938 98.488281 250.0625 98.457031 C 250.929688 98.457031 252.214844 98.277344 252.960938 98.070312 C 254.902344 97.5 254.871094 97.5 255.5 98.667969 Z M 234.199219 112.25 C 236.320312 112.699219 240.445312 114.640625 242.386719 116.101562 C 244.058594 117.355469 245.433594 119.535156 246.867188 123.269531 C 248.0625 126.402344 248.539062 127.152344 249.882812 128.078125 C 250.601562 128.582031 251.226562 129.269531 251.316406 129.628906 C 251.4375 130.046875 251.136719 131.269531 250.570312 132.675781 L 249.644531 135.0625 L 250.152344 136.945312 C 250.660156 138.765625 250.660156 138.824219 249.941406 140.945312 C 249.34375 142.738281 249.015625 143.246094 247.820312 144.199219 C 246.207031 145.484375 244.625 145.84375 242.832031 145.394531 C 242.175781 145.214844 241.101562 144.945312 240.472656 144.765625 L 239.308594 144.46875 L 239.097656 141.125 C 238.890625 137.511719 238.441406 136.136719 237.15625 135.242188 C 235.335938 133.988281 233.691406 134.285156 232.675781 136.109375 C 232.019531 137.300781 231.453125 140.078125 230.824219 145.273438 C 230.617188 146.976562 230.40625 148.351562 230.316406 148.351562 C 230.226562 148.351562 229.332031 147.515625 228.34375 146.46875 C 227.328125 145.453125 224.730469 142.914062 222.519531 140.886719 C 218.1875 136.824219 215.800781 133.988281 212.929688 129.421875 C 210.75 125.957031 209.972656 124.3125 209.945312 123.238281 C 209.945312 121.894531 211.675781 118.910156 213.378906 117.355469 C 215.800781 115.148438 220.308594 112.96875 224.015625 112.25 C 225.957031 111.863281 232.378906 111.863281 234.199219 112.25 Z M 212.125 130.433594 C 214.695312 134.527344 218.007812 138.378906 222.96875 142.976562 C 225.65625 145.484375 228.464844 148.199219 229.210938 149.007812 C 229.957031 149.8125 230.734375 150.441406 230.945312 150.351562 C 231.273438 150.261719 231.691406 147.960938 232.617188 141.035156 C 232.824219 139.542969 233.246094 137.78125 233.542969 137.0625 C 234.019531 135.988281 234.230469 135.808594 235.007812 135.808594 C 235.515625 135.808594 236.261719 136.109375 236.710938 136.496094 C 237.84375 137.480469 237.933594 138.675781 237.84375 151.335938 L 237.785156 161.964844 L 236.679688 165.367188 C 235.335938 169.519531 235.066406 172.175781 235.753906 174.921875 C 236.292969 177.164062 241.128906 187.015625 243.582031 190.925781 C 246.714844 195.945312 251.199219 201.585938 255.617188 206.035156 C 257.980469 208.484375 260.128906 210.453125 260.339844 210.453125 C 260.609375 210.453125 260.726562 210.960938 260.726562 212.246094 C 260.726562 213.46875 261.085938 215.261719 261.890625 217.859375 C 263.296875 222.578125 263.625 223.203125 265.476562 224.816406 C 266.28125 225.53125 267.539062 227.085938 268.285156 228.25 C 270.554688 231.832031 272.707031 232.847656 278.710938 233.117188 L 282.5625 233.296875 L 278.710938 237.476562 C 272.4375 244.285156 268.433594 247.390625 265.445312 247.6875 C 263.175781 247.925781 261.445312 247.269531 259.082031 245.359375 C 253.347656 240.699219 246.6875 230.667969 241.9375 219.472656 C 240.921875 217.144531 239.160156 213.203125 237.992188 210.722656 C 236.859375 208.246094 235.367188 204.902344 234.738281 203.257812 C 233.453125 200.09375 229.570312 192.09375 228.914062 191.34375 C 227.925781 190.210938 224.433594 184.179688 223.835938 182.539062 C 223.445312 181.523438 222.789062 179.042969 222.339844 176.984375 C 221.804688 174.417969 221.144531 172.355469 220.191406 170.296875 C 218.367188 166.324219 218.128906 165.578125 217.082031 161.097656 C 216.605469 158.980469 215.679688 155.933594 215.023438 154.292969 C 213.738281 151.097656 213.617188 150.707031 214.1875 151.277344 C 214.695312 151.785156 215.023438 151.722656 215.023438 151.066406 C 215.023438 150.738281 213.945312 149.066406 212.664062 147.335938 C 209.792969 143.511719 209.195312 142.140625 209.4375 139.722656 C 209.527344 138.734375 209.703125 137.71875 209.882812 137.421875 C 210.125 136.972656 210.273438 137.0625 210.839844 138.226562 C 211.707031 139.929688 213.46875 142.496094 214.8125 144.019531 C 215.648438 144.945312 215.949219 145.125 216.246094 144.855469 C 216.515625 144.585938 216.21875 143.960938 214.753906 142.019531 C 211.199219 137.273438 209.167969 132.046875 208.839844 126.851562 L 208.6875 124.3125 L 209.703125 126.253906 C 210.273438 127.328125 211.347656 129.210938 212.125 130.433594 Z M 304.9375 126.105469 C 304.9375 127.6875 305.953125 131.003906 307.359375 133.988281 C 308.164062 135.691406 308.792969 137.125 308.761719 137.152344 C 308.703125 137.183594 307.117188 137.960938 305.207031 138.855469 C 295.976562 143.214844 288.777344 150.199219 284.148438 159.277344 C 281.160156 165.128906 281.21875 165.011719 280.351562 164.863281 C 279.964844 164.773438 279.21875 164.921875 278.710938 165.191406 C 278.203125 165.457031 277.722656 165.667969 277.632812 165.667969 C 277.574219 165.667969 277.964844 164.980469 278.53125 164.144531 C 280.742188 160.832031 280.023438 159.605469 276.976562 161.515625 C 270.855469 165.429688 268.882812 166.382812 266.015625 166.863281 C 263.894531 167.25 263.683594 167.21875 260.070312 166.203125 L 257.800781 165.578125 L 257.441406 163.785156 C 256.8125 160.5625 255.351562 156.589844 253.945312 154.320312 C 253.140625 153.039062 251.4375 150.976562 249.914062 149.484375 C 248.480469 148.082031 247.285156 146.738281 247.285156 146.5 C 247.285156 146.289062 247.761719 145.78125 248.359375 145.394531 C 249.703125 144.46875 250.300781 143.574219 251.109375 141.304688 C 251.882812 139.152344 251.882812 138.824219 251.347656 136.734375 C 250.957031 135.273438 250.988281 135.035156 251.585938 133.480469 C 252.332031 131.570312 252.78125 131.332031 253.917969 132.226562 C 254.484375 132.675781 254.753906 133.210938 254.902344 134.316406 C 255.082031 135.660156 255.261719 135.929688 256.277344 136.585938 C 257.050781 137.0625 257.441406 137.542969 257.441406 137.960938 C 257.441406 138.289062 257.769531 139.003906 258.15625 139.542969 C 258.574219 140.078125 259.113281 141.363281 259.382812 142.40625 C 260.070312 145.066406 260.578125 145.871094 261.921875 146.558594 C 263.386719 147.304688 264.339844 147.304688 267.058594 146.558594 C 270.078125 145.753906 274.230469 145.335938 276.410156 145.632812 C 277.992188 145.84375 278.320312 146.019531 279.367188 147.183594 C 279.996094 147.902344 281.429688 150.171875 282.5625 152.230469 C 284.414062 155.664062 285.519531 156.949219 285.519531 155.664062 C 285.519531 154.410156 280.832031 146.617188 279.367188 145.394531 L 278.320312 144.558594 L 280.175781 143.871094 C 282.324219 143.066406 283.816406 141.839844 284.625 140.316406 C 285.28125 139.003906 287.761719 131.09375 288.058594 129.359375 C 288.238281 128.195312 288.328125 128.105469 289.375 127.925781 C 290.089844 127.808594 290.867188 127.417969 291.4375 126.824219 C 292.332031 125.898438 292.453125 125.867188 295.050781 125.835938 C 297.589844 125.808594 297.738281 125.835938 297.621094 126.402344 C 297.53125 126.734375 297.351562 127.746094 297.199219 128.644531 C 297.050781 129.539062 296.453125 132.285156 295.886719 134.703125 C 295.019531 138.378906 294.929688 139.152344 295.289062 139.304688 C 295.5 139.390625 295.765625 139.390625 295.855469 139.304688 C 296.125 139.035156 297.351562 133.898438 298.097656 129.988281 C 298.457031 128.015625 298.8125 126.34375 298.84375 126.285156 C 298.902344 126.253906 299.234375 126.402344 299.621094 126.671875 C 300.816406 127.507812 302.964844 127.089844 304.011719 125.835938 C 304.578125 125.148438 304.9375 125.238281 304.9375 126.105469 Z M 312.195312 138.855469 C 313.542969 141.242188 314.378906 142.167969 318.292969 145.574219 C 324.503906 150.886719 326.417969 153.304688 328.507812 158.203125 C 329.523438 160.589844 333.226562 172.476562 334.332031 176.863281 C 335.109375 179.96875 338.605469 196.957031 339.589844 202.394531 C 341.082031 210.753906 341.171875 223.503906 339.769531 231.355469 C 339.351562 233.742188 338.722656 237.835938 338.394531 240.460938 C 336.601562 254.316406 333.855469 264.050781 325.878906 285.070312 C 323.339844 291.757812 322.683594 292.625 318.621094 294.984375 C 317.425781 295.667969 315.75 296.714844 314.945312 297.339844 C 314.109375 297.9375 313.035156 298.65625 312.554688 298.894531 C 311.539062 299.433594 308.222656 299.910156 303.890625 300.179688 C 302.25 300.296875 299.5625 300.714844 297.917969 301.132812 C 295.617188 301.699219 293.378906 301.96875 288.058594 302.296875 C 284.296875 302.507812 280.59375 302.835938 279.84375 302.984375 C 279.097656 303.164062 277.84375 303.285156 277.007812 303.3125 L 275.515625 303.3125 L 278.621094 301.789062 C 281.429688 300.417969 282.027344 299.96875 285.074219 296.921875 C 289.464844 292.535156 291.046875 290.324219 293.707031 284.949219 C 297.050781 278.203125 297.949219 274.769531 297.707031 269.78125 C 297.558594 266.855469 296.664062 263.304688 296.066406 263.304688 C 295.46875 263.304688 295.46875 263.960938 296.035156 266.109375 C 297.082031 270.082031 296.574219 275.335938 294.75 279.933594 C 292.121094 286.5625 289.253906 290.980469 284.503906 295.730469 C 281.429688 298.804688 280.53125 299.519531 278.441406 300.566406 C 277.125 301.222656 275.425781 301.851562 274.707031 301.96875 C 274.019531 302.089844 273.304688 302.296875 273.125 302.417969 C 272.972656 302.535156 271.273438 302.328125 269.390625 301.941406 C 267.507812 301.550781 264.429688 301.042969 262.519531 300.835938 C 260.339844 300.566406 258.425781 300.117188 257.292969 299.640625 C 254.15625 298.328125 251.40625 297.609375 248.417969 297.339844 C 246.386719 297.164062 244.714844 296.773438 242.742188 296.058594 C 241.21875 295.492188 238.5625 294.59375 236.828125 294.027344 C 235.125 293.488281 232.167969 292.265625 230.257812 291.308594 C 227.628906 289.9375 225.804688 289.28125 222.429688 288.414062 C 219.863281 287.726562 216.816406 286.683594 215.113281 285.90625 C 213.082031 284.949219 211.167969 284.351562 208.898438 283.90625 C 205.910156 283.308594 202.117188 282.085938 201.460938 281.515625 C 201.339844 281.367188 201.460938 281.1875 201.757812 281.097656 C 202.773438 280.800781 215.292969 278.828125 216.308594 278.828125 C 216.816406 278.828125 218.21875 279.097656 219.355469 279.457031 C 221.683594 280.144531 224.460938 280.234375 226.972656 279.695312 C 227.867188 279.515625 229.480469 279.335938 230.554688 279.308594 C 232.585938 279.21875 234.261719 278.5625 236.171875 277.097656 C 237.574219 276.023438 241.90625 271.125 241.90625 270.617188 C 241.90625 269.664062 241.042969 270.289062 238.292969 273.214844 C 236.710938 274.917969 234.828125 276.621094 234.109375 277.007812 L 232.796875 277.753906 L 234.5 276.023438 C 236.917969 273.605469 238.382812 271.066406 242.058594 263.152344 C 248.628906 248.941406 250.121094 246.226562 252.78125 243.597656 L 254.15625 242.285156 L 256.335938 244.433594 L 258.515625 246.613281 L 257.351562 247.867188 C 254.425781 251 252.003906 255.09375 250.273438 259.871094 C 249.734375 261.332031 249.046875 263.066406 248.71875 263.691406 C 248.210938 264.675781 248.210938 264.828125 248.628906 264.976562 C 249.316406 265.246094 249.765625 264.496094 251.199219 260.765625 C 252.839844 256.40625 254.394531 253.570312 256.785156 250.40625 C 258.785156 247.746094 259.53125 247.148438 260.25 247.746094 C 260.875 248.285156 264.042969 249 265.207031 248.910156 C 266.164062 248.824219 266.3125 248.910156 266.851562 250.015625 C 268.671875 253.628906 267.089844 263.960938 263.148438 274.203125 C 261.773438 277.753906 261.59375 278.949219 262.488281 278.382812 C 262.878906 278.144531 263.355469 277.066406 264.910156 272.859375 C 267.359375 266.199219 268.910156 258.617188 268.734375 254.195312 C 268.644531 252.554688 268.492188 250.941406 268.375 250.613281 C 268.285156 250.285156 269.507812 252.644531 271.09375 255.839844 C 273.003906 259.632812 275.15625 263.273438 277.214844 266.320312 C 278.949219 268.886719 280.921875 272.113281 281.578125 273.484375 C 282.714844 275.84375 284.921875 282.054688 284.921875 282.859375 C 284.921875 283.070312 285.132812 283.398438 285.371094 283.605469 C 286.179688 284.265625 286.269531 283.070312 285.582031 280.800781 C 283.730469 274.441406 281.964844 270.886719 277.632812 264.796875 C 275.992188 262.46875 274.199219 259.300781 272.046875 254.941406 C 268.644531 248.015625 268.613281 247.984375 269 247.867188 C 269.152344 247.808594 269.628906 248.554688 270.105469 249.480469 C 271.363281 252.078125 273.09375 254.347656 277.304688 258.972656 C 281.488281 263.542969 285.164062 268.019531 286.566406 270.230469 C 287.375 271.515625 288.507812 272.171875 288.507812 271.363281 C 288.507812 270.320312 284.117188 264.648438 278.769531 258.792969 C 274.320312 253.929688 272.019531 250.972656 270.914062 248.734375 L 270.136719 247.148438 L 271.332031 246.136719 C 272.765625 244.910156 273.0625 244.910156 277.15625 246.644531 C 282.382812 248.882812 284.773438 249.390625 289.851562 249.390625 C 293.226562 249.390625 294.691406 249.269531 295.828125 248.882812 C 296.632812 248.613281 297.351562 248.433594 297.378906 248.492188 C 297.441406 248.554688 296.960938 250.523438 296.304688 252.851562 C 295.648438 255.210938 295.167969 257.242188 295.257812 257.363281 C 295.738281 258.167969 296.273438 257.421875 296.84375 255.152344 C 297.199219 253.808594 297.949219 251.210938 298.515625 249.417969 C 300.367188 243.476562 300.488281 242.878906 300.757812 238.820312 C 301.144531 233.386719 303.324219 224.457031 305.296875 220.308594 C 306.042969 218.753906 306.851562 216.992188 307.089844 216.425781 C 307.714844 214.964844 308.523438 214.964844 311.988281 216.457031 C 313.570312 217.113281 315.035156 217.589844 315.304688 217.472656 C 316.109375 217.171875 315.242188 216.574219 312.109375 215.261719 C 309.808594 214.304688 309.390625 214.039062 309.867188 213.828125 C 310.433594 213.621094 312.257812 213.589844 313.898438 213.796875 C 315.214844 213.949219 314.796875 213.023438 313.332031 212.574219 C 312.226562 212.214844 311.808594 212.214844 310.433594 212.605469 C 309.539062 212.875 308.820312 213.023438 308.820312 212.960938 C 308.820312 212.902344 309.898438 210.902344 311.210938 208.542969 C 313.929688 203.617188 316.707031 199.109375 318.230469 197.109375 C 319.394531 195.554688 319.515625 195.226562 318.769531 195.226562 C 317.722656 195.257812 313.839844 201.167969 308.820312 210.304688 C 307.476562 212.753906 306.460938 214.515625 306.582031 214.1875 C 307.566406 211.199219 309.179688 204.75 311.03125 196.273438 C 311.71875 193.136719 311.660156 191.972656 310.882812 192.75 C 310.734375 192.898438 309.71875 196.71875 308.671875 201.230469 C 307.058594 208.183594 305.117188 215.230469 304.820312 215.230469 C 304.578125 215.230469 305.328125 194.121094 305.683594 190.808594 C 305.804688 189.851562 305.714844 189.554688 305.386719 189.554688 C 305.175781 189.554688 304.878906 189.671875 304.789062 189.851562 C 304.488281 190.359375 303.804688 202.839844 303.59375 212.066406 C 303.414062 220.097656 303.296875 221.261719 302.699219 223.265625 C 302.339844 224.519531 301.652344 227.203125 301.203125 229.265625 C 300.726562 231.324219 300.277344 233.085938 300.1875 233.207031 C 300.097656 233.324219 300.007812 229.832031 299.980469 225.445312 C 299.949219 216.007812 299.171875 199.527344 298.457031 193.4375 C 297.707031 187.015625 297.769531 176.773438 298.605469 172.238281 C 298.964844 170.355469 299.5625 167.847656 299.980469 166.652344 C 300.695312 164.53125 300.695312 164.175781 299.980469 164.175781 C 299.472656 164.175781 297.949219 168.953125 297.351562 172.503906 C 296.691406 176.417969 296.425781 184.476562 296.84375 188.660156 C 298.15625 202.066406 299.023438 220.1875 298.902344 231.175781 C 298.84375 236.609375 298.933594 238.371094 299.203125 238.460938 C 299.949219 238.699219 299.441406 242.789062 298.335938 245.386719 C 297.769531 246.730469 297.558594 246.910156 296.007812 247.507812 C 294.839844 247.957031 293.347656 248.195312 291.167969 248.285156 C 286.804688 248.523438 283.519531 247.867188 278.140625 245.746094 L 273.871094 244.074219 L 275.753906 242.253906 C 276.796875 241.269531 279.070312 238.878906 280.859375 236.9375 C 282.625 235.027344 284.296875 233.445312 284.535156 233.445312 C 285.640625 233.445312 287.402344 234.222656 288.210938 235.027344 C 289.074219 235.921875 289.074219 235.921875 288.566406 236.820312 C 288.300781 237.296875 287.34375 238.253906 286.507812 238.9375 C 285.640625 239.597656 284.921875 240.3125 284.921875 240.523438 C 284.921875 241.296875 286 240.878906 287.492188 239.566406 L 289.046875 238.253906 L 289.164062 239.746094 C 289.433594 242.582031 291.316406 244.046875 294.242188 243.714844 C 295.765625 243.539062 295.945312 243.597656 296.273438 244.164062 C 296.542969 244.703125 296.691406 244.761719 297.050781 244.464844 C 297.679688 243.957031 297.558594 243.386719 296.722656 242.820312 C 296.125 242.433594 295.589844 242.371094 294.304688 242.523438 C 292.511719 242.730469 291.167969 242.253906 290.71875 241.296875 C 290.597656 241 290.421875 239.507812 290.300781 237.953125 L 290.121094 235.148438 L 288.867188 234.042969 C 287.222656 232.578125 285.910156 232.25 280.832031 232.042969 L 276.617188 231.863281 L 277.902344 230.308594 C 279.964844 227.773438 280.890625 226.308594 282.800781 222.515625 C 285.011719 218.097656 285.910156 215.859375 285.671875 215.320312 C 285.371094 214.515625 284.921875 215.082031 283.640625 217.917969 C 281.21875 223.265625 279.695312 226.039062 277.753906 228.609375 L 275.8125 231.207031 L 274.378906 231.144531 C 272.316406 231.085938 270.914062 230.042969 269.089844 227.234375 C 268.253906 225.980469 267.089844 224.605469 266.523438 224.1875 C 265.058594 223.144531 264.222656 221.5625 262.996094 217.5 C 261.265625 211.828125 261.445312 210.84375 265.117188 205.289062 C 267.328125 201.914062 269.480469 197.585938 270.855469 193.734375 C 271.332031 192.332031 272.644531 189.253906 273.722656 186.867188 C 274.828125 184.476562 276.5 180.269531 277.457031 177.460938 C 279.695312 170.894531 280.800781 168.144531 282.382812 165.21875 C 283.070312 163.90625 284.503906 161.160156 285.550781 159.128906 C 289.882812 150.769531 296.664062 144.378906 306.28125 139.660156 C 308.910156 138.378906 311.121094 137.300781 311.210938 137.300781 C 311.300781 137.300781 311.75 138.019531 312.195312 138.855469 Z M 242.207031 146.4375 C 243.28125 146.707031 244.597656 146.828125 245.132812 146.738281 C 245.789062 146.648438 246.089844 146.707031 246.089844 146.976562 C 246.089844 147.183594 247.402344 148.679688 249.015625 150.320312 C 250.691406 151.992188 252.453125 154.113281 253.078125 155.21875 C 254.273438 157.21875 256.066406 162.203125 256.425781 164.382812 C 256.605469 165.546875 256.574219 165.667969 256.007812 165.667969 C 255.082031 165.667969 254.453125 165.996094 254.453125 166.445312 C 254.453125 166.773438 254.933594 166.863281 256.335938 166.863281 C 257.441406 166.863281 258.964844 167.101562 259.921875 167.429688 C 262.371094 168.296875 263.921875 168.445312 266.253906 168.054688 C 269.0625 167.609375 271.71875 166.355469 276.410156 163.308594 C 278.53125 161.90625 278.441406 161.933594 278.054688 162.742188 C 277.84375 163.101562 277.246094 163.964844 276.707031 164.652344 C 275.542969 166.085938 275.335938 166.832031 275.992188 167.25 C 276.351562 167.460938 276.886719 167.339844 278.140625 166.773438 C 279.097656 166.355469 279.84375 166.054688 279.84375 166.144531 C 279.84375 166.5625 277.632812 169.160156 276.976562 169.488281 C 276.589844 169.699219 276.261719 169.996094 276.261719 170.144531 C 276.261719 170.683594 276.859375 170.742188 277.722656 170.296875 C 278.949219 169.667969 278.949219 169.699219 278.441406 170.980469 C 278.054688 171.996094 277.695312 172.265625 275.425781 173.339844 C 268.671875 176.566406 264.132812 177.761719 259.980469 177.460938 C 258.515625 177.371094 256.007812 177.253906 254.453125 177.222656 C 249.136719 177.101562 246.507812 175.191406 241.488281 167.699219 C 239.726562 165.039062 238.652344 163.160156 238.800781 162.949219 C 238.921875 162.742188 238.980469 158.769531 238.949219 154.082031 L 238.890625 145.601562 L 239.578125 145.78125 C 239.964844 145.902344 241.128906 146.171875 242.207031 146.4375 Z M 241.101562 169.132812 C 244.207031 173.878906 246.089844 175.789062 249.046875 177.253906 C 251.109375 178.269531 251.527344 178.355469 254.125 178.417969 C 255.707031 178.445312 258.097656 178.566406 259.472656 178.6875 C 262.460938 178.925781 262.488281 179.042969 260.757812 182.597656 C 259.351562 185.523438 256.335938 188.867188 254.214844 189.851562 C 251.855469 190.988281 247.941406 192.242188 246.835938 192.242188 C 245.878906 192.242188 245.671875 192.09375 244.683594 190.507812 C 242.742188 187.492188 237.785156 177.519531 237.128906 175.28125 C 236.589844 173.578125 236.5 172.625 236.621094 171.101562 C 236.800781 168.953125 237.992188 164.59375 238.324219 164.980469 C 238.414062 165.101562 239.667969 166.980469 241.101562 169.132812 Z M 275.992188 177.96875 C 275.183594 180.328125 273.960938 183.582031 273.214844 185.226562 L 271.898438 188.210938 L 265.265625 188.390625 L 265.027344 187.554688 C 264.910156 187.105469 264.789062 185.375 264.757812 183.730469 C 264.757812 181.492188 264.640625 180.476562 264.222656 179.730469 C 263.953125 179.164062 263.742188 178.6875 263.804688 178.625 C 263.832031 178.566406 264.847656 178.328125 266.042969 178.089844 C 268.136719 177.671875 274.050781 175.460938 276.261719 174.296875 C 276.828125 173.996094 277.335938 173.757812 277.367188 173.730469 C 277.394531 173.730469 276.769531 175.640625 275.992188 177.96875 Z M 263.476562 180.953125 C 263.503906 181.34375 263.535156 182.835938 263.566406 184.328125 C 263.566406 185.792969 263.683594 187.375 263.832031 187.824219 C 264.042969 188.570312 263.953125 188.71875 262.011719 189.941406 C 260.90625 190.660156 259.171875 191.644531 258.21875 192.121094 C 255.46875 193.464844 253.019531 197.167969 252.871094 200.214844 C 252.839844 200.75 252.722656 201.167969 252.601562 201.109375 C 252.453125 201.078125 251.078125 199.378906 249.523438 197.316406 L 246.6875 193.585938 L 247.671875 193.347656 C 250.628906 192.597656 252.152344 192.0625 254.335938 191.015625 C 256.246094 190.121094 257.171875 189.464844 258.574219 187.910156 C 260.308594 186.03125 262.816406 181.789062 262.816406 180.777344 C 262.816406 180.03125 263.414062 180.207031 263.476562 180.953125 Z M 195.902344 185.136719 C 198.472656 185.613281 204.089844 187.613281 206.238281 188.777344 C 209.375 190.507812 217.441406 196.601562 223.238281 201.617188 C 224.402344 202.632812 228.105469 205.796875 231.453125 208.691406 C 234.828125 211.589844 237.875 214.277344 238.234375 214.664062 C 238.589844 215.054688 239.695312 217.320312 240.683594 219.652344 C 241.699219 222.007812 243.011719 224.90625 243.582031 226.039062 C 245.402344 229.652344 249.34375 236.074219 251.375 238.730469 L 253.289062 241.269531 L 251.796875 242.851562 C 248.957031 245.835938 247.734375 248.074219 240.890625 262.796875 C 235.15625 275.128906 232.738281 277.726562 226.285156 278.589844 L 223.683594 278.949219 L 222.609375 277.902344 C 219.5625 275.007812 213.140625 263.691406 202.148438 241.867188 C 199.546875 236.730469 196.679688 231.355469 195.726562 229.921875 C 194.589844 228.191406 192.675781 225.980469 189.929688 223.234375 C 185.390625 218.726562 184.402344 217.949219 183.894531 218.457031 C 183.6875 218.664062 184.523438 219.652344 186.761719 221.800781 L 189.898438 224.847656 L 185.984375 229.054688 C 181.746094 233.625 179.714844 235.503906 176.933594 237.476562 C 170.511719 242.042969 157.847656 247.898438 139.535156 254.765625 C 125.585938 259.988281 117.789062 263.511719 109.691406 268.171875 C 100.042969 273.722656 91.707031 277.605469 88.066406 278.261719 C 86.839844 278.472656 84.210938 278.652344 82.238281 278.652344 C 79.132812 278.652344 78.027344 278.5 73.875 277.546875 C 66.167969 275.722656 66.496094 275.753906 57.207031 275.933594 C 48.753906 276.082031 43.972656 275.875 41.015625 275.21875 C 38.984375 274.738281 34.742188 272.738281 34.503906 272.140625 C 34.144531 271.246094 37.339844 270.109375 41.285156 269.78125 C 42.390625 269.664062 43.496094 269.425781 43.734375 269.246094 C 44.511719 268.617188 43.824219 268.320312 42.03125 268.527344 C 41.015625 268.648438 40.269531 268.617188 40.269531 268.46875 C 40.269531 267.960938 41.074219 267.066406 41.644531 267.003906 C 42.480469 266.886719 47.527344 265.066406 47.886719 264.765625 C 48.035156 264.585938 48.035156 264.378906 47.796875 264.140625 C 47.558594 263.902344 46.839844 264.019531 44.867188 264.738281 C 43.433594 265.273438 42.210938 265.632812 42.121094 265.574219 C 42.0625 265.511719 43.078125 264.378906 44.359375 263.066406 C 46.332031 261.0625 47.199219 260.46875 49.828125 259.183594 C 54.128906 257.0625 56.757812 256.40625 67.394531 254.644531 C 78.148438 252.882812 81.550781 252.136719 87.4375 250.34375 C 89.828125 249.597656 92.8125 248.761719 94.039062 248.433594 C 97.742188 247.480469 106.554688 243.957031 109.632812 242.222656 C 114.023438 239.746094 123.582031 233.296875 127.945312 229.832031 C 132.515625 226.21875 137.832031 222.007812 146.464844 215.054688 C 154.023438 208.992188 157.457031 206.273438 160.058594 204.332031 C 161.132812 203.527344 163.761719 201.496094 165.882812 199.796875 C 168.03125 198.125 171.648438 195.226562 173.949219 193.40625 C 180.132812 188.507812 185 185.761719 189.183594 184.804688 C 190.496094 184.507812 193.335938 184.628906 195.902344 185.136719 Z M 227.65625 191.585938 C 228.433594 192.71875 229.570312 194.75 230.199219 196.152344 L 231.363281 198.660156 L 230.972656 201.289062 C 230.765625 202.722656 230.675781 204.125 230.765625 204.363281 C 231.09375 205.199219 230.285156 204.75 229.121094 203.4375 C 227.089844 201.109375 226.074219 197.464844 226.074219 192.300781 C 226.074219 190.808594 226.105469 189.554688 226.164062 189.554688 C 226.222656 189.554688 226.882812 190.480469 227.65625 191.585938 Z M 271.03125 190.0625 C 270.914062 190.359375 270.226562 192.09375 269.539062 193.914062 C 267.894531 198.152344 266.492188 200.929688 264.132812 204.542969 C 263.085938 206.15625 262.011719 207.917969 261.742188 208.453125 C 261.472656 208.992188 261.203125 209.46875 261.144531 209.527344 C 260.9375 209.738281 254.453125 203.496094 254.273438 202.902344 C 253.796875 201.347656 254.066406 199.136719 254.992188 197.257812 C 256.15625 194.898438 256.992188 194.0625 259.921875 192.570312 C 261.175781 191.882812 262.789062 190.957031 263.476562 190.449219 C 264.671875 189.582031 264.820312 189.554688 267.984375 189.554688 C 270.972656 189.554688 271.242188 189.582031 271.03125 190.0625 Z M 233.214844 202.75 C 233.601562 203.796875 234.648438 206.246094 235.515625 208.183594 C 236.410156 210.125 237.128906 211.796875 237.128906 211.859375 C 237.128906 211.949219 235.960938 210.992188 234.527344 209.769531 L 231.898438 207.527344 L 231.960938 205.46875 C 231.988281 204.363281 232.019531 202.871094 232.019531 202.152344 C 232.050781 201.46875 232.140625 200.898438 232.289062 200.898438 C 232.40625 200.898438 232.824219 201.734375 233.214844 202.75 Z M 233.214844 202.75 " fill-opacity="1" fill-rule="nonzero"/></g><path fill="#000000" d="M 307.449219 112.25 C 307.117188 112.789062 307.835938 113.207031 309.148438 113.238281 C 310.554688 113.265625 311.089844 112.640625 309.898438 112.371094 C 309.480469 112.28125 308.792969 112.160156 308.402344 112.074219 C 307.984375 111.984375 307.566406 112.074219 307.449219 112.25 Z M 307.449219 112.25 " fill-opacity="1" fill-rule="nonzero"/><path fill="#000000" d="M 308.015625 115.296875 C 306.3125 115.773438 306.222656 115.984375 307.359375 116.671875 C 308.613281 117.445312 309.121094 117.445312 309.121094 116.730469 C 309.121094 116.433594 309.328125 116.101562 309.566406 115.984375 C 310.105469 115.773438 310.164062 114.910156 309.65625 114.9375 C 309.449219 114.96875 308.703125 115.117188 308.015625 115.296875 Z M 308.015625 115.296875 " fill-opacity="1" fill-rule="nonzero"/><path fill="#000000" d="M 305.535156 151.695312 C 301.742188 155.992188 299.351562 160.292969 300.726562 160.292969 C 300.90625 160.292969 301.382812 159.667969 301.832031 158.859375 C 303.296875 156.351562 304.9375 154.054688 306.582031 152.203125 C 308.132812 150.46875 308.375 149.84375 307.535156 149.84375 C 307.328125 149.84375 306.433594 150.679688 305.535156 151.695312 Z M 305.535156 151.695312 " fill-opacity="1" fill-rule="nonzero"/><path fill="#000000" d="M 303.953125 176.027344 C 303.683594 176.265625 303.683594 183.402344 303.921875 183.671875 C 304.011719 183.761719 304.28125 183.761719 304.519531 183.671875 C 305.117188 183.464844 305.148438 175.820312 304.550781 175.820312 C 304.3125 175.820312 304.042969 175.910156 303.953125 176.027344 Z M 303.953125 176.027344 " fill-opacity="1" fill-rule="nonzero"/><path fill="#000000" d="M 292.570312 183.492188 C 292.183594 185.703125 292.003906 206.003906 292.363281 206.363281 C 293.136719 207.140625 293.289062 205.585938 293.289062 196.570312 C 293.316406 191.464844 293.40625 186.359375 293.527344 185.164062 C 293.765625 182.804688 293.707031 182.386719 293.136719 182.386719 C 292.929688 182.386719 292.660156 182.894531 292.570312 183.492188 Z M 292.570312 183.492188 " fill-opacity="1" fill-rule="nonzero"/><path fill="#000000" d="M 251.945312 274.589844 C 246.359375 283.90625 245.28125 285.398438 242.714844 287.457031 C 241.609375 288.324219 240.710938 289.160156 240.710938 289.28125 C 240.710938 289.996094 241.460938 289.789062 242.863281 288.710938 C 246.359375 286.113281 247.464844 284.59375 254.125 273.335938 C 255.949219 270.199219 257.410156 267.542969 257.351562 267.363281 C 257.023438 266.410156 256.15625 267.601562 251.945312 274.589844 Z M 251.945312 274.589844 " fill-opacity="1" fill-rule="nonzero"/><path fill="#000000" d="M 276.140625 268.019531 C 276.082031 268.140625 276.378906 270.46875 276.859375 273.15625 C 278.320312 281.667969 278.472656 283.546875 278.054688 287.101562 C 277.695312 290.117188 277.722656 290.265625 278.292969 290.832031 C 278.859375 291.398438 278.917969 291.398438 279.964844 290.921875 C 280.5625 290.625 281.429688 289.9375 281.9375 289.398438 C 283.371094 287.757812 283.222656 286.175781 280.832031 278.738281 C 279.636719 275.097656 279.308594 274.351562 278.890625 274.441406 C 278.351562 274.589844 278.351562 274.558594 277.753906 271.125 C 277.246094 268.230469 276.679688 267.15625 276.140625 268.019531 Z M 281.070312 283.578125 C 281.90625 286.863281 281.847656 287.9375 280.683594 289.011719 C 279.308594 290.234375 278.828125 290.175781 279.070312 288.742188 C 279.546875 285.757812 279.578125 282.710938 279.128906 279.753906 C 278.859375 278.023438 278.648438 276.5 278.679688 276.320312 C 278.710938 275.875 280.382812 280.949219 281.070312 283.578125 Z M 281.070312 283.578125 " fill-opacity="1" fill-rule="nonzero"/><path fill="#000000" d="M 257.980469 276.351562 C 257.710938 276.648438 256.753906 278.171875 255.796875 279.726562 C 254.871094 281.277344 253.378906 283.515625 252.480469 284.710938 C 250.480469 287.308594 245.222656 292.414062 243.820312 293.070312 C 242.742188 293.609375 242.445312 294.355469 243.339844 294.355469 C 244.863281 294.355469 251.289062 288.535156 253.945312 284.742188 C 256.15625 281.636719 258.933594 276.976562 258.933594 276.382812 C 258.933594 275.695312 258.546875 275.695312 257.980469 276.351562 Z M 257.980469 276.351562 " fill-opacity="1" fill-rule="nonzero"/><path fill="#000000" d="M 86.09375 270.230469 C 85.855469 270.617188 87.199219 271.84375 88.574219 272.441406 C 89.945312 273.039062 91.082031 272.949219 93.679688 272.082031 C 96.160156 271.246094 97.027344 270.648438 96.578125 270.199219 C 96.367188 270.023438 95.382812 270.230469 93.800781 270.796875 C 90.8125 271.84375 89.675781 271.871094 88.332031 270.976562 C 86.960938 270.050781 86.332031 269.84375 86.09375 270.230469 Z M 86.09375 270.230469 " fill-opacity="1" fill-rule="nonzero"/></svg>