<svg xmlns="http://www.w3.org/2000/svg" xmlns:xlink="http://www.w3.org/1999/xlink" width="500" zoomAndPan="magnify" viewBox="0 0 375 374.999991" height="500" preserveAspectRatio="xMidYMid meet" version="1.0"><defs><clipPath id="b144c50e67"><path d="M 68 32 L 307 32 L 307 343.957031 L 68 343.957031 Z M 68 32 " clip-rule="nonzero"/></clipPath></defs><g clip-path="url(#b144c50e67)"><path fill="#000000" d="M 189.972656 32.136719 C 188.359375 32.140625 187.421875 32.210938 187.386719 32.214844 C 187.25 32.214844 172.664062 31.09375 157.941406 37.769531 C 143.328125 44.394531 128.652344 58.90625 128.304688 89.226562 L 84.011719 89.226562 C 81.792969 89.226562 79.765625 90.496094 78.789062 92.496094 L 68.734375 113.15625 C 66.878906 116.976562 69.710938 121.523438 73.960938 121.523438 L 119.917969 121.523438 L 119.917969 150.183594 C 119.917969 160.085938 127.375 168.09375 136.929688 169.339844 L 125.46875 233.1875 L 121.417969 233.1875 C 119.9375 233.1875 118.527344 233.832031 117.773438 235.074219 L 111.355469 245.621094 C 110.644531 246.792969 110.828125 248.238281 111.585938 249.207031 C 112.339844 250.175781 113.585938 250.765625 115 250.765625 L 122.308594 250.765625 L 106.816406 337.050781 C 106.175781 340.609375 108.9375 343.925781 112.546875 343.925781 C 115.3125 343.925781 117.703125 341.957031 118.253906 339.238281 L 136.007812 250.765625 L 238.769531 250.765625 L 256.53125 339.234375 C 257.074219 341.953125 259.464844 343.914062 262.230469 343.914062 C 265.84375 343.914062 268.601562 340.605469 267.96875 337.050781 L 252.472656 250.765625 L 259.769531 250.765625 C 261.191406 250.765625 262.441406 250.175781 263.191406 249.207031 C 263.945312 248.238281 264.128906 246.792969 263.417969 245.621094 L 257 235.074219 C 256.25 233.847656 254.84375 233.191406 253.359375 233.191406 L 249.320312 233.191406 L 237.851562 169.335938 C 247.394531 168.082031 254.847656 160.085938 254.847656 150.183594 L 254.847656 121.523438 L 300.824219 121.523438 C 305.066406 121.523438 307.898438 116.980469 306.042969 113.15625 L 295.992188 92.496094 C 295.015625 90.503906 292.984375 89.230469 290.765625 89.230469 L 246.476562 89.230469 C 246.128906 58.910156 231.449219 44.394531 216.835938 37.769531 C 205.792969 32.761719 194.820312 32.132812 189.972656 32.136719 Z M 184.859375 34.359375 C 186.417969 34.359375 187.304688 34.429688 187.304688 34.429688 L 187.476562 34.429688 C 187.476562 34.429688 201.726562 33.355469 215.925781 39.792969 C 229.953125 46.152344 243.917969 59.625 244.253906 89.230469 L 241.34375 89.230469 L 241.34375 86.902344 C 241.347656 86.644531 241.257812 86.425781 241.074219 86.242188 C 240.890625 86.0625 240.671875 85.972656 240.417969 85.972656 L 194.234375 85.972656 C 193.980469 85.96875 193.761719 86.058594 193.578125 86.242188 C 193.394531 86.421875 193.304688 86.644531 193.308594 86.902344 L 193.308594 89.226562 L 169.144531 89.226562 L 170.355469 73.152344 C 170.371094 73.023438 170.355469 72.898438 170.3125 72.777344 C 170.269531 72.65625 170.203125 72.546875 170.113281 72.453125 C 170.027344 72.359375 169.921875 72.285156 169.804688 72.234375 C 169.6875 72.183594 169.5625 72.15625 169.433594 72.15625 L 142.707031 72.15625 C 142.578125 72.15625 142.457031 72.183594 142.339844 72.234375 C 142.222656 72.285156 142.121094 72.359375 142.03125 72.453125 C 141.945312 72.546875 141.878906 72.65625 141.835938 72.777344 C 141.796875 72.898438 141.777344 73.023438 141.785156 73.152344 L 142.992188 89.226562 L 130.515625 89.226562 C 130.855469 59.625 144.824219 46.148438 158.855469 39.792969 C 169.503906 34.964844 180.183594 34.359375 184.859375 34.359375 Z M 219.28125 56.046875 C 216.773438 56.046875 214.269531 57.742188 213.324219 60.628906 C 211.960938 64.746094 213.074219 69.433594 215.910156 72.65625 C 216.601562 73.382812 217.480469 74.035156 218.042969 74.863281 C 219.902344 77.613281 218.613281 81.226562 217.070312 83.863281 C 216.957031 84.003906 216.984375 84.195312 217.125 84.308594 C 217.261719 84.417969 217.460938 84.390625 217.574219 84.25 C 218.644531 82.847656 219.414062 81.265625 219.859375 79.523438 C 220.207031 77.984375 220.179688 76.242188 219.453125 74.789062 C 218.957031 73.574219 217.820312 72.660156 216.925781 71.742188 C 214.519531 68.894531 213.546875 64.664062 214.632812 61.085938 C 215.488281 58.132812 219.035156 56.09375 221.761719 57.871094 C 223.078125 58.6875 224.085938 60.105469 224.777344 61.554688 C 224.832031 61.710938 225 61.800781 225.179688 61.742188 C 225.34375 61.683594 225.429688 61.503906 225.375 61.332031 C 225.089844 60.480469 224.6875 59.710938 224.191406 58.96875 C 222.960938 56.972656 221.132812 56.058594 219.300781 56.050781 Z M 207.074219 63.105469 C 207.027344 63.105469 207 63.109375 206.949219 63.132812 C 206.027344 63.503906 205.136719 63.964844 204.332031 64.570312 C 200.578125 67.527344 201.761719 72.652344 204.886719 75.585938 C 205.214844 75.910156 205.730469 76.28125 206.105469 76.546875 C 208.011719 77.761719 207.816406 80.4375 207.246094 82.394531 C 207.191406 82.539062 207.246094 82.710938 207.410156 82.800781 C 207.550781 82.878906 207.757812 82.828125 207.84375 82.660156 C 208.300781 81.75 208.578125 80.792969 208.691406 79.761719 C 208.800781 78.742188 208.636719 77.605469 208.039062 76.636719 C 207.65625 75.949219 206.96875 75.472656 206.367188 75 C 202.429688 71.445312 202.105469 66.429688 207.226562 63.71875 C 207.363281 63.644531 207.421875 63.457031 207.363281 63.304688 C 207.308594 63.175781 207.199219 63.105469 207.070312 63.109375 Z M 229.183594 65.472656 C 225.910156 65.507812 224.378906 69.496094 225.765625 73.136719 C 226.332031 74.835938 227.625 76.324219 229.214844 77.144531 C 230.828125 78.226562 230.464844 80.699219 229.976562 82.390625 C 229.921875 82.539062 229.976562 82.707031 230.144531 82.789062 C 230.308594 82.871094 230.496094 82.816406 230.582031 82.65625 C 231.046875 81.757812 231.339844 80.8125 231.453125 79.78125 C 231.621094 78.53125 231.175781 76.886719 230.03125 76.0625 C 225.605469 73.859375 225.015625 64.449219 231.765625 66.878906 C 232.128906 66.996094 232.355469 66.464844 232.015625 66.285156 C 230.972656 65.710938 230.019531 65.464844 229.1875 65.472656 Z M 143.703125 74.003906 L 168.4375 74.003906 L 165.753906 109.695312 C 159.277344 111.066406 152.859375 111.066406 146.386719 109.695312 Z M 195.160156 87.828125 L 239.496094 87.828125 L 239.496094 93.292969 C 239.496094 102.246094 232.28125 109.46875 223.355469 109.46875 L 211.308594 109.46875 C 202.382812 109.46875 195.160156 102.234375 195.160156 93.292969 Z M 84.011719 91.453125 L 143.164062 91.453125 L 144.605469 110.59375 C 144.617188 110.796875 144.691406 110.972656 144.824219 111.125 C 144.957031 111.28125 145.121094 111.378906 145.320312 111.425781 C 152.492188 113.046875 159.644531 113.046875 166.824219 111.425781 C 167.019531 111.378906 167.183594 111.28125 167.316406 111.125 C 167.449219 110.972656 167.523438 110.796875 167.539062 110.59375 L 168.980469 91.453125 L 193.3125 91.453125 L 193.3125 93.292969 C 193.3125 103.238281 201.386719 111.320312 211.308594 111.320312 L 223.359375 111.320312 C 233.285156 111.320312 241.347656 103.242188 241.347656 93.292969 L 241.347656 91.453125 L 290.769531 91.453125 C 292.144531 91.453125 293.398438 92.234375 294.007812 93.472656 L 304.058594 114.125 C 305.234375 116.550781 303.519531 119.296875 300.828125 119.296875 L 73.964844 119.296875 C 71.261719 119.296875 69.558594 116.550781 70.734375 114.125 L 80.785156 93.46875 C 81.390625 92.222656 82.632812 91.453125 84.015625 91.453125 Z M 122.132812 121.523438 L 132.773438 121.523438 C 132.871094 124.5625 133.078125 128.699219 133.597656 133.5625 C 134.089844 138.207031 134.832031 143.023438 135.964844 147.058594 C 137.097656 151.09375 138.53125 154.417969 140.96875 156.007812 C 145.34375 158.851562 152.117188 159.050781 158.449219 157.921875 C 164.777344 156.792969 170.679688 154.390625 173.296875 150.886719 C 178.050781 144.507812 185.175781 144.492188 187.308594 144.640625 C 187.359375 144.644531 187.410156 144.644531 187.460938 144.640625 C 189.589844 144.488281 196.71875 144.507812 201.472656 150.886719 C 204.089844 154.390625 209.992188 156.792969 216.320312 157.921875 C 222.652344 159.050781 229.429688 158.855469 233.800781 156.007812 C 236.238281 154.417969 237.671875 151.09375 238.804688 147.058594 C 239.9375 143.023438 240.675781 138.207031 241.171875 133.5625 C 241.691406 128.699219 241.898438 124.5625 241.996094 121.523438 L 252.636719 121.523438 L 252.636719 150.179688 C 252.636719 159.367188 245.519531 166.84375 236.511719 167.429688 C 236.355469 167.441406 236.203125 167.480469 236.0625 167.554688 C 235.925781 167.628906 235.804688 167.730469 235.710938 167.855469 C 235.613281 167.980469 235.542969 168.117188 235.503906 168.273438 C 235.464844 168.425781 235.460938 168.582031 235.492188 168.738281 L 247.066406 233.191406 L 237.503906 233.191406 L 224.492188 168.367188 C 224.441406 168.105469 224.3125 167.894531 224.109375 167.726562 C 223.902344 167.558594 223.671875 167.476562 223.40625 167.472656 L 151.371094 167.472656 C 151.109375 167.472656 150.878906 167.558594 150.675781 167.726562 C 150.46875 167.894531 150.339844 168.105469 150.285156 168.367188 L 137.277344 233.1875 L 127.71875 233.1875 L 139.292969 168.738281 C 139.320312 168.582031 139.3125 168.425781 139.273438 168.273438 C 139.238281 168.117188 139.167969 167.980469 139.074219 167.855469 C 138.976562 167.730469 138.859375 167.628906 138.714844 167.554688 C 138.578125 167.480469 138.425781 167.441406 138.269531 167.429688 C 129.25 166.851562 122.128906 159.363281 122.128906 150.179688 Z M 134.976562 121.523438 L 239.796875 121.523438 C 239.675781 124.746094 239.445312 128.882812 238.96875 133.328125 C 238.480469 137.898438 237.75 142.621094 236.671875 146.457031 C 235.59375 150.292969 234.082031 153.175781 232.589844 154.144531 C 229.105469 156.414062 222.710938 156.804688 216.71875 155.734375 C 210.71875 154.667969 205.132812 152.082031 203.25 149.558594 C 197.894531 142.375 189.933594 142.265625 187.386719 142.4375 C 184.839844 142.269531 176.878906 142.375 171.523438 149.558594 C 169.644531 152.082031 164.058594 154.664062 158.0625 155.730469 C 152.066406 156.800781 145.671875 156.414062 142.183594 154.144531 C 140.695312 153.175781 139.179688 150.292969 138.101562 146.457031 C 137.023438 142.621094 136.292969 137.898438 135.804688 133.328125 C 135.328125 128.882812 135.101562 124.746094 134.976562 121.523438 Z M 152.285156 169.695312 L 222.5 169.695312 L 235.25 233.191406 L 139.542969 233.191406 Z M 121.421875 235.414062 L 253.355469 235.414062 C 254.164062 235.414062 254.847656 235.8125 255.101562 236.226562 L 261.519531 246.773438 C 261.777344 247.195312 261.722656 247.476562 261.4375 247.839844 C 261.15625 248.203125 260.566406 248.546875 259.769531 248.546875 L 114.996094 248.546875 C 114.195312 248.546875 113.605469 248.203125 113.324219 247.839844 C 113.042969 247.480469 112.988281 247.203125 113.25 246.773438 L 119.667969 236.226562 C 119.921875 235.808594 120.601562 235.414062 121.410156 235.414062 Z M 124.570312 250.765625 L 133.753906 250.765625 L 116.085938 338.800781 C 115.746094 340.5 114.277344 341.699219 112.550781 341.699219 C 110.277344 341.699219 108.601562 339.683594 109.003906 337.449219 Z M 241.039062 250.765625 L 250.226562 250.765625 L 265.789062 337.445312 C 266.1875 339.683594 264.511719 341.695312 262.238281 341.695312 C 260.511719 341.695312 259.046875 340.492188 258.707031 338.796875 Z M 241.039062 250.765625 " fill-opacity="1" fill-rule="nonzero"/></g></svg>