<svg xmlns="http://www.w3.org/2000/svg" xmlns:xlink="http://www.w3.org/1999/xlink" width="500" zoomAndPan="magnify" viewBox="0 0 375 374.999991" height="500" preserveAspectRatio="xMidYMid meet" version="1.0"><defs><clipPath id="db71f9a63b"><path d="M 57.03125 18 L 324.03125 18 L 324.03125 334 L 57.03125 334 Z M 57.03125 18 " clip-rule="nonzero"/></clipPath></defs><g clip-path="url(#db71f9a63b)"><path fill="#000000" d="M 181.636719 18.054688 C 183.007812 18.382812 184.417969 18.316406 185.808594 18.484375 C 188.394531 18.792969 190.953125 19.175781 193.339844 20.324219 C 194.242188 20.757812 195.253906 20.8125 196.226562 20.96875 C 199.640625 21.511719 202.84375 22.601562 205.867188 24.324219 C 211.453125 27.511719 216.582031 31.304688 221.222656 35.761719 C 222.539062 37.019531 223.722656 38.398438 224.71875 39.929688 C 225.21875 40.695312 225.683594 41.488281 225.644531 42.445312 C 225.625 42.914062 225.929688 43.078125 226.25 43.28125 C 229.863281 45.625 233.199219 48.320312 236.277344 51.335938 C 239.675781 54.664062 242.460938 58.4375 244.210938 62.894531 C 245.527344 66.242188 246.597656 69.675781 247.257812 73.21875 C 248.339844 79.058594 248.597656 84.949219 248.335938 90.871094 C 247.957031 99.339844 247.898438 107.816406 248.136719 116.289062 C 248.28125 121.285156 248.417969 126.289062 248.734375 131.28125 C 248.945312 134.574219 249.460938 137.773438 251.417969 140.558594 C 251.539062 141.828125 252.492188 141.964844 253.492188 142.183594 C 256.316406 142.8125 259.035156 143.773438 261.691406 144.933594 C 264.992188 146.378906 267.824219 148.5 270.363281 151.015625 C 274.164062 154.773438 277.476562 158.9375 280.398438 163.417969 C 285.015625 170.503906 288.558594 178.140625 291.835938 185.917969 C 294.308594 191.78125 296.339844 197.8125 298.742188 203.699219 C 300.363281 207.671875 302.019531 211.636719 303.820312 215.535156 C 304.328125 216.632812 304.949219 217.582031 305.960938 218.339844 C 309.714844 221.171875 312.234375 224.851562 313.320312 229.472656 C 313.761719 231.363281 314.257812 233.242188 314.597656 235.152344 C 314.972656 237.265625 315.464844 239.359375 315.640625 241.507812 C 315.667969 241.839844 315.707031 242.191406 315.980469 242.414062 C 317.371094 243.539062 317.199219 244.996094 316.621094 246.359375 C 316.242188 247.253906 316.417969 247.800781 316.878906 248.574219 C 319.746094 253.410156 321.683594 258.617188 322.773438 264.136719 C 323.335938 266.976562 323.761719 269.832031 323.804688 272.738281 C 323.8125 273.097656 323.746094 273.492188 324.03125 273.796875 C 324.03125 275.78125 324.03125 277.765625 324.03125 279.75 C 323.863281 280.136719 323.820312 280.539062 323.804688 280.957031 C 323.636719 285.339844 322.484375 289.511719 321.058594 293.625 C 319.589844 297.875 316.421875 300.226562 312.191406 301.015625 C 308.785156 301.652344 305.5625 302.648438 302.488281 304.21875 C 297.957031 306.53125 293.074219 307.371094 288.058594 307.824219 C 282.367188 308.335938 276.898438 307.335938 271.414062 306.007812 C 267.230469 304.992188 263.132812 303.8125 259.253906 301.90625 C 258.257812 301.417969 257.195312 301.058594 256.164062 300.640625 C 254.429688 299.9375 252.625 299.867188 250.808594 300.105469 C 249.855469 300.230469 249 300.648438 248.175781 301.144531 C 245.226562 302.929688 242.605469 305.144531 240.1875 307.574219 C 237.554688 310.21875 234.753906 312.644531 231.625 314.683594 C 231.351562 314.859375 231.085938 315.050781 230.875 315.316406 C 227.769531 319.140625 224.195312 322.53125 220.691406 325.96875 C 217.878906 328.730469 214.496094 330.613281 210.570312 331.382812 C 210.246094 331.449219 209.925781 331.542969 209.617188 331.652344 C 209.15625 331.8125 208.6875 331.902344 208.417969 331.398438 C 208.152344 330.894531 208.464844 330.550781 208.878906 330.273438 C 209.246094 330.027344 209.632812 329.789062 209.886719 329.167969 C 209.484375 329.378906 209.210938 329.511719 208.945312 329.664062 C 206.664062 330.992188 204.203125 331.753906 201.59375 332.09375 C 200.277344 332.261719 199.011719 332.578125 197.871094 333.328125 C 196.554688 334.195312 195.0625 333.902344 193.660156 333.703125 C 192.671875 333.558594 192.214844 332.109375 192.664062 331.011719 C 193.042969 330.082031 193.695312 329.328125 194.386719 328.609375 C 195.417969 327.539062 196.464844 326.484375 197.5 325.417969 C 197.75 325.160156 198.046875 324.9375 198.082031 324.46875 C 197.75 324.726562 197.40625 324.976562 197.082031 325.246094 C 194.007812 327.816406 190.878906 330.3125 187.5 332.480469 C 186.804688 332.925781 186.109375 333.375 185.292969 333.570312 C 183.367188 334.035156 182.121094 333.109375 182.015625 331.136719 C 181.992188 330.769531 182.011719 330.394531 182.011719 329.890625 C 180.578125 329.804688 179.125 329.890625 177.664062 329.976562 C 170.910156 330.382812 164.1875 331.316406 157.40625 331.148438 C 148.652344 330.933594 139.921875 330.476562 131.335938 328.597656 C 129.480469 328.191406 127.613281 327.867188 125.730469 327.640625 C 122.378906 327.238281 119.164062 327.914062 115.960938 328.777344 C 113.96875 329.3125 112.011719 329.945312 109.996094 330.410156 C 107.304688 331.023438 104.664062 330.816406 102.019531 330.277344 C 93.578125 328.5625 85.605469 325.597656 78.246094 321.082031 C 72.945312 317.851562 68.304688 313.851562 64.597656 308.828125 C 62.136719 305.488281 60.367188 301.84375 59.679688 297.714844 C 59.417969 296.152344 59.476562 294.59375 59.761719 293.039062 C 59.339844 293.011719 59.136719 293.332031 58.835938 293.457031 C 58.089844 293.773438 57.554688 293.554688 57.261719 292.800781 C 57.097656 292.363281 57.105469 291.90625 57.097656 291.453125 C 57.03125 288.824219 57.578125 286.28125 58.15625 283.738281 C 59.097656 279.589844 60.308594 275.507812 61.398438 271.394531 C 62.542969 267.066406 63.269531 262.675781 63.777344 258.238281 C 64.097656 255.449219 64.558594 252.675781 64.980469 249.898438 C 65.070312 249.289062 65.238281 248.6875 65.410156 248.09375 C 65.804688 246.734375 66.648438 245.484375 66.382812 243.964844 C 66.355469 243.8125 66.417969 243.632812 66.480469 243.480469 C 67.425781 241.183594 67.894531 238.742188 68.648438 236.390625 C 68.777344 235.980469 68.769531 235.578125 68.765625 235.167969 C 68.738281 232.011719 68.328125 228.910156 67.386719 225.886719 C 66.585938 223.308594 66.164062 220.652344 66.027344 217.964844 C 65.839844 214.222656 66.617188 210.652344 68.089844 207.222656 C 69.5625 203.804688 71.328125 200.53125 73.324219 197.390625 C 74.34375 195.789062 75.355469 194.171875 76.445312 192.621094 C 78.871094 189.183594 80.707031 185.4375 82.066406 181.484375 C 84.570312 174.222656 88.75 168.179688 94.644531 163.269531 C 97.277344 161.074219 100.007812 158.996094 102.527344 156.667969 C 102.984375 156.25 103.433594 155.824219 103.886719 155.402344 C 105.378906 154.007812 106.445312 152.332031 106.769531 150.3125 C 107.339844 146.695312 109.203125 143.832031 111.828125 141.445312 C 115.390625 138.214844 117.972656 134.347656 119.726562 129.890625 C 120.640625 127.578125 121.8125 125.402344 123.292969 123.390625 C 124.074219 122.320312 124.660156 121.136719 125.195312 119.917969 C 125.804688 118.542969 125.796875 117.210938 125.144531 115.855469 C 124.609375 114.734375 124.058594 113.621094 123.625 112.464844 C 121.652344 107.1875 121.085938 101.882812 123.492188 96.5625 C 123.851562 95.773438 124.164062 94.960938 124.570312 94.195312 C 127.300781 89.09375 128.992188 83.625 130.402344 78.042969 C 131.980469 71.796875 133.554688 65.546875 135.824219 59.5 C 138.878906 51.347656 142.550781 43.511719 147.390625 36.253906 C 148.925781 33.945312 150.628906 31.765625 152.492188 29.710938 C 157.9375 23.695312 164.675781 20.097656 172.667969 18.820312 C 174.296875 18.558594 175.929688 18.304688 177.582031 18.234375 C 177.867188 18.222656 178.160156 18.214844 178.421875 18.066406 C 179.492188 18.054688 180.566406 18.054688 181.636719 18.054688 Z M 110.261719 270.773438 C 109.625 271.140625 108.921875 271.179688 108.21875 271.15625 C 107.0625 271.121094 105.90625 271.097656 104.757812 270.976562 C 103.304688 270.824219 101.964844 271.113281 100.703125 271.808594 C 98.941406 272.773438 97.417969 274.035156 96.265625 275.6875 C 93.679688 279.386719 93.984375 282.832031 97.4375 285.800781 C 100.070312 288.0625 103.027344 289.898438 106.058594 291.59375 C 107.113281 292.183594 108.257812 292.542969 109.492188 292.488281 C 112.566406 292.351562 115.554688 291.859375 118.375 290.542969 C 122.234375 288.734375 125.941406 286.667969 129.355469 284.101562 C 130.871094 282.957031 132.359375 281.777344 133.878906 280.636719 C 136.984375 278.308594 140.121094 276.023438 143.65625 274.359375 C 144.820312 273.8125 146.007812 273.363281 147.296875 273.21875 C 148.898438 273.035156 150.492188 272.84375 152.089844 272.671875 C 154.558594 272.414062 156.972656 271.902344 159.363281 271.242188 C 160.730469 270.867188 161.429688 271.5 161.351562 272.898438 C 161.304688 273.699219 161.015625 274.425781 160.707031 275.148438 C 159.496094 277.992188 157.59375 280.289062 155.175781 282.183594 C 154.039062 283.074219 152.894531 283.953125 151.773438 284.867188 C 150.214844 286.128906 149.242188 287.757812 148.679688 289.683594 C 147.550781 293.570312 147.738281 297.4375 148.636719 301.324219 C 149.21875 303.816406 150.625 305.695312 152.925781 306.777344 C 155.804688 308.140625 158.855469 309.03125 162 309.570312 C 162.058594 309.582031 162.132812 309.519531 162.195312 309.492188 C 160.402344 308.011719 160.230469 306.667969 161.582031 304.6875 C 162.167969 303.828125 162.878906 303.085938 163.703125 302.449219 C 165.046875 301.414062 166.457031 300.484375 167.914062 299.621094 C 171.175781 297.683594 174.539062 295.914062 177.746094 293.875 C 181.960938 291.191406 186.242188 288.617188 190.660156 286.285156 C 195.972656 283.480469 200.929688 280.148438 205.796875 276.660156 C 206.875 275.886719 207.859375 275.007812 208.703125 273.980469 C 208.953125 273.675781 209.269531 273.394531 209.320312 273.054688 C 209.210938 272.804688 209.074219 272.820312 208.964844 272.824219 C 206.15625 272.933594 203.351562 272.976562 200.566406 272.535156 C 200.132812 272.464844 199.761719 272.578125 199.382812 272.78125 C 197.710938 273.691406 195.894531 273.863281 194.089844 273.488281 C 190.480469 272.738281 187.234375 271.15625 184.324219 268.886719 C 184.128906 268.734375 183.953125 268.554688 183.789062 268.375 C 182.523438 266.96875 182.789062 265.480469 184.460938 264.625 C 185.125 264.285156 185.84375 264.089844 186.554688 263.878906 C 188.53125 263.292969 190.53125 262.769531 192.476562 262.09375 C 198.476562 260.007812 204.652344 259.632812 210.921875 260.066406 C 214.375 260.308594 217.820312 260.722656 221.292969 260.648438 C 223.148438 260.605469 225.007812 260.695312 226.859375 260.8125 C 230.730469 261.050781 234.597656 261.390625 238.464844 261.613281 C 244.894531 261.980469 251.335938 261.925781 257.761719 262.328125 C 263.484375 262.6875 269.207031 262.929688 274.878906 263.867188 C 279.367188 264.605469 283.804688 265.480469 288.097656 267.003906 C 289.574219 267.53125 291.09375 267.917969 292.625 268.253906 C 295.589844 268.894531 298.511719 268.851562 301.410156 267.847656 C 302.988281 267.304688 304.25 266.394531 305.238281 265.046875 C 306.125 263.839844 306.898438 262.574219 307.433594 261.179688 C 308.25 259.054688 309.207031 256.996094 310.210938 254.957031 C 310.863281 253.621094 311.421875 252.242188 311.882812 250.828125 C 312.246094 249.730469 312.542969 248.59375 313.128906 247.59375 C 314.226562 245.722656 314.460938 243.734375 314.179688 241.621094 C 313.945312 239.855469 313.527344 238.132812 313.113281 236.40625 C 311.941406 231.511719 309.675781 227.132812 306.78125 223.058594 C 306.179688 222.214844 305.472656 221.472656 304.714844 220.761719 C 301.082031 217.363281 296.734375 215.195312 292.109375 213.582031 C 287.945312 212.132812 283.703125 210.90625 279.558594 209.390625 C 276.578125 208.304688 273.476562 208.371094 270.382812 208.644531 C 269.773438 208.699219 269.15625 208.863281 268.585938 209.085938 C 266.976562 209.726562 265.402344 210.457031 263.910156 211.351562 C 263.308594 211.710938 262.726562 212.035156 262.6875 212.902344 C 262.667969 213.453125 262.195312 213.839844 261.785156 214.191406 C 260.972656 214.894531 260.09375 215.511719 259.183594 216.085938 C 258.070312 216.796875 256.988281 217.554688 255.957031 218.382812 C 254.945312 219.191406 254.066406 220.125 253.574219 221.339844 C 253.210938 222.238281 252.582031 222.738281 251.746094 223.199219 C 250.566406 223.851562 249.367188 224.398438 248.097656 224.851562 C 246.351562 225.480469 244.960938 226.667969 244.007812 228.296875 C 242.988281 230.046875 242.207031 231.917969 241.453125 233.796875 C 241.226562 234.367188 241.351562 234.640625 241.882812 234.832031 C 242.078125 234.902344 242.253906 235.011719 242.4375 235.105469 C 247.398438 237.5625 251.957031 240.5625 255.65625 244.753906 C 256.039062 245.183594 256.480469 245.566406 256.765625 246.078125 C 256.902344 246.320312 256.898438 246.546875 256.695312 246.753906 C 256.480469 246.972656 256.25 246.929688 256.023438 246.785156 C 255.886719 246.699219 255.769531 246.578125 255.644531 246.46875 C 254.171875 245.203125 252.679688 243.964844 251.242188 242.667969 C 248.070312 239.820312 244.40625 237.757812 240.585938 235.972656 C 237.929688 234.734375 235.125 234.488281 232.238281 235.09375 C 230.605469 235.433594 229.085938 236.050781 227.632812 236.84375 C 226.054688 237.703125 224.371094 238.203125 222.582031 238.410156 C 220.527344 238.648438 218.46875 238.660156 216.40625 238.59375 C 214.839844 238.542969 213.285156 238.511719 211.714844 238.746094 C 207.335938 239.402344 202.941406 239.625 198.542969 238.804688 C 198.382812 238.773438 198.214844 238.757812 198.054688 238.769531 C 194.753906 238.96875 191.925781 240.324219 189.480469 242.476562 C 188.019531 243.765625 187.496094 245.457031 187.726562 247.40625 C 187.90625 248.902344 188.59375 250.160156 189.460938 251.324219 C 190.546875 252.785156 191.710938 254.183594 192.820312 255.621094 C 193.707031 256.769531 193.453125 257.367188 192.011719 257.589844 C 191.890625 257.609375 191.765625 257.625 191.644531 257.628906 C 190.519531 257.671875 189.453125 257.988281 188.386719 258.316406 C 186.386719 258.929688 184.597656 259.9375 182.960938 261.222656 C 181.992188 261.984375 181.59375 261.855469 181.210938 260.671875 C 181.082031 260.28125 180.988281 259.875 180.871094 259.480469 C 179.230469 253.992188 175.992188 249.6875 171.21875 246.554688 C 168.757812 244.9375 166.027344 244.203125 163.089844 244.605469 C 158 245.296875 153.402344 247.253906 149.289062 250.320312 C 146.632812 252.296875 144.199219 254.53125 141.945312 256.960938 C 138.828125 260.324219 135.867188 263.824219 132.867188 267.289062 C 129.136719 271.597656 125.730469 276.179688 121.941406 280.441406 C 120.851562 281.667969 119.890625 281.875 118.441406 281.144531 C 117.582031 280.710938 116.847656 280.101562 116.199219 279.410156 C 114.449219 277.539062 112.722656 275.652344 111.242188 273.546875 C 110.636719 272.6875 110.179688 271.8125 110.230469 270.738281 C 110.902344 270.640625 111.558594 270.785156 112.332031 271.019531 C 112.773438 266.460938 112.664062 262.078125 111.171875 257.808594 C 111.128906 259.042969 111.226562 260.269531 111.257812 261.492188 C 111.328125 264.179688 110.855469 266.839844 110.742188 269.523438 C 110.726562 269.984375 110.585938 270.421875 110.261719 270.773438 Z M 141.539062 185.964844 C 143.417969 185.339844 145.058594 184.695312 146.652344 183.921875 C 149.15625 182.710938 151.074219 181 151.960938 178.207031 C 152.628906 176.105469 154.09375 175.441406 156.25 175.972656 C 156.925781 176.140625 157.550781 176.132812 158.179688 175.847656 C 158.703125 175.605469 159.269531 175.425781 159.742188 175.113281 C 161.546875 173.914062 163.578125 173.40625 165.675781 173.117188 C 170.570312 172.445312 174.730469 170.164062 178.613281 167.269531 C 179.105469 166.902344 179.527344 166.433594 179.964844 165.996094 C 181.863281 164.078125 183.050781 161.75 184.015625 159.25 C 184.832031 157.121094 187.148438 156.859375 188.460938 158.71875 C 188.867188 159.292969 189.164062 159.296875 189.636719 158.9375 C 192.101562 157.074219 193.554688 154.71875 193.203125 151.503906 C 193.128906 150.847656 193.019531 150.191406 192.855469 149.554688 C 191.535156 144.550781 189.800781 139.695312 187.707031 134.960938 C 186.40625 132.011719 185.234375 129.023438 184.449219 125.878906 C 183.566406 122.335938 183.570312 118.875 184.828125 115.394531 C 185.902344 112.402344 186.90625 109.382812 188.210938 106.480469 C 190.984375 100.320312 192.550781 93.863281 193.332031 87.160156 C 194.136719 80.265625 195.234375 73.410156 197.246094 66.738281 C 198.417969 62.847656 199.890625 59.078125 201.988281 55.59375 C 204.421875 51.542969 207.871094 48.613281 212.199219 46.722656 C 214.53125 45.703125 216.699219 46.046875 218.742188 47.523438 C 220.472656 48.769531 221.960938 50.257812 223.027344 52.101562 C 225.03125 55.585938 226.683594 59.226562 227.734375 63.125 C 228.371094 65.480469 228.644531 67.910156 229.097656 70.304688 C 229.964844 74.898438 230.554688 79.523438 230.773438 84.199219 C 230.824219 85.222656 230.683594 86.183594 230.105469 87.035156 C 229.84375 87.421875 229.710938 87.832031 229.601562 88.28125 C 229.398438 89.121094 229.160156 89.960938 228.867188 90.777344 C 228.542969 91.6875 228.375 92.609375 228.410156 93.570312 C 228.445312 94.523438 228.488281 95.46875 228.554688 96.417969 C 228.863281 100.875 228.246094 105.15625 226.195312 109.171875 C 225.292969 110.941406 224.328125 112.671875 223.289062 114.363281 C 221.734375 116.898438 220.140625 119.410156 218.851562 122.09375 C 216.324219 127.34375 213.726562 132.550781 211.289062 137.839844 C 208.859375 143.113281 200.21875 142.949219 200.601562 142.59375 C 198.894531 142.246094 199.886719 140.574219 200.523438 140.421875 C 202.308594 140 207.800781 141.121094 209.566406 137.109375 C 211.296875 133.867188 212.90625 130.5625 214.628906 127.316406 C 217.125 122.613281 219.324219 117.746094 222.148438 113.214844 C 223.195312 111.53125 224.210938 109.828125 225.082031 108.035156 C 225.679688 106.804688 226.179688 105.546875 226.492188 104.207031 C 227.210938 101.109375 227.351562 97.976562 226.886719 94.847656 C 226.40625 91.636719 227.753906 88.851562 228.761719 85.992188 C 228.960938 85.4375 229.167969 84.929688 229.125 84.351562 C 229.03125 82.953125 228.921875 81.550781 228.804688 80.152344 C 228.519531 76.683594 227.703125 73.300781 227.191406 69.871094 C 226.351562 64.21875 224.738281 58.84375 222.035156 53.792969 C 220.875 51.628906 219.3125 49.867188 217.351562 48.429688 C 216.09375 47.507812 214.726562 47.277344 213.25 47.773438 C 212.625 47.984375 211.996094 48.199219 211.410156 48.492188 C 207.78125 50.304688 204.828125 52.875 202.757812 56.398438 C 201.496094 58.542969 200.546875 60.832031 199.714844 63.171875 C 197.035156 70.691406 195.828125 78.53125 194.78125 86.402344 C 194.332031 89.800781 193.898438 93.203125 193.167969 96.554688 C 192.386719 100.160156 191 103.578125 189.648438 106.996094 C 188.285156 110.457031 187.03125 113.953125 186.011719 117.527344 C 185.585938 119.015625 185.429688 120.523438 185.578125 122.066406 C 185.917969 125.722656 186.921875 129.210938 188.449219 132.53125 C 190.351562 136.667969 191.898438 140.9375 193.367188 145.234375 C 194.089844 147.351562 194.707031 149.488281 194.917969 151.726562 C 195.238281 155.144531 192.917969 159.0625 189.800781 160.363281 C 188.820312 160.769531 188.4375 160.707031 187.898438 159.902344 C 187.476562 159.269531 187.003906 158.816406 186.1875 158.933594 C 185.382812 159.054688 185.359375 159.773438 185.175781 160.335938 C 184.164062 163.382812 182.589844 166.117188 180.105469 168.132812 C 176.140625 171.34375 171.710938 173.683594 166.5625 174.375 C 164.171875 174.699219 161.875 175.191406 159.851562 176.660156 C 158.65625 177.53125 157.273438 177.839844 155.746094 177.3125 C 154.597656 176.914062 153.855469 177.390625 153.417969 178.519531 C 153.324219 178.75 153.242188 178.984375 153.179688 179.222656 C 152.636719 181.34375 151.28125 182.851562 149.535156 184.0625 C 148.378906 184.867188 147.113281 185.480469 145.800781 185.984375 C 144.261719 186.578125 142.714844 187.15625 141.148438 187.671875 C 140.359375 187.929688 140.074219 188.386719 140.003906 189.199219 C 139.8125 191.507812 139.613281 193.808594 139.324219 196.109375 C 138.703125 201.042969 136.574219 205.144531 132.832031 208.421875 C 131.214844 209.835938 129.5625 211.203125 127.808594 212.445312 C 126.160156 213.621094 124.515625 214.800781 122.894531 216.007812 C 121.613281 216.960938 120.808594 218.183594 120.65625 219.835938 C 120.375 222.824219 119.207031 225.507812 117.613281 228.007812 C 113.269531 234.804688 107.683594 240.335938 100.78125 244.515625 C 100.453125 244.71875 100.023438 244.808594 99.824219 245.222656 C 100.164062 245.359375 100.445312 245.253906 100.726562 245.199219 C 102.421875 244.851562 104.113281 244.480469 105.816406 244.15625 C 109.257812 243.5 112.703125 242.871094 116.207031 242.558594 C 120.902344 242.140625 125.601562 242.136719 130.308594 242.191406 C 136.175781 242.269531 142.007812 242.792969 147.792969 243.796875 C 149.78125 244.144531 151.789062 244.472656 153.648438 245.292969 C 154.121094 245.5 154.457031 245.511719 154.902344 245.308594 C 156.902344 244.390625 159.019531 243.859375 161.160156 243.390625 C 165.722656 242.382812 169.824219 243.382812 173.539062 246.15625 C 177.90625 249.417969 180.757812 253.695312 182.113281 258.980469 C 182.210938 259.355469 182.257812 259.753906 182.558594 260.132812 C 185.371094 258.027344 188.511719 256.902344 191.867188 256.335938 C 191.738281 255.757812 191.382812 255.515625 191.121094 255.210938 C 189.9375 253.828125 188.753906 252.453125 187.796875 250.894531 C 185.699219 247.484375 186.007812 243.261719 189.890625 240.535156 C 190.972656 239.769531 192.121094 239.125 193.328125 238.582031 C 194.347656 238.121094 194.351562 238.113281 194.007812 237.03125 C 193.503906 235.457031 193 233.886719 192.472656 232.316406 C 192.238281 231.609375 192.039062 230.894531 191.925781 230.160156 C 191.847656 229.648438 191.839844 229.113281 192.429688 228.910156 C 192.960938 228.734375 193.261719 229.15625 193.511719 229.539062 C 193.871094 230.09375 194.226562 230.652344 194.535156 231.238281 C 195.039062 232.183594 195.507812 233.152344 195.984375 234.113281 C 196.371094 234.894531 196.785156 235.652344 197.363281 236.308594 C 197.726562 236.71875 198.097656 237.09375 198.730469 236.996094 C 199.019531 236.953125 199.324219 237.023438 199.492188 237.296875 C 199.804688 237.796875 200.308594 237.804688 200.800781 237.855469 C 203.1875 238.101562 205.589844 238.167969 207.96875 237.917969 C 211.539062 237.539062 215.09375 237.074219 218.699219 237.339844 C 219.269531 237.382812 219.855469 237.316406 220.429688 237.289062 C 222.894531 237.175781 225.253906 236.710938 227.378906 235.355469 C 228.214844 234.824219 229.128906 234.4375 230.0625 234.09375 C 232.988281 233.03125 235.941406 232.917969 238.941406 233.726562 C 240.3125 234.09375 240.410156 234.027344 240.996094 232.726562 C 241.167969 232.351562 241.308594 231.960938 241.480469 231.585938 C 242.507812 229.304688 243.410156 225.097656 247.507812 223.265625 C 248.492188 222.96875 249.5 222.730469 250.488281 222.449219 C 251.484375 222.164062 252.25 221.628906 252.664062 220.609375 C 253.21875 219.238281 254.148438 218.136719 255.359375 217.285156 C 256.574219 216.425781 257.796875 215.578125 259.007812 214.722656 C 259.714844 214.222656 260.410156 213.703125 260.976562 213.035156 C 261.320312 212.628906 261.339844 212.25 261.101562 211.789062 C 260.746094 211.097656 260.160156 210.628906 259.5625 210.203125 C 257.902344 209.019531 257.234375 207.398438 257.21875 205.402344 C 257.195312 202.464844 256.792969 199.558594 256.507812 196.636719 C 256.441406 195.941406 256.375 195.238281 256.46875 194.535156 C 256.523438 194.121094 256.753906 193.847656 257.199219 193.847656 C 257.582031 193.851562 257.808594 194.085938 257.902344 194.4375 C 257.953125 194.636719 257.964844 194.847656 258 195.050781 C 258.257812 196.683594 258.378906 198.332031 258.480469 199.980469 C 258.738281 204.105469 259.808594 207.949219 262.601562 211.167969 C 262.921875 211.132812 263.125 210.839844 263.402344 210.667969 C 265.46875 209.378906 267.496094 207.957031 270 207.699219 C 273.136719 207.371094 276.265625 207.535156 279.316406 208.441406 C 282.042969 209.246094 284.742188 210.160156 287.488281 210.890625 C 293.117188 212.394531 298.414062 214.609375 303.273438 217.84375 C 303.390625 217.921875 303.542969 218.0625 303.710938 217.808594 C 303.640625 217.652344 303.558594 217.464844 303.472656 217.289062 C 302.765625 215.796875 301.886719 214.386719 301.253906 212.859375 C 298.480469 206.183594 295.667969 199.53125 293.054688 192.789062 C 289.863281 184.542969 286.363281 176.425781 281.84375 168.792969 C 278.675781 163.441406 275.164062 158.347656 270.917969 153.796875 C 268.21875 150.90625 265.140625 148.484375 261.511719 146.851562 C 258.113281 145.320312 254.582031 144.207031 250.90625 143.546875 C 248.0625 143.035156 245.164062 142.917969 242.332031 142.339844 C 242.011719 142.273438 241.683594 142.210938 241.371094 142.113281 C 240.964844 141.992188 240.757812 141.691406 240.804688 141.265625 C 240.855469 140.832031 241.15625 140.625 241.566406 140.597656 C 241.8125 140.582031 242.0625 140.605469 242.308594 140.625 C 243.5 140.738281 244.691406 140.839844 245.878906 140.980469 C 247.136719 141.128906 248.382812 141.054688 249.707031 141.050781 C 249.621094 140.765625 249.613281 140.636719 249.546875 140.542969 C 247.664062 137.765625 247.183594 134.609375 247.011719 131.351562 C 246.746094 126.3125 246.828125 121.265625 246.625 116.226562 C 246.269531 107.339844 246.441406 98.453125 246.699219 89.566406 C 246.929688 81.632812 246.296875 73.792969 243.800781 66.1875 C 242.808594 63.148438 241.628906 60.183594 239.75 57.589844 C 237.070312 53.890625 233.871094 50.667969 230.15625 47.988281 C 228.746094 46.976562 227.367188 45.929688 225.894531 45.003906 C 224.933594 44.394531 224.074219 43.703125 224.183594 42.359375 C 224.222656 41.941406 223.9375 41.582031 223.71875 41.230469 C 223.042969 40.136719 222.242188 39.140625 221.347656 38.21875 C 216.394531 33.101562 210.730469 28.945312 204.480469 25.546875 C 201.652344 24.003906 198.699219 22.945312 195.527344 22.46875 C 194.214844 22.269531 192.945312 21.976562 191.746094 21.355469 C 190.941406 20.9375 190.050781 20.710938 189.160156 20.527344 C 183.722656 19.417969 178.273438 19.253906 172.804688 20.277344 C 164.5625 21.816406 157.609375 25.585938 152.25 32.15625 C 149.472656 35.566406 147.117188 39.25 145.015625 43.097656 C 139.894531 52.46875 136.191406 62.386719 133.652344 72.75 C 131.699219 80.707031 129.671875 88.628906 125.53125 95.804688 C 125.488281 95.875 125.464844 95.957031 125.433594 96.03125 C 124.703125 97.65625 123.964844 99.296875 123.726562 101.0625 C 123.226562 104.726562 123.644531 108.3125 125.019531 111.765625 C 125.558594 113.109375 126.105469 114.445312 126.65625 115.78125 C 127.042969 116.722656 127.140625 117.691406 126.996094 118.699219 C 126.71875 120.589844 125.859375 122.238281 124.769531 123.753906 C 123.125 126.046875 121.703125 128.453125 120.566406 131.039062 C 120.167969 131.941406 119.679688 132.8125 119.214844 133.6875 C 117.816406 136.335938 116.085938 138.742188 113.914062 140.816406 C 113.046875 141.644531 112.230469 142.519531 111.445312 143.425781 C 109.710938 145.4375 108.453125 147.644531 108.0625 150.332031 C 107.734375 152.601562 106.691406 154.5625 105.035156 156.171875 C 104.53125 156.660156 104.015625 157.136719 103.5 157.617188 C 100.851562 160.109375 97.851562 162.183594 95.082031 164.539062 C 89.898438 168.957031 86.089844 174.289062 83.90625 180.761719 C 82.441406 185.101562 80.308594 189.089844 77.722656 192.855469 C 75.964844 195.40625 74.277344 198.007812 72.78125 200.726562 C 71.089844 203.804688 69.535156 206.953125 68.535156 210.339844 C 67.0625 215.332031 67.46875 220.3125 68.699219 225.28125 C 68.761719 225.519531 68.648438 225.890625 69.140625 225.964844 C 69.140625 225.5625 69.136719 225.195312 69.140625 224.824219 C 69.234375 219.921875 70.230469 215.246094 72.476562 210.847656 C 73.375 209.085938 74.273438 207.308594 74.792969 205.378906 C 74.855469 205.144531 74.992188 204.925781 75.109375 204.707031 C 75.277344 204.398438 75.5 204.148438 75.894531 204.28125 C 76.226562 204.394531 76.269531 204.699219 76.253906 204.996094 C 76.226562 205.367188 76.191406 205.738281 76.132812 206.105469 C 75.742188 208.386719 75.945312 210.636719 76.527344 212.859375 C 77.554688 216.808594 79.203125 220.496094 81.210938 224.023438 C 82.664062 226.582031 83.902344 229.226562 84.914062 231.988281 C 85.691406 234.101562 86.082031 236.28125 86.171875 238.535156 C 86.28125 241.355469 85.304688 243.710938 83.277344 245.640625 C 82.742188 246.152344 82.148438 246.605469 81.582031 247.085938 C 81.371094 247.269531 81.0625 247.355469 80.96875 247.671875 C 81.265625 247.84375 81.523438 247.675781 81.785156 247.589844 C 84.019531 246.839844 85.933594 245.582031 87.578125 243.898438 C 88.996094 242.441406 89.726562 240.71875 89.835938 238.679688 C 90.03125 235.082031 89.257812 231.683594 87.765625 228.457031 C 86.074219 224.804688 85.464844 220.980469 85.59375 217 C 85.75 212.300781 87.632812 208.453125 91.296875 205.511719 C 93.867188 203.453125 96.738281 201.929688 99.855469 200.878906 C 102.082031 200.125 104.332031 199.429688 106.617188 198.882812 C 110.519531 197.949219 114.316406 196.71875 117.929688 194.945312 C 122.03125 192.929688 125.617188 190.292969 128.296875 186.523438 C 128.511719 186.222656 128.742188 185.921875 129.007812 185.667969 C 129.769531 184.9375 130.535156 185.09375 130.957031 186.074219 C 131.304688 186.886719 131.351562 187.75 131.296875 188.628906 C 131.1875 190.414062 130.539062 192 129.597656 193.492188 C 128 196.027344 126.03125 198.230469 123.734375 200.164062 C 121.027344 202.441406 117.988281 204.175781 114.875 205.804688 C 113.335938 206.609375 111.863281 207.519531 110.546875 208.664062 C 109.761719 209.347656 109.097656 210.136719 108.578125 211.035156 C 107.652344 212.625 107.84375 213.644531 109.300781 214.800781 C 110.113281 215.449219 111.023438 215.933594 111.976562 216.34375 C 112.582031 216.605469 113.203125 216.847656 113.761719 217.1875 C 114.960938 217.917969 115.472656 219.277344 115.066406 220.496094 C 114.714844 221.570312 114.007812 221.828125 113.101562 221.15625 C 112.421875 220.65625 111.691406 220.308594 110.882812 220.105469 C 110.398438 219.984375 109.9375 219.988281 109.558594 220.355469 C 109.730469 220.855469 110.113281 221.066406 110.386719 221.363281 C 111.410156 222.449219 111.59375 223.652344 111.003906 225.015625 C 110.421875 226.363281 109.488281 227.367188 108.207031 228.054688 C 107.550781 228.40625 106.867188 228.703125 106.230469 229.078125 C 104.691406 229.976562 103.628906 231.152344 103.578125 233.101562 C 103.519531 235.417969 102.3125 237.25 100.761719 238.867188 C 100.300781 239.351562 99.773438 239.78125 99.128906 239.957031 C 98.601562 240.097656 98.289062 240.429688 97.976562 240.824219 C 97.050781 242 96.425781 243.359375 95.648438 244.625 C 95.515625 244.839844 95.25 245.042969 95.4375 245.417969 C 95.855469 245.238281 96.234375 245.089844 96.605469 244.917969 C 104.179688 241.40625 110.113281 235.949219 114.925781 229.21875 C 117.101562 226.175781 118.828125 222.898438 119.339844 219.09375 C 119.550781 217.507812 120.457031 216.253906 121.675781 215.261719 C 122.664062 214.453125 123.707031 213.703125 124.742188 212.953125 C 127.050781 211.28125 129.332031 209.574219 131.429688 207.640625 C 134.507812 204.808594 136.773438 201.472656 137.738281 197.335938 C 138.066406 195.925781 138.363281 194.511719 138.515625 193.074219 C 138.625 192.042969 138.910156 191.003906 138.757812 189.769531 C 138.035156 190.386719 137.464844 190.90625 136.855469 191.382812 C 136.199219 191.898438 135.472656 192.296875 134.59375 192.234375 C 133.664062 192.171875 133.28125 191.550781 133.648438 190.6875 C 133.894531 190.105469 134.347656 189.671875 134.828125 189.273438 C 135.851562 188.417969 137.011719 187.761719 138.253906 187.324219 C 139.078125 187.03125 139.386719 186.523438 139.511719 185.722656 C 139.894531 183.273438 140.410156 180.847656 141.039062 178.449219 C 141.429688 176.972656 141.78125 175.5 141.863281 173.957031 C 141.972656 172.0625 142.636719 170.332031 143.753906 168.785156 C 144.046875 168.382812 144.347656 167.976562 144.777344 167.71875 C 145.367188 167.363281 145.875 167.667969 145.832031 168.355469 C 145.789062 169.066406 145.464844 169.707031 145.164062 170.339844 C 144.625 171.453125 144.0625 172.558594 143.519531 173.671875 C 143.25 174.234375 143.074219 174.824219 143.058594 175.457031 C 142.953125 178.941406 142.554688 182.378906 141.539062 185.964844 Z M 58.980469 291.15625 C 59.425781 290.765625 59.671875 290.550781 59.917969 290.339844 C 62.394531 288.210938 64.972656 286.210938 67.597656 284.28125 C 68.804688 283.394531 70.140625 282.746094 71.582031 282.335938 C 72.0625 282.199219 72.609375 282.070312 72.90625 282.628906 C 73.226562 283.230469 72.824219 283.664062 72.371094 283.980469 C 71.765625 284.40625 71.128906 284.792969 70.480469 285.148438 C 68.5625 286.207031 66.617188 287.226562 64.9375 288.644531 C 62.167969 290.984375 60.953125 293.933594 61.671875 297.582031 C 62.421875 301.390625 64.105469 304.753906 66.421875 307.832031 C 70.101562 312.726562 74.703125 316.570312 79.921875 319.691406 C 87.496094 324.226562 95.660156 327.277344 104.234375 329.265625 C 106.308594 329.746094 108.320312 330.066406 110.503906 329.207031 C 113.140625 328.167969 115.980469 327.675781 118.691406 326.828125 C 120.902344 326.128906 123.132812 325.953125 125.414062 326.160156 C 126.441406 326.253906 127.476562 326.34375 128.480469 326.554688 C 136.546875 328.214844 144.714844 328.941406 152.925781 329.3125 C 160.527344 329.65625 168.097656 329.253906 175.667969 328.53125 C 177.921875 328.316406 180.148438 327.8125 182.429688 327.882812 C 182.921875 327.898438 183.054688 327.570312 183.234375 327.25 C 183.902344 326.0625 184.527344 324.851562 185.238281 323.691406 C 187.136719 320.589844 188.929688 317.429688 190.722656 314.269531 C 190.921875 313.925781 191.203125 313.597656 191.183594 313.128906 C 191.050781 313.097656 190.9375 313.054688 190.832031 313.054688 C 185.050781 313.070312 179.277344 312.824219 173.503906 312.679688 C 169.625 312.585938 165.753906 312.484375 161.957031 311.511719 C 158.757812 310.6875 155.578125 309.816406 152.5625 308.445312 C 150.300781 307.414062 148.609375 305.789062 147.539062 303.523438 C 147.054688 302.507812 146.800781 301.421875 146.566406 300.332031 C 145.707031 296.296875 145.691406 292.300781 147.035156 288.347656 C 147.664062 286.5 148.636719 284.914062 150.179688 283.695312 C 151.445312 282.699219 152.65625 281.636719 153.964844 280.699219 C 156.292969 279.019531 157.800781 276.75 158.914062 274.171875 C 159.023438 273.921875 159.210938 273.671875 159.035156 273.398438 C 158.847656 273.289062 158.6875 273.347656 158.535156 273.394531 C 155.597656 274.308594 152.5625 274.675781 149.507812 274.75 C 146.964844 274.808594 144.617188 275.394531 142.445312 276.699219 C 141.382812 277.335938 140.316406 277.964844 139.285156 278.644531 C 136.730469 280.324219 134.320312 282.203125 131.90625 284.078125 C 127.980469 287.121094 123.8125 289.777344 119.359375 291.992188 C 117.425781 292.953125 115.417969 293.636719 113.300781 294.082031 C 110.128906 294.75 107.171875 294.417969 104.390625 292.652344 C 102.019531 291.148438 99.648438 289.644531 97.414062 287.945312 C 96.183594 287.007812 95.222656 285.839844 94.363281 284.554688 C 93.101562 282.667969 92.878906 280.632812 93.40625 278.5 C 94.132812 275.5625 95.996094 273.375 98.273438 271.511719 C 100.5 269.691406 103.019531 268.910156 105.894531 269.417969 C 106.746094 269.570312 107.613281 269.664062 108.472656 269.742188 C 109.4375 269.828125 109.539062 269.753906 109.617188 268.785156 C 109.824219 266.3125 110.121094 263.851562 110.003906 261.363281 C 109.925781 259.628906 109.835938 257.898438 109.753906 256.164062 C 109.691406 254.882812 109.679688 253.601562 109.097656 252.410156 C 109.011719 252.226562 108.964844 252.015625 108.941406 251.8125 C 108.898438 251.460938 109 251.140625 109.351562 250.992188 C 109.753906 250.820312 110.070312 250.984375 110.304688 251.328125 C 110.398438 251.464844 110.464844 251.617188 110.539062 251.765625 C 112.488281 255.855469 113.996094 260.082031 114.457031 264.617188 C 114.648438 266.5 114.988281 268.390625 114.503906 270.292969 C 114.265625 271.226562 114.035156 272.148438 113.03125 272.695312 C 114.753906 274.996094 116.574219 277.125 118.730469 278.9375 C 120.03125 280.03125 120.320312 279.9375 121.464844 278.613281 C 123.875 275.835938 126.117188 272.921875 128.433594 270.066406 C 132.988281 264.453125 137.71875 258.984375 142.851562 253.886719 C 145.726562 251.03125 148.773438 248.367188 152.414062 246.488281 C 152.554688 246.417969 152.71875 246.335938 152.644531 246.039062 C 150.492188 245.929688 148.378906 245.359375 146.234375 245.019531 C 138.875 243.871094 131.472656 243.429688 124.027344 243.671875 C 120.027344 243.804688 116.03125 244.066406 112.074219 244.679688 C 105.917969 245.636719 99.84375 247.011719 93.734375 248.214844 C 93.265625 248.308594 92.898438 248.480469 92.570312 248.832031 C 89.179688 252.425781 84.746094 253.910156 80.109375 254.964844 C 79.265625 255.15625 78.398438 255.21875 77.523438 255.199219 C 76.976562 255.1875 76.449219 255.097656 75.957031 254.875 C 75.023438 254.449219 74.777344 253.59375 75.328125 252.722656 C 75.710938 252.109375 76.289062 251.707031 76.925781 251.390625 C 77.609375 251.050781 78.300781 250.730469 78.988281 250.402344 C 76.761719 250.488281 74.609375 250.125 72.441406 250.011719 C 70.796875 249.929688 69.394531 249.371094 68.257812 248.160156 C 68.019531 247.90625 67.855469 247.523438 67.316406 247.503906 C 67.199219 247.964844 67.054688 248.429688 66.964844 248.902344 C 66.382812 251.90625 66.101562 254.953125 65.753906 257.988281 C 65.191406 262.921875 64.371094 267.804688 63.070312 272.597656 C 61.890625 276.941406 60.5625 281.246094 59.648438 285.660156 C 59.289062 287.390625 58.917969 289.121094 58.980469 291.15625 Z M 185.246094 266.773438 C 185.449219 267.246094 185.773438 267.445312 186.070312 267.660156 C 188.441406 269.367188 191.046875 270.578125 193.859375 271.335938 C 195.613281 271.8125 197.292969 271.71875 198.863281 270.726562 C 199.449219 270.351562 200.078125 270.25 200.757812 270.335938 C 203.671875 270.722656 206.59375 270.816406 209.527344 270.78125 C 210.3125 270.773438 211.152344 270.742188 211.601562 271.578125 C 212.078125 272.472656 211.535156 273.191406 211.023438 273.828125 C 209.808594 275.34375 208.539062 276.84375 206.960938 277.984375 C 203.082031 280.785156 199.300781 283.738281 195.027344 285.953125 C 187.554688 289.828125 180.15625 293.84375 173.027344 298.339844 C 170.511719 299.925781 167.949219 301.429688 165.523438 303.148438 C 164.679688 303.746094 163.839844 304.359375 163.242188 305.21875 C 162.78125 305.882812 162.0625 306.570312 162.53125 307.4375 C 162.972656 308.253906 163.917969 308.242188 164.742188 308.242188 C 166.152344 308.25 167.53125 307.980469 168.894531 307.644531 C 171.878906 306.917969 174.65625 305.648438 177.46875 304.460938 C 182.527344 302.324219 187.667969 300.421875 193.046875 299.242188 C 193.730469 299.09375 194.4375 298.988281 195.132812 298.992188 C 196.832031 299.003906 197.90625 300.0625 198.015625 301.757812 C 198.054688 302.335938 198 302.910156 197.835938 303.472656 C 197.589844 304.3125 197.230469 305.097656 196.804688 305.855469 C 193.273438 312.070312 189.867188 318.351562 186.195312 324.484375 C 185.304688 325.976562 184.589844 327.558594 183.90625 329.152344 C 183.660156 329.730469 183.539062 330.335938 183.566406 330.964844 C 183.617188 332.171875 184.34375 332.691406 185.480469 332.242188 C 186.050781 332.023438 186.574219 331.660156 187.078125 331.304688 C 189.648438 329.5 192.101562 327.539062 194.5 325.519531 C 198.085938 322.503906 201.367188 319.199219 203.761719 315.109375 C 204.234375 314.300781 204.605469 314.113281 204.964844 314.421875 C 205.527344 314.902344 205.160156 315.394531 204.910156 315.859375 C 203.976562 317.609375 203.023438 319.347656 202.097656 321.101562 C 201.070312 323.050781 199.820312 324.835938 198.3125 326.441406 C 197.292969 327.523438 196.277344 328.609375 195.257812 329.695312 C 194.71875 330.273438 194.242188 330.894531 193.925781 331.621094 C 193.734375 332.066406 193.886719 332.394531 194.386719 332.371094 C 195.609375 332.3125 196.875 332.546875 198.027344 331.914062 C 199.054688 331.347656 200.164062 331.058594 201.304688 330.832031 C 205.855469 329.921875 209.71875 327.824219 212.863281 324.351562 C 215.070312 321.921875 217.011719 319.320312 218.648438 316.480469 C 219.066406 315.75 219.433594 315.542969 219.863281 315.773438 C 220.292969 316.007812 220.316406 316.375 219.941406 317.195312 C 219.632812 317.871094 219.28125 318.527344 219 319.214844 C 217.558594 322.695312 215.511719 325.769531 212.871094 328.449219 C 212.660156 328.660156 212.335938 328.832031 212.351562 329.242188 C 212.746094 329.269531 213.078125 329.101562 213.414062 328.972656 C 215.878906 328.035156 218.074219 326.65625 219.925781 324.789062 C 222.078125 322.617188 224.199219 320.414062 226.261719 318.15625 C 227.941406 316.324219 229.765625 314.667969 231.757812 313.179688 C 234 311.492188 236.1875 309.726562 238.167969 307.726562 C 240.820312 305.050781 243.71875 302.664062 246.679688 300.339844 C 249.648438 298.011719 252.886719 297.683594 256.371094 298.8125 C 257.824219 299.285156 259.25 299.839844 260.625 300.503906 C 263.914062 302.09375 267.351562 303.222656 270.914062 303.988281 C 273.574219 304.5625 276.164062 305.476562 278.875 305.796875 C 284.417969 306.453125 289.914062 306.015625 295.367188 304.929688 C 298.386719 304.328125 301.167969 303.046875 303.914062 301.710938 C 305.96875 300.714844 308.101562 299.980469 310.347656 299.5625 C 311.609375 299.332031 312.828125 298.949219 314.046875 298.5625 C 316.683594 297.726562 318.402344 296.003906 319.324219 293.410156 C 320.648438 289.699219 321.59375 285.910156 322.074219 281.992188 C 322.660156 277.214844 322.09375 272.496094 321.421875 267.789062 C 320.488281 261.253906 318.222656 255.15625 315.046875 249.394531 C 314.894531 249.125 314.859375 248.738281 314.417969 248.671875 C 313.78125 251.542969 312.867188 254.324219 311.570312 256.972656 C 310.957031 258.230469 310.324219 259.488281 309.722656 260.757812 C 308.921875 262.445312 307.933594 264.003906 306.75 265.457031 C 303.914062 268.953125 300.222656 270.535156 295.78125 270.351562 C 293.125 270.242188 290.546875 269.621094 288.046875 268.753906 C 284.449219 267.507812 280.785156 266.605469 277.035156 265.949219 C 271.949219 265.058594 266.839844 264.421875 261.691406 264.125 C 255.179688 263.753906 248.667969 263.453125 242.144531 263.417969 C 239.585938 263.402344 237.035156 263.222656 234.488281 262.988281 C 230.007812 262.582031 225.523438 262.25 221.015625 262.453125 C 217.710938 262.601562 214.421875 262.320312 211.132812 262.011719 C 207.554688 261.675781 203.957031 261.535156 200.394531 262.132812 C 198.195312 262.5 196.078125 263.222656 193.988281 263.992188 C 191.699219 264.835938 189.390625 265.59375 187.011719 266.121094 C 186.410156 266.253906 185.792969 266.363281 185.246094 266.773438 Z M 113.691406 219.796875 C 113.550781 218.761719 112.949219 218.480469 112.332031 218.222656 C 110.960938 217.652344 109.589844 217.082031 108.324219 216.289062 C 105.855469 214.734375 105.320312 212.554688 106.816406 210.039062 C 107.71875 208.523438 108.957031 207.320312 110.371094 206.285156 C 111.910156 205.15625 113.578125 204.25 115.269531 203.394531 C 118.351562 201.835938 121.121094 199.832031 123.726562 197.59375 C 125.980469 195.664062 127.652344 193.246094 129.023438 190.632812 C 129.554688 189.628906 129.839844 188.527344 129.5625 187.132812 C 128.730469 188.152344 128.027344 189 127.339844 189.859375 C 125.210938 192.507812 122.640625 194.601562 119.597656 196.117188 C 116.449219 197.679688 113.199219 198.988281 109.796875 199.882812 C 106.765625 200.683594 103.746094 201.519531 100.800781 202.601562 C 97.675781 203.746094 94.773438 205.285156 92.179688 207.386719 C 89.964844 209.1875 88.402344 211.429688 87.828125 214.265625 C 87.332031 216.714844 87.386719 219.199219 87.644531 221.675781 C 87.863281 223.789062 88.570312 225.773438 89.339844 227.738281 C 90.5625 230.871094 91.417969 234.089844 91.636719 237.46875 C 91.824219 240.398438 90.988281 242.925781 88.898438 245.019531 C 87.960938 245.957031 86.957031 246.808594 85.847656 247.539062 C 85.582031 247.710938 85.230469 247.792969 85.097656 248.144531 C 85.175781 248.175781 85.246094 248.234375 85.308594 248.226562 C 87.761719 247.878906 90.175781 247.359375 92.53125 246.570312 C 93 246.414062 93.292969 246.101562 93.535156 245.707031 C 94.222656 244.625 94.902344 243.542969 95.585938 242.460938 C 96.605469 240.851562 97.664062 239.273438 99.230469 238.125 C 99.390625 238.003906 99.527344 237.835938 99.632812 237.664062 C 100.566406 236.148438 101.546875 234.65625 101.753906 232.828125 C 102.027344 230.433594 103.460938 228.871094 105.429688 227.695312 C 106.210938 227.230469 107 226.78125 107.765625 226.296875 C 108.597656 225.769531 109.152344 225.015625 109.515625 224.105469 C 109.757812 223.507812 109.691406 222.980469 109.199219 222.527344 C 108.863281 222.222656 108.523438 221.917969 108.234375 221.566406 C 107.355469 220.496094 107.6875 219.285156 108.984375 218.789062 C 110.058594 218.371094 111.09375 218.578125 112.105469 219.023438 C 112.597656 219.230469 113.058594 219.480469 113.691406 219.796875 Z M 74.15625 209.679688 C 73.984375 209.875 73.875 209.945312 73.835938 210.050781 C 72.609375 213.207031 71.378906 216.359375 70.988281 219.761719 C 70.675781 222.519531 70.511719 225.265625 70.9375 228.035156 C 71.394531 230.980469 71.449219 233.953125 71.203125 236.929688 C 71.074219 238.507812 70.640625 239.933594 69.308594 240.933594 C 69.046875 241.125 68.96875 241.375 68.898438 241.65625 C 68.707031 242.378906 68.503906 243.09375 68.308594 243.804688 C 68.050781 244.742188 68.285156 245.523438 69.074219 246.109375 C 69.46875 246.402344 69.886719 246.671875 70.292969 246.953125 C 71.269531 247.632812 72.460938 247.9375 73.335938 248.816406 C 73.785156 249.265625 74.679688 249.015625 75.105469 248.441406 C 75.421875 248.011719 75.867188 247.835938 76.324219 247.636719 C 78.328125 246.757812 80.316406 245.859375 81.972656 244.371094 C 83.449219 243.042969 84.359375 241.453125 84.410156 239.414062 C 84.457031 237.457031 84.238281 235.539062 83.703125 233.65625 C 82.800781 230.5 81.425781 227.550781 79.742188 224.742188 C 78.765625 223.113281 77.871094 221.445312 77.121094 219.691406 C 75.753906 216.507812 74.476562 213.296875 74.15625 209.679688 Z M 164.964844 309.910156 C 165.011719 310.214844 165.199219 310.207031 165.351562 310.226562 C 166.375 310.335938 167.398438 310.484375 168.429688 310.527344 C 175.070312 310.796875 181.710938 310.925781 188.355469 310.992188 C 189.503906 311.003906 190.671875 310.878906 191.796875 311.238281 C 192.277344 311.386719 192.464844 311.09375 192.648438 310.742188 C 193.75 308.613281 194.875 306.5 195.960938 304.363281 C 196.273438 303.742188 196.503906 303.070312 196.527344 302.347656 C 196.570312 301.042969 196.058594 300.515625 194.773438 300.5625 C 194.445312 300.574219 194.113281 300.605469 193.789062 300.667969 C 191.847656 301.046875 189.921875 301.507812 188.066406 302.214844 C 184.289062 303.652344 180.507812 305.082031 176.800781 306.703125 C 173.535156 308.128906 170.175781 309.234375 166.625 309.691406 C 166.070312 309.765625 165.515625 309.839844 164.964844 309.910156 Z M 90.441406 248.851562 C 90.007812 248.945312 89.574219 249.023438 89.144531 249.136719 C 86.4375 249.839844 83.726562 250.535156 81.027344 251.265625 C 79.878906 251.574219 78.730469 251.914062 77.648438 252.433594 C 77.238281 252.625 76.828125 252.828125 76.5 253.148438 C 76.125 253.515625 76.199219 253.816406 76.714844 253.917969 C 77.410156 254.054688 78.109375 253.964844 78.804688 253.875 C 81.6875 253.5 84.414062 252.589844 87.046875 251.386719 C 88.3125 250.804688 89.492188 250.058594 90.441406 248.851562 Z M 134.699219 191.335938 C 136.132812 190.90625 137.03125 190.097656 137.980469 189.089844 C 136.449219 189.527344 135.445312 190.195312 134.699219 191.335938 Z M 311.21875 227.851562 C 310.757812 226.058594 309.902344 224.5 308.539062 223.242188 C 309.429688 224.78125 310.324219 226.316406 311.21875 227.851562 Z M 194.996094 235.648438 C 195.199219 236.402344 195.320312 236.910156 195.480469 237.414062 C 195.5625 237.667969 195.804688 237.621094 195.996094 237.554688 C 196.261719 237.460938 196.242188 237.253906 196.097656 237.074219 C 195.773438 236.664062 195.589844 236.140625 194.996094 235.648438 Z M 194.996094 235.648438 " fill-opacity="1" fill-rule="nonzero"/></g></svg>