<svg xmlns="http://www.w3.org/2000/svg" xmlns:xlink="http://www.w3.org/1999/xlink" width="672" zoomAndPan="magnify" viewBox="0 0 504 359.999987" height="480" preserveAspectRatio="xMidYMid meet" version="1.0"><defs><g/></defs><rect x="-50.4" width="604.8" fill="#ffffff" y="-35.999999" height="431.999984" fill-opacity="1"/><rect x="-50.4" width="604.8" fill="#ffffff" y="-35.999999" height="431.999984" fill-opacity="1"/><g fill="#000000" fill-opacity="1"><g transform="translate(36.100481, 242.483238)"><g><path d="M 146.5625 -55.066406 C 145.148438 -55.914062 143.453125 -56.476562 142.042969 -56.476562 C 140.914062 -56.476562 139.785156 -56.195312 138.371094 -55.347656 C 131.875 -51.113281 123.6875 -47.441406 116.0625 -47.441406 C 110.980469 -47.441406 106.460938 -48.855469 102.226562 -51.960938 C 94.601562 -56.476562 96.011719 -55.914062 98.273438 -63.253906 C 108.4375 -92.625 116.628906 -121.710938 119.734375 -153.054688 C 120.582031 -160.964844 121.144531 -168.871094 119.734375 -176.777344 C 118.320312 -184.964844 111.261719 -192.308594 102.507812 -192.308594 C 83.023438 -192.308594 73.421875 -142.324219 71.164062 -126.792969 C 69.1875 -112.390625 69.1875 -98.554688 73.421875 -84.152344 C 75.679688 -75.964844 78.503906 -67.773438 84.433594 -60.996094 C 86.410156 -58.738281 86.976562 -56.195312 85.566406 -53.089844 C 79.917969 -38.6875 73.703125 -25.132812 66.644531 -11.578125 C 65.230469 -8.472656 55.914062 5.648438 52.808594 5.648438 C 48.007812 5.648438 32.476562 -37.277344 30.78125 -43.488281 C 24.285156 -65.230469 20.050781 -87.542969 16.660156 -110.132812 C 13.554688 -131.59375 11.859375 -152.207031 13.835938 -173.671875 L 13.835938 -176.496094 C 13.554688 -179.035156 11.859375 -180.449219 9.035156 -180.449219 C 7.90625 -180.730469 7.058594 -179.601562 6.496094 -177.058594 C 6.496094 -176.210938 6.210938 -175.363281 6.210938 -174.519531 C 4.800781 -165.480469 4.800781 -156.445312 4.800781 -144.019531 C 4.519531 -134.136719 5.929688 -121.144531 7.34375 -107.875 C 11.859375 -70.316406 19.765625 -33.039062 37.839844 0.847656 C 41.792969 7.90625 47.441406 11.578125 55.066406 11.578125 C 64.386719 11.578125 75.117188 -8.1875 77.941406 -15.53125 L 92.625 -48.289062 C 93.753906 -50.265625 94.601562 -51.394531 94.882812 -51.394531 C 95.449219 -51.394531 96.296875 -51.113281 97.707031 -50.265625 C 105.332031 -46.59375 115.78125 -42.359375 124.535156 -42.359375 C 133.289062 -42.359375 140.347656 -46.3125 146.84375 -52.808594 C 147.691406 -53.65625 147.691406 -54.5 146.5625 -55.066406 Z M 79.351562 -121.992188 C 81.609375 -138.089844 87.824219 -180.449219 105.898438 -187.226562 C 106.742188 -187.226562 106.742188 -187.507812 107.027344 -187.507812 C 110.699219 -187.507812 112.390625 -174.800781 112.390625 -172.257812 L 112.390625 -162.09375 C 109.851562 -130.183594 101.660156 -100.25 91.496094 -70.03125 C 91.210938 -68.902344 90.929688 -68.054688 90.648438 -67.773438 C 90.367188 -67.210938 90.082031 -66.925781 89.519531 -66.925781 C 88.105469 -66.925781 85.566406 -72.855469 85.28125 -74.269531 C 79.632812 -90.082031 77.09375 -105.332031 79.351562 -121.992188 Z M 79.351562 -121.992188 "/></g></g></g><g fill="#000000" fill-opacity="1"><g transform="translate(175.036813, 242.483238)"><g><path d="M 75.964844 -33.320312 C 67.492188 -22.589844 51.394531 -9.601562 37.277344 -9.601562 C 27.390625 -9.601562 18.636719 -20.050781 13.835938 -27.957031 C 10.730469 -33.320312 8.753906 -38.96875 9.035156 -45.464844 C 9.035156 -47.722656 9.320312 -48.570312 12.425781 -48.289062 C 24.566406 -48.289062 34.453125 -55.066406 37.558594 -67.210938 C 38.96875 -71.726562 37.277344 -74.832031 32.757812 -76.808594 C 29.933594 -77.941406 27.390625 -78.503906 24.851562 -78.503906 C 9.882812 -78.503906 0.847656 -61.5625 0 -48.289062 C 0 -27.109375 22.027344 -5.929688 42.921875 -5.929688 C 65.796875 -5.929688 87.257812 -31.910156 96.296875 -50.832031 C 96.859375 -52.242188 96.578125 -53.089844 95.730469 -53.9375 C 94.882812 -54.5 94.035156 -54.785156 93.1875 -54.785156 C 92.625 -54.785156 92.058594 -54.5 91.496094 -53.9375 C 90.082031 -52.523438 88.953125 -51.113281 87.824219 -49.136719 C 83.585938 -43.769531 80.199219 -38.6875 75.964844 -33.320312 Z M 9.601562 -52.808594 C 11.011719 -60.996094 19.765625 -74.832031 29.652344 -74.832031 C 31.628906 -74.832031 32.757812 -73.421875 32.757812 -70.316406 C 31.628906 -58.171875 22.875 -52.242188 11.859375 -50.265625 C 9.882812 -49.984375 9.320312 -50.832031 9.601562 -52.808594 Z M 9.601562 -52.808594 "/></g></g></g><g fill="#000000" fill-opacity="1"><g transform="translate(263.425173, 242.483238)"><g><path d="M 68.902344 2.542969 C 89.519531 2.542969 112.109375 -33.320312 120.296875 -49.984375 C 120.863281 -51.394531 120.582031 -52.242188 119.167969 -52.808594 C 117.757812 -53.65625 116.910156 -53.9375 116.0625 -53.9375 C 114.652344 -53.9375 113.804688 -53.089844 112.957031 -51.675781 L 105.050781 -39.253906 C 97.425781 -25.699219 80.199219 -1.695312 62.972656 -1.695312 C 47.722656 -1.695312 37.558594 -24.851562 35.300781 -37.277344 C 34.453125 -42.640625 34.167969 -48.289062 33.320312 -53.9375 C 29.933594 -56.195312 28.523438 -57.324219 25.414062 -57.324219 C 24.285156 -57.324219 22.589844 -57.042969 20.613281 -56.476562 C 17.507812 -55.632812 14.964844 -55.914062 11.859375 -55.914062 C 11.011719 -55.632812 10.449219 -56.476562 10.730469 -57.324219 C 12.707031 -62.691406 13.554688 -68.339844 14.683594 -73.703125 C 16.660156 -85.28125 12.707031 -91.496094 2.257812 -95.730469 C 0.566406 -96.578125 -1.128906 -96.859375 -3.105469 -96.859375 C -5.648438 -96.859375 -8.1875 -96.011719 -10.730469 -94.320312 C -20.332031 -86.976562 -23.722656 -67.492188 -10.730469 -59.019531 C -9.035156 -57.890625 -7.34375 -56.761719 -5.367188 -55.914062 C -2.824219 -53.9375 0.566406 -53.371094 2.824219 -50.832031 C 3.105469 -50.546875 3.671875 -50.265625 4.800781 -50.265625 L 5.929688 -50.265625 C 7.90625 -50.546875 9.882812 -50.546875 11.859375 -50.546875 L 15.8125 -50.546875 C 18.355469 -50.546875 20.898438 -50.265625 23.4375 -51.113281 C 25.414062 -51.113281 26.261719 -50.265625 26.542969 -48.289062 C 26.828125 -46.03125 27.109375 -44.054688 27.109375 -42.078125 C 28.523438 -21.179688 47.160156 2.542969 68.902344 2.542969 Z M -4.519531 -89.800781 C -2.257812 -91.777344 0 -92.90625 1.976562 -92.90625 C 7.34375 -92.90625 8.753906 -83.585938 8.753906 -79.351562 C 8.753906 -75.679688 7.625 -55.914062 1.976562 -55.914062 C -2.542969 -55.914062 -5.929688 -58.453125 -8.472656 -62.125 C -14.121094 -70.316406 -12.425781 -83.871094 -4.519531 -89.800781 Z M -4.519531 -89.800781 "/></g></g></g><g fill="#000000" fill-opacity="1"><g transform="translate(375.252012, 242.483238)"><g><path d="M 6.496094 -78.503906 C 3.390625 -74.269531 2.824219 -69.1875 4.234375 -63.539062 C 5.367188 -60.996094 5.367188 -58.171875 3.953125 -55.066406 C 2.542969 -51.960938 1.976562 -48.007812 1.976562 -43.769531 C 1.128906 -32.757812 7.34375 -23.722656 17.507812 -19.203125 C 19.484375 -18.355469 21.460938 -17.789062 23.722656 -17.789062 C 30.78125 -17.789062 37.277344 -23.722656 40.945312 -29.367188 C 41.792969 -30.78125 42.921875 -31.34375 44.054688 -31.34375 C 44.335938 -31.34375 44.617188 -31.0625 45.464844 -31.0625 C 49.984375 -29.933594 54.785156 -29.652344 59.585938 -29.367188 C 64.101562 -30.214844 68.621094 -29.652344 72.855469 -31.0625 C 81.894531 -34.167969 97.144531 -42.640625 100.8125 -52.523438 C 100.8125 -53.371094 101.097656 -53.65625 100.8125 -54.5 C 99.964844 -56.476562 97.988281 -57.324219 96.011719 -57.324219 C 95.164062 -57.324219 94.320312 -57.042969 93.753906 -56.476562 C 91.777344 -55.066406 90.648438 -53.65625 89.234375 -52.242188 C 80.199219 -42.359375 66.363281 -35.300781 52.808594 -35.300781 C 50.832031 -35.300781 49.699219 -35.582031 47.722656 -35.582031 C 47.441406 -35.582031 47.441406 -35.582031 47.160156 -35.863281 C 45.746094 -36.144531 45.183594 -36.992188 45.464844 -38.121094 L 46.59375 -42.078125 C 48.570312 -48.570312 49.136719 -54.5 48.289062 -60.996094 C 47.441406 -73.703125 39.816406 -77.65625 29.933594 -83.023438 C 26.542969 -84.433594 23.4375 -85.28125 20.332031 -85.28125 C 14.683594 -85.28125 9.882812 -83.871094 6.496094 -78.503906 Z M 27.957031 -79.351562 C 38.6875 -79.351562 41.511719 -65.515625 41.511719 -57.042969 C 41.511719 -53.9375 40.097656 -38.121094 35.582031 -38.121094 C 30.214844 -38.121094 14.964844 -52.808594 14.964844 -60.433594 C 14.964844 -62.691406 12.988281 -64.949219 13.835938 -68.054688 C 15.25 -75.117188 20.332031 -79.351562 27.957031 -79.351562 Z M 11.859375 -49.984375 C 12.988281 -49.984375 13.554688 -49.699219 14.402344 -48.855469 C 20.050781 -43.207031 26.542969 -38.6875 33.605469 -35.300781 C 34.734375 -34.453125 35.015625 -33.605469 34.453125 -32.476562 C 31.34375 -27.675781 25.132812 -21.742188 19.203125 -21.742188 C 18.074219 -21.742188 16.945312 -22.308594 16.097656 -23.4375 C 9.882812 -31.628906 8.472656 -40.382812 11.578125 -49.417969 C 11.859375 -49.699219 11.859375 -49.984375 11.859375 -49.984375 Z M 11.859375 -49.984375 "/></g></g></g></svg>