<svg xmlns="http://www.w3.org/2000/svg" xmlns:xlink="http://www.w3.org/1999/xlink" zoomAndPan="magnify" preserveAspectRatio="xMidYMid meet" version="1.0" viewBox="6.08 227.05 365.83 84.5">   <g fill="#383b37" fill-opacity="1">     <g transform="translate(5.030986, 274.434496)">       <g>         <path d="M 33.183594 -12.46875 C 32.863281 -12.660156 32.480469 -12.785156 32.160156 -12.785156 C 31.902344 -12.785156 31.648438 -12.722656 31.328125 -12.53125 C 29.855469 -11.570312 28.003906 -10.742188 26.277344 -10.742188 C 25.125 -10.742188 24.101562 -11.0625 23.144531 -11.765625 C 21.417969 -12.785156 21.738281 -12.660156 22.25 -14.320312 C 24.550781 -20.96875 26.40625 -27.554688 27.109375 -34.652344 C 27.300781 -36.441406 27.429688 -38.234375 27.109375 -40.023438 C 26.789062 -41.875 25.191406 -43.539062 23.207031 -43.539062 C 18.796875 -43.539062 16.621094 -32.222656 16.113281 -28.707031 C 15.664062 -25.445312 15.664062 -22.3125 16.621094 -19.050781 C 17.132812 -17.199219 17.773438 -15.34375 19.117188 -13.808594 C 19.5625 -13.296875 19.691406 -12.722656 19.371094 -12.019531 C 18.09375 -8.757812 16.6875 -5.691406 15.089844 -2.621094 C 14.769531 -1.917969 12.660156 1.277344 11.957031 1.277344 C 10.867188 1.277344 7.351562 -8.4375 6.96875 -9.847656 C 5.5 -14.769531 4.539062 -19.820312 3.773438 -24.933594 C 3.070312 -29.792969 2.683594 -34.460938 3.132812 -39.320312 L 3.132812 -39.957031 C 3.070312 -40.535156 2.683594 -40.855469 2.046875 -40.855469 C 1.789062 -40.917969 1.597656 -40.664062 1.46875 -40.085938 C 1.46875 -39.894531 1.40625 -39.703125 1.40625 -39.511719 C 1.085938 -37.464844 1.085938 -35.417969 1.085938 -32.605469 C 1.023438 -30.367188 1.34375 -27.429688 1.664062 -24.421875 C 2.683594 -15.917969 4.476562 -7.480469 8.566406 0.191406 C 9.460938 1.789062 10.742188 2.621094 12.46875 2.621094 C 14.578125 2.621094 17.007812 -1.855469 17.644531 -3.515625 L 20.96875 -10.933594 C 21.226562 -11.378906 21.417969 -11.636719 21.480469 -11.636719 C 21.609375 -11.636719 21.800781 -11.570312 22.121094 -11.378906 C 23.847656 -10.550781 26.214844 -9.589844 28.195312 -9.589844 C 30.175781 -9.589844 31.773438 -10.484375 33.246094 -11.957031 C 33.4375 -12.148438 33.4375 -12.339844 33.183594 -12.46875 Z M 17.964844 -27.621094 C 18.476562 -31.265625 19.882812 -40.855469 23.976562 -42.386719 C 24.167969 -42.386719 24.167969 -42.453125 24.230469 -42.453125 C 25.0625 -42.453125 25.445312 -39.574219 25.445312 -39 L 25.445312 -36.699219 C 24.871094 -29.472656 23.015625 -22.695312 20.714844 -15.855469 C 20.652344 -15.601562 20.585938 -15.40625 20.523438 -15.34375 C 20.457031 -15.214844 20.394531 -15.152344 20.265625 -15.152344 C 19.949219 -15.152344 19.371094 -16.496094 19.308594 -16.816406 C 18.03125 -20.394531 17.453125 -23.847656 17.964844 -27.621094 Z M 17.964844 -27.621094 "/>       </g>     </g>   </g>   <g fill="#383b37" fill-opacity="1">     <g transform="translate(36.485101, 274.434496)">       <g>         <path d="M 17.199219 -7.542969 C 15.28125 -5.113281 11.636719 -2.171875 8.4375 -2.171875 C 6.203125 -2.171875 4.21875 -4.539062 3.132812 -6.328125 C 2.429688 -7.542969 1.980469 -8.824219 2.046875 -10.292969 C 2.046875 -10.804688 2.109375 -10.996094 2.8125 -10.933594 C 5.5625 -10.933594 7.800781 -12.46875 8.503906 -15.214844 C 8.824219 -16.238281 8.4375 -16.941406 7.417969 -17.390625 C 6.777344 -17.644531 6.203125 -17.773438 5.625 -17.773438 C 2.238281 -17.773438 0.191406 -13.9375 0 -10.933594 C 0 -6.136719 4.988281 -1.34375 9.71875 -1.34375 C 14.898438 -1.34375 19.753906 -7.222656 21.800781 -11.507812 C 21.929688 -11.828125 21.867188 -12.019531 21.671875 -12.210938 C 21.480469 -12.339844 21.289062 -12.402344 21.097656 -12.402344 C 20.96875 -12.402344 20.84375 -12.339844 20.714844 -12.210938 C 20.394531 -11.890625 20.140625 -11.570312 19.882812 -11.125 C 18.925781 -9.910156 18.15625 -8.757812 17.199219 -7.542969 Z M 2.171875 -11.957031 C 2.492188 -13.808594 4.476562 -16.941406 6.714844 -16.941406 C 7.160156 -16.941406 7.417969 -16.621094 7.417969 -15.917969 C 7.160156 -13.171875 5.179688 -11.828125 2.683594 -11.378906 C 2.238281 -11.316406 2.109375 -11.507812 2.171875 -11.957031 Z M 2.171875 -11.957031 "/>       </g>     </g>   </g>   <g fill="#383b37" fill-opacity="1">     <g transform="translate(56.495556, 274.434496)">       <g>         <path d="M 15.601562 0.574219 C 20.265625 0.574219 25.382812 -7.542969 27.234375 -11.316406 C 27.363281 -11.636719 27.300781 -11.828125 26.980469 -11.957031 C 26.660156 -12.148438 26.46875 -12.210938 26.277344 -12.210938 C 25.957031 -12.210938 25.765625 -12.019531 25.574219 -11.699219 L 23.785156 -8.886719 C 22.058594 -5.816406 18.15625 -0.382812 14.257812 -0.382812 C 10.804688 -0.382812 8.503906 -5.625 7.992188 -8.4375 C 7.800781 -9.652344 7.734375 -10.933594 7.542969 -12.210938 C 6.777344 -12.722656 6.457031 -12.980469 5.753906 -12.980469 C 5.5 -12.980469 5.113281 -12.914062 4.667969 -12.785156 C 3.964844 -12.59375 3.386719 -12.660156 2.683594 -12.660156 C 2.492188 -12.59375 2.367188 -12.785156 2.429688 -12.980469 C 2.878906 -14.195312 3.070312 -15.472656 3.324219 -16.6875 C 3.773438 -19.308594 2.878906 -20.714844 0.511719 -21.671875 C 0.128906 -21.867188 -0.253906 -21.929688 -0.703125 -21.929688 C -1.277344 -21.929688 -1.855469 -21.738281 -2.429688 -21.355469 C -4.601562 -19.691406 -5.371094 -15.28125 -2.429688 -13.363281 C -2.046875 -13.105469 -1.664062 -12.851562 -1.214844 -12.660156 C -0.640625 -12.210938 0.128906 -12.082031 0.640625 -11.507812 C 0.703125 -11.445312 0.832031 -11.378906 1.085938 -11.378906 L 1.34375 -11.378906 C 1.789062 -11.445312 2.238281 -11.445312 2.683594 -11.445312 L 3.582031 -11.445312 C 4.15625 -11.445312 4.730469 -11.378906 5.304688 -11.570312 C 5.753906 -11.570312 5.945312 -11.378906 6.011719 -10.933594 C 6.074219 -10.421875 6.136719 -9.972656 6.136719 -9.527344 C 6.457031 -4.796875 10.675781 0.574219 15.601562 0.574219 Z M -1.023438 -20.332031 C -0.511719 -20.777344 0 -21.035156 0.449219 -21.035156 C 1.664062 -21.035156 1.980469 -18.925781 1.980469 -17.964844 C 1.980469 -17.132812 1.726562 -12.660156 0.449219 -12.660156 C -0.574219 -12.660156 -1.34375 -13.234375 -1.917969 -14.066406 C -3.195312 -15.917969 -2.8125 -18.988281 -1.023438 -20.332031 Z M -1.023438 -20.332031 "/>       </g>     </g>   </g>   <g fill="#383b37" fill-opacity="1">     <g transform="translate(81.812282, 274.434496)">       <g>         <path d="M 1.46875 -17.773438 C 0.765625 -16.816406 0.640625 -15.664062 0.960938 -14.386719 C 1.214844 -13.808594 1.214844 -13.171875 0.894531 -12.46875 C 0.574219 -11.765625 0.449219 -10.867188 0.449219 -9.910156 C 0.253906 -7.417969 1.664062 -5.371094 3.964844 -4.347656 C 4.410156 -4.15625 4.859375 -4.027344 5.371094 -4.027344 C 6.96875 -4.027344 8.4375 -5.371094 9.269531 -6.648438 C 9.460938 -6.96875 9.71875 -7.097656 9.972656 -7.097656 C 10.039062 -7.097656 10.101562 -7.03125 10.292969 -7.03125 C 11.316406 -6.777344 12.402344 -6.714844 13.488281 -6.648438 C 14.511719 -6.839844 15.535156 -6.714844 16.496094 -7.03125 C 18.539062 -7.734375 21.992188 -9.652344 22.824219 -11.890625 C 22.824219 -12.082031 22.886719 -12.148438 22.824219 -12.339844 C 22.632812 -12.785156 22.183594 -12.980469 21.738281 -12.980469 C 21.546875 -12.980469 21.355469 -12.914062 21.226562 -12.785156 C 20.777344 -12.46875 20.523438 -12.148438 20.203125 -11.828125 C 18.15625 -9.589844 15.023438 -7.992188 11.957031 -7.992188 C 11.507812 -7.992188 11.253906 -8.054688 10.804688 -8.054688 C 10.742188 -8.054688 10.742188 -8.054688 10.675781 -8.121094 C 10.355469 -8.183594 10.230469 -8.375 10.292969 -8.632812 L 10.550781 -9.527344 C 10.996094 -10.996094 11.125 -12.339844 10.933594 -13.808594 C 10.742188 -16.6875 9.015625 -17.582031 6.777344 -18.796875 C 6.011719 -19.117188 5.304688 -19.308594 4.601562 -19.308594 C 3.324219 -19.308594 2.238281 -18.988281 1.46875 -17.773438 Z M 6.328125 -17.964844 C 8.757812 -17.964844 9.398438 -14.832031 9.398438 -12.914062 C 9.398438 -12.210938 9.078125 -8.632812 8.054688 -8.632812 C 6.839844 -8.632812 3.386719 -11.957031 3.386719 -13.683594 C 3.386719 -14.195312 2.941406 -14.703125 3.132812 -15.40625 C 3.453125 -17.007812 4.601562 -17.964844 6.328125 -17.964844 Z M 2.683594 -11.316406 C 2.941406 -11.316406 3.070312 -11.253906 3.261719 -11.0625 C 4.539062 -9.78125 6.011719 -8.757812 7.609375 -7.992188 C 7.863281 -7.800781 7.929688 -7.609375 7.800781 -7.351562 C 7.097656 -6.265625 5.691406 -4.921875 4.347656 -4.921875 C 4.089844 -4.921875 3.835938 -5.050781 3.644531 -5.304688 C 2.238281 -7.160156 1.917969 -9.144531 2.621094 -11.1875 C 2.683594 -11.253906 2.683594 -11.316406 2.683594 -11.316406 Z M 6.074219 -21.355469 C 6.265625 -21.289062 6.203125 -21.226562 6.394531 -21.035156 C 6.457031 -21.035156 6.839844 -20.96875 6.839844 -21.164062 C 7.03125 -21.867188 7.480469 -22.25 7.800781 -22.824219 L 8.632812 -24.167969 L 8.757812 -24.421875 C 8.757812 -24.679688 8.632812 -24.679688 8.4375 -24.871094 C 8.246094 -25.0625 8.246094 -24.871094 8.054688 -24.804688 C 7.289062 -23.847656 6.648438 -22.886719 5.945312 -21.800781 C 5.882812 -21.738281 5.945312 -21.546875 6.074219 -21.355469 Z M 6.074219 -21.355469 "/>       </g>     </g>   </g>   <g fill="#383b37" fill-opacity="1">     <g transform="translate(102.781701, 274.434496)">       <g>         <path d="M 9.972656 -16.367188 C 8.503906 -16.367188 7.160156 -14.195312 6.457031 -12.980469 L 3.515625 -8.503906 C 3.324219 -8.246094 2.558594 -7.222656 2.238281 -7.222656 C 2.046875 -7.222656 1.917969 -7.351562 1.917969 -7.542969 C 1.726562 -8.824219 1.535156 -10.101562 1.980469 -11.378906 C 2.046875 -11.636719 2.046875 -11.828125 1.980469 -11.957031 C 1.855469 -12.082031 1.664062 -12.148438 1.46875 -12.148438 C 0.449219 -12.148438 0.320312 -10.742188 0.320312 -9.972656 C 0.320312 -8.4375 0.382812 -6.265625 2.492188 -6.265625 C 3.324219 -6.265625 4.15625 -7.417969 4.601562 -8.121094 C 5.304688 -9.207031 6.074219 -10.230469 6.777344 -11.445312 C 7.480469 -12.402344 7.929688 -13.171875 8.632812 -14.128906 C 9.078125 -14.640625 9.972656 -15.664062 10.742188 -15.664062 C 10.933594 -15.664062 11.125 -15.535156 11.253906 -15.28125 C 11.570312 -14.832031 11.828125 -14.320312 12.082031 -13.808594 C 12.59375 -12.59375 13.105469 -11.378906 13.683594 -10.164062 C 15.089844 -7.222656 18.859375 -5.050781 22.121094 -5.050781 C 26.085938 -5.050781 29.539062 -8.054688 31.773438 -11.1875 C 31.96875 -11.507812 31.902344 -11.765625 31.582031 -11.957031 C 31.328125 -12.019531 31.136719 -12.148438 30.945312 -12.148438 C 30.753906 -12.148438 30.558594 -12.082031 30.304688 -11.890625 C 29.855469 -11.570312 29.472656 -11.1875 29.152344 -10.867188 C 26.597656 -8.3125 24.488281 -6.136719 20.523438 -6.136719 C 17.964844 -6.136719 16.621094 -7.609375 15.40625 -9.652344 C 14.960938 -10.613281 14.578125 -11.445312 14.128906 -12.273438 L 13.171875 -14.257812 C 12.660156 -15.28125 11.1875 -16.367188 9.972656 -16.367188 Z M 9.972656 -16.367188 "/>       </g>     </g>   </g>   <g fill="#383b37" fill-opacity="1">     <g transform="translate(132.765397, 274.434496)">       <g>         <path d="M 7.222656 0.0625 C 4.921875 0.0625 2.75 -6.136719 2.367188 -7.929688 C 2.046875 -9.398438 1.980469 -10.933594 2.238281 -12.53125 C 2.238281 -12.851562 2.046875 -13.105469 1.726562 -13.171875 C 1.664062 -13.234375 1.535156 -13.234375 1.34375 -13.234375 C 0.511719 -13.234375 0.382812 -10.675781 0.382812 -10.101562 C 0.382812 -7.542969 1.535156 -5.113281 2.621094 -2.878906 C 3.707031 -0.640625 6.011719 0.894531 8.503906 0.894531 C 13.105469 0.894531 19.4375 -7.929688 21.289062 -12.019531 C 21.417969 -12.273438 21.355469 -12.46875 21.035156 -12.59375 C 20.714844 -12.785156 20.394531 -12.851562 20.203125 -12.851562 C 19.949219 -12.851562 19.691406 -12.660156 19.371094 -12.210938 C 17.132812 -8.632812 11.890625 0.0625 7.222656 0.0625 Z M 1.597656 -17.835938 C 1.917969 -17.644531 2.171875 -17.582031 2.429688 -17.582031 C 2.621094 -17.582031 2.8125 -17.644531 3.003906 -17.835938 C 3.261719 -18.15625 3.515625 -18.476562 3.707031 -18.859375 C 3.835938 -19.050781 3.835938 -19.246094 3.773438 -19.4375 C 3.453125 -20.011719 3.070312 -20.585938 2.367188 -20.585938 C 1.597656 -20.585938 1.214844 -19.5 1.152344 -18.796875 C 1.152344 -18.347656 1.277344 -18.03125 1.597656 -17.835938 Z M 1.597656 -17.835938 "/>       </g>     </g>   </g>   <g fill="#383b37" fill-opacity="1">     <g transform="translate(152.200475, 274.434496)">       <g>         <path d="M -0.511719 -5.433594 C 0.128906 -2.238281 3.324219 0.703125 7.03125 0.703125 C 12.851562 0.703125 19.691406 -6.203125 23.082031 -10.484375 C 23.335938 -10.804688 23.589844 -11.0625 23.785156 -11.507812 C 23.847656 -11.699219 23.910156 -11.828125 23.847656 -11.890625 C 23.785156 -12.273438 23.464844 -12.46875 23.015625 -12.46875 C 22.953125 -12.46875 22.824219 -12.402344 22.632812 -12.339844 L 21.164062 -10.804688 C 17.902344 -7.03125 11.1875 -0.320312 5.753906 -0.320312 C 4.539062 -0.320312 3.515625 -0.511719 2.683594 -1.535156 C 0.449219 -4.15625 -0.191406 -8.632812 2.492188 -12.019531 C 3.453125 -13.234375 5.5 -14.578125 7.03125 -14.578125 C 7.351562 -14.578125 7.671875 -14.449219 7.929688 -14.257812 C 7.992188 -14.960938 7.480469 -15.089844 6.96875 -15.28125 C 6.714844 -15.40625 6.394531 -15.472656 6.074219 -15.472656 C 4.089844 -15.472656 1.980469 -14.066406 0.894531 -12.59375 C -0.703125 -10.421875 -1.152344 -8.054688 -0.511719 -5.433594 Z M -0.511719 -5.433594 "/>       </g>     </g>   </g>   <g fill="#383b37" fill-opacity="1">     <g transform="translate(174.192778, 274.434496)">       <g>         <path d="M 7.542969 -10.933594 C 8.375 -11.957031 9.527344 -12.722656 10.101562 -13.9375 L 10.355469 -14.128906 C 10.484375 -14.257812 10.550781 -14.257812 10.613281 -14.195312 C 10.675781 -14.195312 10.804688 -14.066406 10.742188 -14 C 10.742188 -13.554688 10.675781 -13.105469 10.613281 -12.660156 C 10.484375 -11.570312 10.421875 -10.550781 10.484375 -9.71875 C 10.804688 -5.816406 13.554688 -4.15625 16.941406 -2.941406 C 17.835938 -2.621094 18.667969 -2.429688 19.5 -2.429688 C 24.039062 -2.429688 27.875 -7.992188 30.113281 -11.253906 C 30.175781 -11.445312 30.242188 -11.570312 30.242188 -11.699219 C 30.304688 -11.765625 30.304688 -11.890625 30.175781 -11.957031 C 29.984375 -12.210938 29.792969 -12.339844 29.472656 -12.339844 C 29.28125 -12.339844 29.089844 -12.273438 28.960938 -12.148438 C 28.386719 -11.636719 27.875 -10.996094 27.429688 -10.292969 C 25.191406 -7.417969 22.121094 -3.515625 18.222656 -3.515625 C 15.34375 -3.515625 13.296875 -4.859375 12.59375 -7.863281 C 12.273438 -9.335938 12.210938 -10.675781 12.402344 -12.148438 L 12.59375 -14 L 12.59375 -15.023438 C 12.59375 -15.792969 12.082031 -16.496094 11.253906 -16.496094 C 11.0625 -16.496094 10.867188 -16.429688 10.742188 -16.367188 C 10.292969 -16.046875 10.164062 -15.28125 9.460938 -15.34375 C 8.949219 -15.40625 8.4375 -15.792969 7.929688 -16.046875 C 7.351562 -16.367188 6.714844 -16.558594 6.011719 -16.558594 C 2.300781 -16.558594 0 -11.890625 -0.511719 -8.824219 C -0.574219 -8.3125 -0.574219 -7.863281 -0.511719 -7.417969 C -0.320312 -6.394531 0.640625 -5.691406 1.597656 -5.691406 C 3.453125 -5.691406 6.585938 -9.652344 7.542969 -10.933594 Z M 7.480469 -15.664062 C 8.503906 -15.601562 9.015625 -14.578125 8.4375 -13.746094 C 6.90625 -11.765625 5.433594 -9.847656 3.707031 -8.121094 C 3.261719 -7.671875 1.980469 -6.585938 1.40625 -6.585938 C 1.277344 -6.585938 1.214844 -6.648438 1.152344 -6.714844 C 0.960938 -6.90625 1.023438 -6.96875 0.960938 -7.160156 C 1.46875 -10.355469 3.582031 -15.664062 7.480469 -15.664062 Z M 7.480469 -15.664062 "/>       </g>     </g>   </g>   <g fill="#383b37" fill-opacity="1">     <g transform="translate(202.514263, 274.434496)">       <g/>     </g>   </g>   <g fill="#383b37" fill-opacity="1">     <g transform="translate(215.620133, 274.434496)">       <g>         <path d="M 33.183594 -12.46875 C 32.863281 -12.660156 32.480469 -12.785156 32.160156 -12.785156 C 31.902344 -12.785156 31.648438 -12.722656 31.328125 -12.53125 C 29.855469 -11.570312 28.003906 -10.742188 26.277344 -10.742188 C 25.125 -10.742188 24.101562 -11.0625 23.144531 -11.765625 C 21.417969 -12.785156 21.738281 -12.660156 22.25 -14.320312 C 24.550781 -20.96875 26.40625 -27.554688 27.109375 -34.652344 C 27.300781 -36.441406 27.429688 -38.234375 27.109375 -40.023438 C 26.789062 -41.875 25.191406 -43.539062 23.207031 -43.539062 C 18.796875 -43.539062 16.621094 -32.222656 16.113281 -28.707031 C 15.664062 -25.445312 15.664062 -22.3125 16.621094 -19.050781 C 17.132812 -17.199219 17.773438 -15.34375 19.117188 -13.808594 C 19.5625 -13.296875 19.691406 -12.722656 19.371094 -12.019531 C 18.09375 -8.757812 16.6875 -5.691406 15.089844 -2.621094 C 14.769531 -1.917969 12.660156 1.277344 11.957031 1.277344 C 10.867188 1.277344 7.351562 -8.4375 6.96875 -9.847656 C 5.5 -14.769531 4.539062 -19.820312 3.773438 -24.933594 C 3.070312 -29.792969 2.683594 -34.460938 3.132812 -39.320312 L 3.132812 -39.957031 C 3.070312 -40.535156 2.683594 -40.855469 2.046875 -40.855469 C 1.789062 -40.917969 1.597656 -40.664062 1.46875 -40.085938 C 1.46875 -39.894531 1.40625 -39.703125 1.40625 -39.511719 C 1.085938 -37.464844 1.085938 -35.417969 1.085938 -32.605469 C 1.023438 -30.367188 1.34375 -27.429688 1.664062 -24.421875 C 2.683594 -15.917969 4.476562 -7.480469 8.566406 0.191406 C 9.460938 1.789062 10.742188 2.621094 12.46875 2.621094 C 14.578125 2.621094 17.007812 -1.855469 17.644531 -3.515625 L 20.96875 -10.933594 C 21.226562 -11.378906 21.417969 -11.636719 21.480469 -11.636719 C 21.609375 -11.636719 21.800781 -11.570312 22.121094 -11.378906 C 23.847656 -10.550781 26.214844 -9.589844 28.195312 -9.589844 C 30.175781 -9.589844 31.773438 -10.484375 33.246094 -11.957031 C 33.4375 -12.148438 33.4375 -12.339844 33.183594 -12.46875 Z M 17.964844 -27.621094 C 18.476562 -31.265625 19.882812 -40.855469 23.976562 -42.386719 C 24.167969 -42.386719 24.167969 -42.453125 24.230469 -42.453125 C 25.0625 -42.453125 25.445312 -39.574219 25.445312 -39 L 25.445312 -36.699219 C 24.871094 -29.472656 23.015625 -22.695312 20.714844 -15.855469 C 20.652344 -15.601562 20.585938 -15.40625 20.523438 -15.34375 C 20.457031 -15.214844 20.394531 -15.152344 20.265625 -15.152344 C 19.949219 -15.152344 19.371094 -16.496094 19.308594 -16.816406 C 18.03125 -20.394531 17.453125 -23.847656 17.964844 -27.621094 Z M 17.964844 -27.621094 "/>       </g>     </g>   </g>   <g fill="#383b37" fill-opacity="1">     <g transform="translate(247.074248, 274.434496)">       <g>         <path d="M 7.542969 -10.933594 C 8.375 -11.957031 9.527344 -12.722656 10.101562 -13.9375 L 10.355469 -14.128906 C 10.484375 -14.257812 10.550781 -14.257812 10.613281 -14.195312 C 10.675781 -14.195312 10.804688 -14.066406 10.742188 -14 C 10.742188 -13.554688 10.675781 -13.105469 10.613281 -12.660156 C 10.484375 -11.570312 10.421875 -10.550781 10.484375 -9.71875 C 10.804688 -5.816406 13.554688 -4.15625 16.941406 -2.941406 C 17.835938 -2.621094 18.667969 -2.429688 19.5 -2.429688 C 24.039062 -2.429688 27.875 -7.992188 30.113281 -11.253906 C 30.175781 -11.445312 30.242188 -11.570312 30.242188 -11.699219 C 30.304688 -11.765625 30.304688 -11.890625 30.175781 -11.957031 C 29.984375 -12.210938 29.792969 -12.339844 29.472656 -12.339844 C 29.28125 -12.339844 29.089844 -12.273438 28.960938 -12.148438 C 28.386719 -11.636719 27.875 -10.996094 27.429688 -10.292969 C 25.191406 -7.417969 22.121094 -3.515625 18.222656 -3.515625 C 15.34375 -3.515625 13.296875 -4.859375 12.59375 -7.863281 C 12.273438 -9.335938 12.210938 -10.675781 12.402344 -12.148438 L 12.59375 -14 L 12.59375 -15.023438 C 12.59375 -15.792969 12.082031 -16.496094 11.253906 -16.496094 C 11.0625 -16.496094 10.867188 -16.429688 10.742188 -16.367188 C 10.292969 -16.046875 10.164062 -15.28125 9.460938 -15.34375 C 8.949219 -15.40625 8.4375 -15.792969 7.929688 -16.046875 C 7.351562 -16.367188 6.714844 -16.558594 6.011719 -16.558594 C 2.300781 -16.558594 0 -11.890625 -0.511719 -8.824219 C -0.574219 -8.3125 -0.574219 -7.863281 -0.511719 -7.417969 C -0.320312 -6.394531 0.640625 -5.691406 1.597656 -5.691406 C 3.453125 -5.691406 6.585938 -9.652344 7.542969 -10.933594 Z M 7.480469 -15.664062 C 8.503906 -15.601562 9.015625 -14.578125 8.4375 -13.746094 C 6.90625 -11.765625 5.433594 -9.847656 3.707031 -8.121094 C 3.261719 -7.671875 1.980469 -6.585938 1.40625 -6.585938 C 1.277344 -6.585938 1.214844 -6.648438 1.152344 -6.714844 C 0.960938 -6.90625 1.023438 -6.96875 0.960938 -7.160156 C 1.46875 -10.355469 3.582031 -15.664062 7.480469 -15.664062 Z M 7.480469 -15.664062 "/>       </g>     </g>   </g>   <g fill="#383b37" fill-opacity="1">     <g transform="translate(275.395733, 274.434496)">       <g>         <path d="M 15.601562 0.574219 C 20.265625 0.574219 25.382812 -7.542969 27.234375 -11.316406 C 27.363281 -11.636719 27.300781 -11.828125 26.980469 -11.957031 C 26.660156 -12.148438 26.46875 -12.210938 26.277344 -12.210938 C 25.957031 -12.210938 25.765625 -12.019531 25.574219 -11.699219 L 23.785156 -8.886719 C 22.058594 -5.816406 18.15625 -0.382812 14.257812 -0.382812 C 10.804688 -0.382812 8.503906 -5.625 7.992188 -8.4375 C 7.800781 -9.652344 7.734375 -10.933594 7.542969 -12.210938 C 6.777344 -12.722656 6.457031 -12.980469 5.753906 -12.980469 C 5.5 -12.980469 5.113281 -12.914062 4.667969 -12.785156 C 3.964844 -12.59375 3.386719 -12.660156 2.683594 -12.660156 C 2.492188 -12.59375 2.367188 -12.785156 2.429688 -12.980469 C 2.878906 -14.195312 3.070312 -15.472656 3.324219 -16.6875 C 3.773438 -19.308594 2.878906 -20.714844 0.511719 -21.671875 C 0.128906 -21.867188 -0.253906 -21.929688 -0.703125 -21.929688 C -1.277344 -21.929688 -1.855469 -21.738281 -2.429688 -21.355469 C -4.601562 -19.691406 -5.371094 -15.28125 -2.429688 -13.363281 C -2.046875 -13.105469 -1.664062 -12.851562 -1.214844 -12.660156 C -0.640625 -12.210938 0.128906 -12.082031 0.640625 -11.507812 C 0.703125 -11.445312 0.832031 -11.378906 1.085938 -11.378906 L 1.34375 -11.378906 C 1.789062 -11.445312 2.238281 -11.445312 2.683594 -11.445312 L 3.582031 -11.445312 C 4.15625 -11.445312 4.730469 -11.378906 5.304688 -11.570312 C 5.753906 -11.570312 5.945312 -11.378906 6.011719 -10.933594 C 6.074219 -10.421875 6.136719 -9.972656 6.136719 -9.527344 C 6.457031 -4.796875 10.675781 0.574219 15.601562 0.574219 Z M -1.023438 -20.332031 C -0.511719 -20.777344 0 -21.035156 0.449219 -21.035156 C 1.664062 -21.035156 1.980469 -18.925781 1.980469 -17.964844 C 1.980469 -17.132812 1.726562 -12.660156 0.449219 -12.660156 C -0.574219 -12.660156 -1.34375 -13.234375 -1.917969 -14.066406 C -3.195312 -15.917969 -2.8125 -18.988281 -1.023438 -20.332031 Z M -1.023438 -20.332031 "/>       </g>     </g>   </g>   <g fill="#383b37" fill-opacity="1">     <g transform="translate(300.712459, 274.434496)">       <g>         <path d="M 17.199219 -7.542969 C 15.28125 -5.113281 11.636719 -2.171875 8.4375 -2.171875 C 6.203125 -2.171875 4.21875 -4.539062 3.132812 -6.328125 C 2.429688 -7.542969 1.980469 -8.824219 2.046875 -10.292969 C 2.046875 -10.804688 2.109375 -10.996094 2.8125 -10.933594 C 5.5625 -10.933594 7.800781 -12.46875 8.503906 -15.214844 C 8.824219 -16.238281 8.4375 -16.941406 7.417969 -17.390625 C 6.777344 -17.644531 6.203125 -17.773438 5.625 -17.773438 C 2.238281 -17.773438 0.191406 -13.9375 0 -10.933594 C 0 -6.136719 4.988281 -1.34375 9.71875 -1.34375 C 14.898438 -1.34375 19.753906 -7.222656 21.800781 -11.507812 C 21.929688 -11.828125 21.867188 -12.019531 21.671875 -12.210938 C 21.480469 -12.339844 21.289062 -12.402344 21.097656 -12.402344 C 20.96875 -12.402344 20.84375 -12.339844 20.714844 -12.210938 C 20.394531 -11.890625 20.140625 -11.570312 19.882812 -11.125 C 18.925781 -9.910156 18.15625 -8.757812 17.199219 -7.542969 Z M 2.171875 -11.957031 C 2.492188 -13.808594 4.476562 -16.941406 6.714844 -16.941406 C 7.160156 -16.941406 7.417969 -16.621094 7.417969 -15.917969 C 7.160156 -13.171875 5.179688 -11.828125 2.683594 -11.378906 C 2.238281 -11.316406 2.109375 -11.507812 2.171875 -11.957031 Z M 2.171875 -11.957031 "/>       </g>     </g>   </g>   <g fill="#383b37" fill-opacity="1">     <g transform="translate(320.722914, 274.434496)">       <g>         <path d="M 2.238281 -12.082031 C 2.046875 -12.660156 2.109375 -13.105469 2.558594 -13.425781 C 4.539062 -15.472656 6.011719 -17.644531 7.480469 -20.140625 C 8.757812 -22.25 9.972656 -24.296875 11.1875 -26.53125 C 13.554688 -30.558594 16.621094 -36.699219 16.621094 -41.429688 C 16.621094 -44.5 14.195312 -47.375 10.996094 -47.375 C 5.433594 -47.375 1.664062 -39.382812 0.320312 -34.972656 C -0.765625 -31.136719 -1.152344 -27.234375 -1.214844 -23.207031 C -1.277344 -21.738281 -1.152344 -20.394531 -0.960938 -18.925781 C -0.449219 -13.808594 1.855469 -5.5 7.222656 -3.453125 L 9.652344 -2.492188 C 10.421875 -2.238281 11.1875 -2.109375 11.890625 -2.109375 C 16.621094 -2.109375 20.140625 -7.03125 22.375 -10.613281 C 22.570312 -10.867188 22.570312 -11.0625 22.761719 -11.316406 C 22.886719 -11.636719 22.761719 -11.890625 22.441406 -12.082031 C 22.183594 -12.148438 22.058594 -12.273438 21.867188 -12.273438 C 21.671875 -12.273438 21.417969 -12.082031 21.164062 -11.765625 L 18.09375 -7.734375 C 16.238281 -5.242188 13.683594 -3.070312 10.421875 -3.070312 C 5.882812 -3.070312 3.644531 -8.4375 2.238281 -12.082031 Z M 1.726562 -14.195312 C 1.277344 -14.320312 0.574219 -19.050781 0.574219 -19.691406 C 0.253906 -24.613281 0.640625 -29.410156 2.109375 -34.269531 C 3.324219 -38.617188 7.097656 -46.160156 12.402344 -46.160156 C 14.832031 -46.160156 15.28125 -43.667969 15.28125 -41.683594 C 14.960938 -36.699219 12.273438 -31.070312 9.847656 -26.722656 C 7.351562 -22.375 5.371094 -18.605469 2.367188 -14.578125 C 2.171875 -14.386719 2.046875 -14 1.726562 -14.195312 Z M 1.726562 -14.195312 "/>       </g>     </g>   </g>   <g fill="#383b37" fill-opacity="1">     <g transform="translate(341.628384, 274.434496)">       <g>         <path d="M 7.542969 -10.933594 C 8.375 -11.957031 9.527344 -12.722656 10.101562 -13.9375 L 10.355469 -14.128906 C 10.484375 -14.257812 10.550781 -14.257812 10.613281 -14.195312 C 10.675781 -14.195312 10.804688 -14.066406 10.742188 -14 C 10.742188 -13.554688 10.675781 -13.105469 10.613281 -12.660156 C 10.484375 -11.570312 10.421875 -10.550781 10.484375 -9.71875 C 10.804688 -5.816406 13.554688 -4.15625 16.941406 -2.941406 C 17.835938 -2.621094 18.667969 -2.429688 19.5 -2.429688 C 24.039062 -2.429688 27.875 -7.992188 30.113281 -11.253906 C 30.175781 -11.445312 30.242188 -11.570312 30.242188 -11.699219 C 30.304688 -11.765625 30.304688 -11.890625 30.175781 -11.957031 C 29.984375 -12.210938 29.792969 -12.339844 29.472656 -12.339844 C 29.28125 -12.339844 29.089844 -12.273438 28.960938 -12.148438 C 28.386719 -11.636719 27.875 -10.996094 27.429688 -10.292969 C 25.191406 -7.417969 22.121094 -3.515625 18.222656 -3.515625 C 15.34375 -3.515625 13.296875 -4.859375 12.59375 -7.863281 C 12.273438 -9.335938 12.210938 -10.675781 12.402344 -12.148438 L 12.59375 -14 L 12.59375 -15.023438 C 12.59375 -15.792969 12.082031 -16.496094 11.253906 -16.496094 C 11.0625 -16.496094 10.867188 -16.429688 10.742188 -16.367188 C 10.292969 -16.046875 10.164062 -15.28125 9.460938 -15.34375 C 8.949219 -15.40625 8.4375 -15.792969 7.929688 -16.046875 C 7.351562 -16.367188 6.714844 -16.558594 6.011719 -16.558594 C 2.300781 -16.558594 0 -11.890625 -0.511719 -8.824219 C -0.574219 -8.3125 -0.574219 -7.863281 -0.511719 -7.417969 C -0.320312 -6.394531 0.640625 -5.691406 1.597656 -5.691406 C 3.453125 -5.691406 6.585938 -9.652344 7.542969 -10.933594 Z M 7.480469 -15.664062 C 8.503906 -15.601562 9.015625 -14.578125 8.4375 -13.746094 C 6.90625 -11.765625 5.433594 -9.847656 3.707031 -8.121094 C 3.261719 -7.671875 1.980469 -6.585938 1.40625 -6.585938 C 1.277344 -6.585938 1.214844 -6.648438 1.152344 -6.714844 C 0.960938 -6.90625 1.023438 -6.96875 0.960938 -7.160156 C 1.46875 -10.355469 3.582031 -15.664062 7.480469 -15.664062 Z M 7.480469 -15.664062 "/>       </g>     </g>   </g>   <g fill="#383b37" fill-opacity="1">     <g transform="translate(46.567146, 311.36962)">       <g>         <path d="M 10.90625 0 L 9.34375 0 L 2.84375 -9.96875 L 2.78125 -9.96875 C 2.863281 -8.800781 2.90625 -7.726562 2.90625 -6.75 L 2.90625 0 L 1.640625 0 L 1.640625 -11.875 L 3.1875 -11.875 L 9.671875 -1.953125 L 9.734375 -1.953125 C 9.722656 -2.097656 9.695312 -2.566406 9.65625 -3.359375 C 9.625 -4.148438 9.613281 -4.71875 9.625 -5.0625 L 9.625 -11.875 L 10.90625 -11.875 Z M 10.90625 0 "/>       </g>     </g>   </g>   <g fill="#383b37" fill-opacity="1">     <g transform="translate(63.453656, 311.36962)">       <g>         <path d="M 10.609375 -11.875 L 10.609375 -4.1875 C 10.609375 -2.832031 10.195312 -1.769531 9.375 -1 C 8.5625 -0.226562 7.4375 0.15625 6 0.15625 C 4.570312 0.15625 3.46875 -0.226562 2.6875 -1 C 1.90625 -1.78125 1.515625 -2.851562 1.515625 -4.21875 L 1.515625 -11.875 L 2.890625 -11.875 L 2.890625 -4.125 C 2.890625 -3.132812 3.160156 -2.375 3.703125 -1.84375 C 4.242188 -1.3125 5.039062 -1.046875 6.09375 -1.046875 C 7.09375 -1.046875 7.863281 -1.3125 8.40625 -1.84375 C 8.945312 -2.382812 9.21875 -3.148438 9.21875 -4.140625 L 9.21875 -11.875 Z M 10.609375 -11.875 "/>       </g>     </g>   </g>   <g fill="#383b37" fill-opacity="1">     <g transform="translate(79.909634, 311.36962)">       <g>         <path d="M 5.296875 0 L 3.90625 0 L 3.90625 -10.65625 L 0.140625 -10.65625 L 0.140625 -11.875 L 9.046875 -11.875 L 9.046875 -10.65625 L 5.296875 -10.65625 Z M 5.296875 0 "/>       </g>     </g>   </g>   <g fill="#383b37" fill-opacity="1">     <g transform="translate(93.457417, 311.36962)">       <g>         <path d="M 3.015625 -4.9375 L 3.015625 0 L 1.640625 0 L 1.640625 -11.875 L 4.890625 -11.875 C 6.347656 -11.875 7.425781 -11.59375 8.125 -11.03125 C 8.820312 -10.476562 9.171875 -9.644531 9.171875 -8.53125 C 9.171875 -6.957031 8.375 -5.894531 6.78125 -5.34375 L 10 0 L 8.375 0 L 5.5 -4.9375 Z M 3.015625 -6.125 L 4.90625 -6.125 C 5.882812 -6.125 6.597656 -6.316406 7.046875 -6.703125 C 7.503906 -7.085938 7.734375 -7.671875 7.734375 -8.453125 C 7.734375 -9.234375 7.5 -9.796875 7.03125 -10.140625 C 6.570312 -10.492188 5.832031 -10.671875 4.8125 -10.671875 L 3.015625 -10.671875 Z M 3.015625 -6.125 "/>       </g>     </g>   </g>   <g fill="#383b37" fill-opacity="1">     <g transform="translate(108.085609, 311.36962)">       <g>         <path d="M 1.640625 0 L 1.640625 -11.875 L 3.015625 -11.875 L 3.015625 0 Z M 1.640625 0 "/>       </g>     </g>   </g>   <g fill="#383b37" fill-opacity="1">     <g transform="translate(117.068014, 311.36962)">       <g>         <path d="M 6.71875 -10.8125 C 5.414062 -10.8125 4.382812 -10.375 3.625 -9.5 C 2.875 -8.632812 2.5 -7.445312 2.5 -5.9375 C 2.5 -4.382812 2.863281 -3.179688 3.59375 -2.328125 C 4.320312 -1.484375 5.359375 -1.0625 6.703125 -1.0625 C 7.535156 -1.0625 8.484375 -1.210938 9.546875 -1.515625 L 9.546875 -0.296875 C 8.710938 0.00390625 7.691406 0.15625 6.484375 0.15625 C 4.742188 0.15625 3.394531 -0.367188 2.4375 -1.421875 C 1.488281 -2.484375 1.015625 -3.992188 1.015625 -5.953125 C 1.015625 -7.179688 1.242188 -8.253906 1.703125 -9.171875 C 2.160156 -10.097656 2.820312 -10.804688 3.6875 -11.296875 C 4.550781 -11.796875 5.566406 -12.046875 6.734375 -12.046875 C 7.984375 -12.046875 9.070312 -11.820312 10 -11.375 L 9.421875 -10.1875 C 8.515625 -10.601562 7.613281 -10.8125 6.71875 -10.8125 Z M 6.71875 -10.8125 "/>       </g>     </g>   </g>   <g fill="#383b37" fill-opacity="1">     <g transform="translate(131.907416, 311.36962)">       <g>         <path d="M 1.640625 0 L 1.640625 -11.875 L 3.015625 -11.875 L 3.015625 0 Z M 1.640625 0 "/>       </g>     </g>   </g>   <g fill="#383b37" fill-opacity="1">     <g transform="translate(140.889826, 311.36962)">       <g>         <path d="M 11.9375 -5.953125 C 11.9375 -4.054688 11.457031 -2.5625 10.5 -1.46875 C 9.539062 -0.382812 8.203125 0.15625 6.484375 0.15625 C 4.742188 0.15625 3.394531 -0.375 2.4375 -1.4375 C 1.488281 -2.507812 1.015625 -4.019531 1.015625 -5.96875 C 1.015625 -7.90625 1.488281 -9.40625 2.4375 -10.46875 C 3.394531 -11.53125 4.753906 -12.0625 6.515625 -12.0625 C 8.210938 -12.0625 9.539062 -11.519531 10.5 -10.4375 C 11.457031 -9.351562 11.9375 -7.859375 11.9375 -5.953125 Z M 2.484375 -5.953125 C 2.484375 -4.347656 2.820312 -3.128906 3.5 -2.296875 C 4.1875 -1.460938 5.179688 -1.046875 6.484375 -1.046875 C 7.804688 -1.046875 8.800781 -1.457031 9.46875 -2.28125 C 10.144531 -3.113281 10.484375 -4.335938 10.484375 -5.953125 C 10.484375 -7.554688 10.144531 -8.769531 9.46875 -9.59375 C 8.800781 -10.414062 7.816406 -10.828125 6.515625 -10.828125 C 5.191406 -10.828125 4.1875 -10.410156 3.5 -9.578125 C 2.820312 -8.753906 2.484375 -7.546875 2.484375 -5.953125 Z M 5.34375 -13.03125 C 5.601562 -13.375 5.882812 -13.78125 6.1875 -14.25 C 6.488281 -14.726562 6.726562 -15.144531 6.90625 -15.5 L 8.546875 -15.5 L 8.546875 -15.328125 C 8.304688 -14.972656 7.945312 -14.535156 7.46875 -14.015625 C 7 -13.503906 6.59375 -13.109375 6.25 -12.828125 L 5.34375 -12.828125 Z M 5.34375 -13.03125 "/>       </g>     </g>   </g>   <g fill="#383b37" fill-opacity="1">     <g transform="translate(158.190637, 311.36962)">       <g>         <path d="M 10.90625 0 L 9.34375 0 L 2.84375 -9.96875 L 2.78125 -9.96875 C 2.863281 -8.800781 2.90625 -7.726562 2.90625 -6.75 L 2.90625 0 L 1.640625 0 L 1.640625 -11.875 L 3.1875 -11.875 L 9.671875 -1.953125 L 9.734375 -1.953125 C 9.722656 -2.097656 9.695312 -2.566406 9.65625 -3.359375 C 9.625 -4.148438 9.613281 -4.71875 9.625 -5.0625 L 9.625 -11.875 L 10.90625 -11.875 Z M 10.90625 0 "/>       </g>     </g>   </g>   <g fill="#383b37" fill-opacity="1">     <g transform="translate(175.077143, 311.36962)">       <g/>     </g>   </g>   <g fill="#383b37" fill-opacity="1">     <g transform="translate(183.742729, 311.36962)">       <g>         <path d="M 4.65625 -5.9375 L 7.828125 -11.875 L 9.3125 -11.875 L 5.359375 -4.609375 L 5.359375 0 L 3.953125 0 L 3.953125 -4.546875 L 0 -11.875 L 1.515625 -11.875 Z M 4.65625 -5.9375 "/>       </g>     </g>   </g>   <g fill="#383b37" fill-opacity="1">     <g transform="translate(197.404245, 311.36962)">       <g/>     </g>   </g>   <g fill="#383b37" fill-opacity="1">     <g transform="translate(206.069831, 311.36962)">       <g>         <path d="M 1.640625 0 L 1.640625 -11.875 L 3.015625 -11.875 L 3.015625 -1.25 L 8.25 -1.25 L 8.25 0 Z M 1.640625 0 "/>       </g>     </g>   </g>   <g fill="#383b37" fill-opacity="1">     <g transform="translate(219.048977, 311.36962)">       <g>         <path d="M 9.09375 0 L 7.625 -3.78125 L 2.859375 -3.78125 L 1.390625 0 L 0 0 L 4.703125 -11.921875 L 5.859375 -11.921875 L 10.53125 0 Z M 7.1875 -5.015625 L 5.8125 -8.703125 C 5.632812 -9.171875 5.445312 -9.742188 5.25 -10.421875 C 5.132812 -9.898438 4.96875 -9.328125 4.75 -8.703125 L 3.34375 -5.015625 Z M 7.1875 -5.015625 "/>       </g>     </g>   </g>   <g fill="#383b37" fill-opacity="1">     <g transform="translate(233.920868, 311.36962)">       <g>         <path d="M 6.71875 -10.8125 C 5.414062 -10.8125 4.382812 -10.375 3.625 -9.5 C 2.875 -8.632812 2.5 -7.445312 2.5 -5.9375 C 2.5 -4.382812 2.863281 -3.179688 3.59375 -2.328125 C 4.320312 -1.484375 5.359375 -1.0625 6.703125 -1.0625 C 7.535156 -1.0625 8.484375 -1.210938 9.546875 -1.515625 L 9.546875 -0.296875 C 8.710938 0.00390625 7.691406 0.15625 6.484375 0.15625 C 4.742188 0.15625 3.394531 -0.367188 2.4375 -1.421875 C 1.488281 -2.484375 1.015625 -3.992188 1.015625 -5.953125 C 1.015625 -7.179688 1.242188 -8.253906 1.703125 -9.171875 C 2.160156 -10.097656 2.820312 -10.804688 3.6875 -11.296875 C 4.550781 -11.796875 5.566406 -12.046875 6.734375 -12.046875 C 7.984375 -12.046875 9.070312 -11.820312 10 -11.375 L 9.421875 -10.1875 C 8.515625 -10.601562 7.613281 -10.8125 6.71875 -10.8125 Z M 6.71875 -10.8125 "/>       </g>     </g>   </g>   <g fill="#383b37" fill-opacity="1">     <g transform="translate(248.760265, 311.36962)">       <g>         <path d="M 5.296875 0 L 3.90625 0 L 3.90625 -10.65625 L 0.140625 -10.65625 L 0.140625 -11.875 L 9.046875 -11.875 L 9.046875 -10.65625 L 5.296875 -10.65625 Z M 5.296875 0 "/>       </g>     </g>   </g>   <g fill="#383b37" fill-opacity="1">     <g transform="translate(262.308043, 311.36962)">       <g>         <path d="M 9.09375 0 L 7.625 -3.78125 L 2.859375 -3.78125 L 1.390625 0 L 0 0 L 4.703125 -11.921875 L 5.859375 -11.921875 L 10.53125 0 Z M 7.1875 -5.015625 L 5.8125 -8.703125 C 5.632812 -9.171875 5.445312 -9.742188 5.25 -10.421875 C 5.132812 -9.898438 4.96875 -9.328125 4.75 -8.703125 L 3.34375 -5.015625 Z M 7.1875 -5.015625 "/>       </g>     </g>   </g>   <g fill="#383b37" fill-opacity="1">     <g transform="translate(277.179934, 311.36962)">       <g>         <path d="M 10.90625 0 L 9.34375 0 L 2.84375 -9.96875 L 2.78125 -9.96875 C 2.863281 -8.800781 2.90625 -7.726562 2.90625 -6.75 L 2.90625 0 L 1.640625 0 L 1.640625 -11.875 L 3.1875 -11.875 L 9.671875 -1.953125 L 9.734375 -1.953125 C 9.722656 -2.097656 9.695312 -2.566406 9.65625 -3.359375 C 9.625 -4.148438 9.613281 -4.71875 9.625 -5.0625 L 9.625 -11.875 L 10.90625 -11.875 Z M 10.90625 0 "/>       </g>     </g>   </g>   <g fill="#383b37" fill-opacity="1">     <g transform="translate(294.06644, 311.36962)">       <g>         <path d="M 6.71875 -10.8125 C 5.414062 -10.8125 4.382812 -10.375 3.625 -9.5 C 2.875 -8.632812 2.5 -7.445312 2.5 -5.9375 C 2.5 -4.382812 2.863281 -3.179688 3.59375 -2.328125 C 4.320312 -1.484375 5.359375 -1.0625 6.703125 -1.0625 C 7.535156 -1.0625 8.484375 -1.210938 9.546875 -1.515625 L 9.546875 -0.296875 C 8.710938 0.00390625 7.691406 0.15625 6.484375 0.15625 C 4.742188 0.15625 3.394531 -0.367188 2.4375 -1.421875 C 1.488281 -2.484375 1.015625 -3.992188 1.015625 -5.953125 C 1.015625 -7.179688 1.242188 -8.253906 1.703125 -9.171875 C 2.160156 -10.097656 2.820312 -10.804688 3.6875 -11.296875 C 4.550781 -11.796875 5.566406 -12.046875 6.734375 -12.046875 C 7.984375 -12.046875 9.070312 -11.820312 10 -11.375 L 9.421875 -10.1875 C 8.515625 -10.601562 7.613281 -10.8125 6.71875 -10.8125 Z M 6.71875 -10.8125 "/>       </g>     </g>   </g>   <g fill="#383b37" fill-opacity="1">     <g transform="translate(308.905837, 311.36962)">       <g>         <path d="M 1.640625 0 L 1.640625 -11.875 L 3.015625 -11.875 L 3.015625 0 Z M 1.640625 0 "/>       </g>     </g>   </g>   <g fill="#383b37" fill-opacity="1">     <g transform="translate(317.888237, 311.36962)">       <g>         <path d="M 9.09375 0 L 7.625 -3.78125 L 2.859375 -3.78125 L 1.390625 0 L 0 0 L 4.703125 -11.921875 L 5.859375 -11.921875 L 10.53125 0 Z M 7.1875 -5.015625 L 5.8125 -8.703125 C 5.632812 -9.171875 5.445312 -9.742188 5.25 -10.421875 C 5.132812 -9.898438 4.96875 -9.328125 4.75 -8.703125 L 3.34375 -5.015625 Z M 7.1875 -5.015625 "/>       </g>     </g>   </g> </svg>