<svg width="870" height="1114" viewBox="0 0 870 1114" fill="none" xmlns="http://www.w3.org/2000/svg">
<path d="M301.5 545.5C180.3 511.1 163.667 597.167 170.5 644.5L386.5 970.5C424.5 1001.3 480 971.667 503 953L702.5 638C705.7 521.6 614.5 527.833 568.5 545.5L431.5 734.5L301.5 545.5Z" fill="#E05D00"/>
<path d="M445 995.293C438.091 996.211 429.455 995.676 426 995.293L435.788 993.8L445 995.293Z" fill="#282828"/>
<path d="M445.5 331.5C441.167 236.333 487.9 44.4 709.5 38C722.667 128.833 688.3 314.7 445.5 331.5Z" fill="#798803"/>
<circle cx="730" cy="387" r="20" fill="#282828"/>
<circle cx="251" cy="307" r="20" fill="#282828"/>
<path fill-rule="evenodd" clip-rule="evenodd" d="M242 289.051C98.5866 360.168 0 508.071 0 679C0 919.244 194.756 1114 435 1114C675.244 1114 870 919.244 870 679C870 558.577 821.067 449.584 742 370.818V400H714.614C785.915 471.457 830 570.08 830 679C830 897.152 653.152 1074 435 1074C216.848 1074 40 897.152 40 679C40 523.057 130.367 388.22 261.592 324H242V289.051Z" fill="#282828"/>
<path fill-rule="evenodd" clip-rule="evenodd" d="M415.128 327.689L416.576 372.655L461.064 365.956C576.031 348.644 649.192 292.207 692.392 226.649C734.63 162.55 747.046 91.6954 745.582 44.1706L744.881 21.4041H744.866C744.196 10.9642 735.517 2.70387 724.908 2.70387C724.301 2.70387 723.701 2.73088 723.108 2.78377V2.76849L744.222 0.00208282L744.222 0L700.405 5.74096C584.843 20.882 511.323 77.0506 468.044 143.122C425.793 207.624 413.577 279.507 415.128 327.689ZM455.108 326.402C454.721 314.392 455.348 300.529 457.336 285.521C468.132 204.01 519.062 88.7018 665.694 52.8156C678.279 49.7354 691.57 47.2403 705.601 45.402C705.969 57.33 705.293 71.147 703.215 86.1391C692.113 166.258 640.972 279.94 495.003 318.246C482.421 321.548 469.134 324.29 455.108 326.402Z" fill="#282828"/>
<rect x="415.5" y="359" width="38" height="360" fill="#282828"/>
<path fill-rule="evenodd" clip-rule="evenodd" d="M494.284 927.603C482.046 945.873 462.913 955.288 443.52 955.353C439.738 955.541 433.115 955.46 428.201 955.344C408.378 955.694 388.676 946.271 376.172 927.603L198.626 662.54C177.956 631.68 185.611 588.226 215.582 566.288C244.503 545.118 283.409 551.972 303.355 581.75L401.994 729.011L418.062 753H418.065C421.804 758.254 428.078 761.7 435.188 761.7C442.297 761.7 448.572 758.254 452.311 753H452.331L451.694 753.951L451.99 753.601L468.461 729.011L567.1 581.75C587.046 551.972 625.953 545.118 654.873 566.287C684.845 588.225 692.5 631.68 671.829 662.539L494.284 927.603ZM459.3 670.813L435.228 706.751L411.156 670.813L336.589 559.489C303.985 510.814 239.231 499.407 191.956 534.01C144.682 568.614 132.789 636.125 165.393 684.8L342.938 949.864C362.69 979.352 394.242 995.163 426.558 995.351C430.24 995.718 438.109 996.147 444.597 995.344C476.669 994.933 507.908 979.139 527.517 949.864L705.063 684.8C737.667 636.124 725.774 568.614 678.499 534.01C631.225 499.406 566.47 510.814 533.867 559.489L459.3 670.813Z" fill="#282828"/>
</svg>
